<svg width="26" height="31" viewBox="0 0 26 31" fill="none" xmlns="http://www.w3.org/2000/svg">
<path d="M22.4901 8.75385C22.271 8.55485 21.9801 8.44385 21.6776 8.44385C21.3751 8.44385 21.0841 8.55485 20.8651 8.75385L12.0535 17.1742C12.3755 17.4175 12.6746 17.6872 12.9473 17.9802C13.1786 18.2348 13.3879 18.507 13.5729 18.794L22.5104 10.2883C22.617 10.1867 22.7013 10.0658 22.7585 9.93275C22.8157 9.7997 22.8446 9.65714 22.8435 9.51335C22.8343 9.22585 22.7074 8.95323 22.4901 8.75385ZM19.2401 12.2685L14.6941 16.6007C14.636 16.6533 14.5589 16.6827 14.4788 16.6827C14.3987 16.6827 14.3216 16.6533 14.2635 16.6007C14.2065 16.5462 14.1744 16.4724 14.1744 16.3953C14.1744 16.3183 14.2065 16.2445 14.2635 16.19L18.8054 11.8577C18.8631 11.8064 18.9395 11.7784 19.0185 11.7798C19.0974 11.7811 19.1727 11.8116 19.2285 11.8648C19.2844 11.9181 19.3163 11.9899 19.3177 12.0652C19.3191 12.1405 19.2898 12.2134 19.236 12.2685H19.2401ZM12.7401 18.1701C12.9678 18.426 13.173 18.6995 13.3535 18.9877L13.3048 19.0342C13.2634 19.2306 13.2022 19.4226 13.1219 19.6077V19.6658C13.0491 19.8699 12.9595 20.0682 12.8538 20.2587C12.662 20.6074 12.4139 20.9252 12.1185 21.2003C11.5685 21.6979 10.8923 22.0504 10.1563 22.2233H10.1198C9.80048 22.3172 9.47028 22.3732 9.13663 22.39C9.03813 22.392 8.93977 22.3816 8.84413 22.359C8.79769 22.3473 8.75481 22.3253 8.71897 22.2948C8.68314 22.2643 8.65538 22.2261 8.63795 22.1834C8.62052 22.1407 8.61392 22.0947 8.61869 22.0491C8.62346 22.0035 8.63946 21.9597 8.66538 21.9211C8.87801 21.6354 9.05268 21.3256 9.18538 20.9988C9.30481 20.6994 9.39193 20.3891 9.44538 20.0727C9.45989 19.944 9.46667 19.8147 9.4657 19.6852C9.45257 19.3468 9.51632 19.0098 9.65257 18.6971C9.83269 18.3262 10.1333 18.0205 10.5098 17.8252C10.7881 17.6795 11.0926 17.5849 11.4076 17.5462H11.4441C11.5299 17.5289 11.6167 17.5173 11.7041 17.5113L11.8341 17.3873C12.1549 17.6206 12.4515 17.8828 12.7198 18.1701H12.7401Z" fill="white"/>
</svg>
