<svg width="26" height="34" viewBox="0 0 26 34" fill="none" xmlns="http://www.w3.org/2000/svg">
<path d="M14.4063 26.075C8.35719 26.075 3.4375 20.9282 3.4375 14.6C3.4375 8.27175 8.35719 3.125 14.4063 3.125C15.0705 3.125 15.7469 3.19088 16.4172 3.3205C16.7727 3.39062 17.0428 3.69662 17.0773 4.07275C17.1139 4.44887 16.9067 4.80587 16.5695 4.94612C13.7745 6.11487 11.9688 8.90287 11.9688 12.05C11.9688 16.2681 15.2492 19.7 19.2813 19.7C20.628 19.7 21.9442 19.3132 23.0878 18.5822C23.3966 18.3846 23.7927 18.425 24.0608 18.68C24.3269 18.935 24.4 19.3451 24.2395 19.6851C22.3728 23.627 18.6069 26.075 14.4063 26.075ZM13.5531 4.86538C8.8 5.318 5.0625 9.51062 5.0625 14.6C5.0625 19.989 9.255 24.375 14.4063 24.375C17.1119 24.375 19.6083 23.1807 21.3511 21.1471C20.6767 21.315 19.982 21.4 19.2813 21.4C14.3534 21.4 10.3438 17.2052 10.3438 12.05C10.3438 9.20887 11.5483 6.60787 13.5531 4.86538Z" fill="white"/>
</svg>
