<svg width="16" height="22" viewBox="0 0 16 22" fill="none" xmlns="http://www.w3.org/2000/svg">
<g clip-path="url(#clip0_658_10837)">
<path d="M15.5788 0.927383C15.5033 0.791888 15.3695 0.709961 15.2255 0.709961H7.77437C7.61773 0.709961 7.47437 0.80707 7.40392 0.961185L0.405746 16.2283C0.340902 16.3701 0.347413 16.5385 0.422934 16.6729C0.498454 16.8083 0.632178 16.8903 0.776189 16.8903H8.22723C8.38387 16.8903 8.52723 16.7932 8.59767 16.6391L15.596 1.37197C15.6608 1.23017 15.6543 1.06173 15.5788 0.927383ZM7.97189 15.9779H1.44989L4.74064 8.7984H11.2628L7.97189 15.9779Z" fill="white"/>
<path d="M2.725 23.1632C2.71167 23.0732 2.68167 22.9915 2.635 22.9182C2.58833 22.8415 2.53 22.7749 2.46 22.7182C2.39 22.6615 2.31 22.6182 2.22 22.5882C2.13333 22.5549 2.04167 22.5382 1.945 22.5382C1.76833 22.5382 1.61833 22.5732 1.495 22.6432C1.37167 22.7099 1.27167 22.8015 1.195 22.9182C1.11833 23.0315 1.06167 23.1615 1.025 23.3082C0.991667 23.4549 0.975 23.6065 0.975 23.7632C0.975 23.9132 0.991667 24.0599 1.025 24.2032C1.06167 24.3432 1.11833 24.4699 1.195 24.5832C1.27167 24.6965 1.37167 24.7882 1.495 24.8582C1.61833 24.9249 1.76833 24.9582 1.945 24.9582C2.185 24.9582 2.37167 24.8849 2.505 24.7382C2.64167 24.5915 2.725 24.3982 2.755 24.1582H3.515C3.495 24.3815 3.44333 24.5832 3.36 24.7632C3.27667 24.9432 3.16667 25.0965 3.03 25.2232C2.89333 25.3499 2.73333 25.4465 2.55 25.5132C2.36667 25.5799 2.165 25.6132 1.945 25.6132C1.67167 25.6132 1.425 25.5665 1.205 25.4732C0.988333 25.3765 0.805 25.2449 0.655 25.0782C0.505 24.9115 0.39 24.7165 0.31 24.4932C0.23 24.2665 0.19 24.0232 0.19 23.7632C0.19 23.4965 0.23 23.2499 0.31 23.0232C0.39 22.7932 0.505 22.5932 0.655 22.4232C0.805 22.2532 0.988333 22.1199 1.205 22.0232C1.425 21.9265 1.67167 21.8782 1.945 21.8782C2.14167 21.8782 2.32667 21.9065 2.5 21.9632C2.67667 22.0199 2.83333 22.1032 2.97 22.2132C3.11 22.3199 3.225 22.4532 3.315 22.6132C3.405 22.7732 3.46167 22.9565 3.485 23.1632H2.725ZM3.97605 22.9482H4.65105V23.4282H4.66105C4.69439 23.3482 4.73939 23.2749 4.79605 23.2082C4.85272 23.1382 4.91772 23.0799 4.99105 23.0332C5.06439 22.9832 5.14272 22.9449 5.22605 22.9182C5.30939 22.8915 5.39605 22.8782 5.48605 22.8782C5.53272 22.8782 5.58439 22.8865 5.64105 22.9032V23.5632C5.60772 23.5565 5.56772 23.5515 5.52105 23.5482C5.47439 23.5415 5.42939 23.5382 5.38605 23.5382C5.25605 23.5382 5.14605 23.5599 5.05605 23.6032C4.96605 23.6465 4.89272 23.7065 4.83605 23.7832C4.78272 23.8565 4.74439 23.9432 4.72105 24.0432C4.69772 24.1432 4.68605 24.2515 4.68605 24.3682V25.5332H3.97605V22.9482ZM7.57152 23.9632C7.53819 23.7832 7.47819 23.6465 7.39152 23.5532C7.30819 23.4599 7.17986 23.4132 7.00652 23.4132C6.89319 23.4132 6.79819 23.4332 6.72152 23.4732C6.64819 23.5099 6.58819 23.5565 6.54152 23.6132C6.49819 23.6699 6.46652 23.7299 6.44652 23.7932C6.42986 23.8565 6.41986 23.9132 6.41652 23.9632H7.57152ZM6.41652 24.4132C6.42652 24.6432 6.48486 24.8099 6.59152 24.9132C6.69819 25.0165 6.85152 25.0682 7.05152 25.0682C7.19486 25.0682 7.31819 25.0332 7.42152 24.9632C7.52486 24.8899 7.58819 24.8132 7.61152 24.7332H8.23652C8.13652 25.0432 7.98319 25.2649 7.77652 25.3982C7.56986 25.5315 7.31986 25.5982 7.02652 25.5982C6.82319 25.5982 6.63986 25.5665 6.47652 25.5032C6.31319 25.4365 6.17486 25.3432 6.06152 25.2232C5.94819 25.1032 5.85986 24.9599 5.79652 24.7932C5.73652 24.6265 5.70652 24.4432 5.70652 24.2432C5.70652 24.0499 5.73819 23.8699 5.80152 23.7032C5.86486 23.5365 5.95486 23.3932 6.07152 23.2732C6.18819 23.1499 6.32652 23.0532 6.48652 22.9832C6.64986 22.9132 6.82986 22.8782 7.02652 22.8782C7.24652 22.8782 7.43819 22.9215 7.60152 23.0082C7.76486 23.0915 7.89819 23.2049 8.00152 23.3482C8.10819 23.4915 8.18486 23.6549 8.23152 23.8382C8.27819 24.0215 8.29486 24.2132 8.28152 24.4132H6.41652ZM8.67262 23.7432C8.68262 23.5765 8.72428 23.4382 8.79762 23.3282C8.87095 23.2182 8.96428 23.1299 9.07762 23.0632C9.19095 22.9965 9.31762 22.9499 9.45762 22.9232C9.60095 22.8932 9.74428 22.8782 9.88762 22.8782C10.0176 22.8782 10.1493 22.8882 10.2826 22.9082C10.416 22.9249 10.5376 22.9599 10.6476 23.0132C10.7576 23.0665 10.8476 23.1415 10.9176 23.2382C10.9876 23.3315 11.0226 23.4565 11.0226 23.6132V24.9582C11.0226 25.0749 11.0293 25.1865 11.0426 25.2932C11.056 25.3999 11.0793 25.4799 11.1126 25.5332H10.3926C10.3793 25.4932 10.3676 25.4532 10.3576 25.4132C10.351 25.3699 10.346 25.3265 10.3426 25.2832C10.2293 25.3999 10.096 25.4815 9.94262 25.5282C9.78928 25.5749 9.63262 25.5982 9.47262 25.5982C9.34928 25.5982 9.23428 25.5832 9.12762 25.5532C9.02095 25.5232 8.92762 25.4765 8.84762 25.4132C8.76762 25.3499 8.70428 25.2699 8.65762 25.1732C8.61428 25.0765 8.59262 24.9615 8.59262 24.8282C8.59262 24.6815 8.61762 24.5615 8.66762 24.4682C8.72095 24.3715 8.78762 24.2949 8.86762 24.2382C8.95095 24.1815 9.04428 24.1399 9.14762 24.1132C9.25428 24.0832 9.36095 24.0599 9.46762 24.0432C9.57428 24.0265 9.67928 24.0132 9.78262 24.0032C9.88595 23.9932 9.97762 23.9782 10.0576 23.9582C10.1376 23.9382 10.201 23.9099 10.2476 23.8732C10.2943 23.8332 10.316 23.7765 10.3126 23.7032C10.3126 23.6265 10.2993 23.5665 10.2726 23.5232C10.2493 23.4765 10.216 23.4415 10.1726 23.4182C10.1326 23.3915 10.0843 23.3749 10.0276 23.3682C9.97428 23.3582 9.91595 23.3532 9.85262 23.3532C9.71262 23.3532 9.60262 23.3832 9.52262 23.4432C9.44262 23.5032 9.39595 23.6032 9.38262 23.7432H8.67262ZM10.3126 24.2682C10.2826 24.2949 10.2443 24.3165 10.1976 24.3332C10.1543 24.3465 10.106 24.3582 10.0526 24.3682C10.0026 24.3782 9.94928 24.3865 9.89262 24.3932C9.83595 24.3999 9.77928 24.4082 9.72262 24.4182C9.66928 24.4282 9.61595 24.4415 9.56262 24.4582C9.51262 24.4749 9.46762 24.4982 9.42762 24.5282C9.39095 24.5549 9.36095 24.5899 9.33762 24.6332C9.31428 24.6765 9.30262 24.7315 9.30262 24.7982C9.30262 24.8615 9.31428 24.9149 9.33762 24.9582C9.36095 25.0015 9.39262 25.0365 9.43262 25.0632C9.47262 25.0865 9.51928 25.1032 9.57262 25.1132C9.62595 25.1232 9.68095 25.1282 9.73762 25.1282C9.87762 25.1282 9.98595 25.1049 10.0626 25.0582C10.1393 25.0115 10.196 24.9565 10.2326 24.8932C10.2693 24.8265 10.291 24.7599 10.2976 24.6932C10.3076 24.6265 10.3126 24.5732 10.3126 24.5332V24.2682ZM1.17 28.9482H1.69V29.4232H1.17V30.7032C1.17 30.8232 1.19 30.9032 1.23 30.9432C1.27 30.9832 1.35 31.0032 1.47 31.0032C1.51 31.0032 1.54833 31.0015 1.585 30.9982C1.62167 30.9949 1.65667 30.9899 1.69 30.9832V31.5332C1.63 31.5432 1.56333 31.5499 1.49 31.5532C1.41667 31.5565 1.345 31.5582 1.275 31.5582C1.165 31.5582 1.06 31.5499 0.96 31.5332C0.863333 31.5199 0.776667 31.4915 0.7 31.4482C0.626667 31.4049 0.568333 31.3432 0.525 31.2632C0.481667 31.1832 0.46 31.0782 0.46 30.9482V29.4232H0.03V28.9482H0.46V28.1732H1.17V28.9482ZM3.76781 29.9632C3.73448 29.7832 3.67448 29.6465 3.58781 29.5532C3.50448 29.4599 3.37615 29.4132 3.20281 29.4132C3.08948 29.4132 2.99448 29.4332 2.91781 29.4732C2.84448 29.5099 2.78448 29.5565 2.73781 29.6132C2.69448 29.6699 2.66281 29.7299 2.64281 29.7932C2.62615 29.8565 2.61615 29.9132 2.61281 29.9632H3.76781ZM2.61281 30.4132C2.62281 30.6432 2.68115 30.8099 2.78781 30.9132C2.89448 31.0165 3.04781 31.0682 3.24781 31.0682C3.39115 31.0682 3.51448 31.0332 3.61781 30.9632C3.72115 30.8899 3.78448 30.8132 3.80781 30.7332H4.43281C4.33281 31.0432 4.17948 31.2649 3.97281 31.3982C3.76615 31.5315 3.51615 31.5982 3.22281 31.5982C3.01948 31.5982 2.83615 31.5665 2.67281 31.5032C2.50948 31.4365 2.37115 31.3432 2.25781 31.2232C2.14448 31.1032 2.05615 30.9599 1.99281 30.7932C1.93281 30.6265 1.90281 30.4432 1.90281 30.2432C1.90281 30.0499 1.93448 29.8699 1.99781 29.7032C2.06115 29.5365 2.15115 29.3932 2.26781 29.2732C2.38448 29.1499 2.52281 29.0532 2.68281 28.9832C2.84615 28.9132 3.02615 28.8782 3.22281 28.8782C3.44281 28.8782 3.63448 28.9215 3.79781 29.0082C3.96115 29.0915 4.09448 29.2049 4.19781 29.3482C4.30448 29.4915 4.38115 29.6549 4.42781 29.8382C4.47448 30.0215 4.49115 30.2132 4.47781 30.4132H2.61281ZM6.73391 30.2332C6.73391 30.1265 6.72391 30.0249 6.70391 29.9282C6.68391 29.8282 6.64891 29.7415 6.59891 29.6682C6.55224 29.5915 6.49057 29.5299 6.41391 29.4832C6.33724 29.4365 6.24057 29.4132 6.12391 29.4132C6.00724 29.4132 5.90891 29.4365 5.82891 29.4832C5.74891 29.5299 5.68391 29.5915 5.63391 29.6682C5.58724 29.7449 5.55224 29.8332 5.52891 29.9332C5.50891 30.0299 5.49891 30.1315 5.49891 30.2382C5.49891 30.3382 5.51057 30.4382 5.53391 30.5382C5.55724 30.6382 5.59391 30.7282 5.64391 30.8082C5.69724 30.8849 5.76224 30.9482 5.83891 30.9982C5.91891 31.0449 6.01391 31.0682 6.12391 31.0682C6.24057 31.0682 6.33724 31.0449 6.41391 30.9982C6.49391 30.9515 6.55724 30.8899 6.60391 30.8132C6.65057 30.7332 6.68391 30.6432 6.70391 30.5432C6.72391 30.4432 6.73391 30.3399 6.73391 30.2332ZM6.74391 31.2032H6.73391C6.65057 31.3432 6.54057 31.4449 6.40391 31.5082C6.27057 31.5682 6.11891 31.5982 5.94891 31.5982C5.75557 31.5982 5.58557 31.5615 5.43891 31.4882C5.29224 31.4115 5.17057 31.3099 5.07391 31.1832C4.98057 31.0532 4.90891 30.9049 4.85891 30.7382C4.81224 30.5715 4.78891 30.3982 4.78891 30.2182C4.78891 30.0449 4.81224 29.8782 4.85891 29.7182C4.90891 29.5549 4.98057 29.4115 5.07391 29.2882C5.17057 29.1649 5.29057 29.0665 5.43391 28.9932C5.57724 28.9165 5.74391 28.8782 5.93391 28.8782C6.08724 28.8782 6.23224 28.9115 6.36891 28.9782C6.50891 29.0415 6.61891 29.1365 6.69891 29.2632H6.70891V27.9632H7.41891V31.5332H6.74391V31.2032ZM2.165 36.2432C2.165 36.1332 2.15333 36.0282 2.13 35.9282C2.10667 35.8282 2.07 35.7399 2.02 35.6632C1.97 35.5865 1.90667 35.5265 1.83 35.4832C1.75667 35.4365 1.66667 35.4132 1.56 35.4132C1.45667 35.4132 1.36667 35.4365 1.29 35.4832C1.21333 35.5265 1.15 35.5865 1.1 35.6632C1.05 35.7399 1.01333 35.8282 0.99 35.9282C0.966667 36.0282 0.955 36.1332 0.955 36.2432C0.955 36.3499 0.966667 36.4532 0.99 36.5532C1.01333 36.6532 1.05 36.7415 1.1 36.8182C1.15 36.8949 1.21333 36.9565 1.29 37.0032C1.36667 37.0465 1.45667 37.0682 1.56 37.0682C1.66667 37.0682 1.75667 37.0465 1.83 37.0032C1.90667 36.9565 1.97 36.8949 2.02 36.8182C2.07 36.7415 2.10667 36.6532 2.13 36.5532C2.15333 36.4532 2.165 36.3499 2.165 36.2432ZM0.27 33.9632H0.98V35.2632H0.99C1.07667 35.1299 1.19333 35.0332 1.34 34.9732C1.49 34.9099 1.645 34.8782 1.805 34.8782C1.935 34.8782 2.06333 34.9049 2.19 34.9582C2.31667 35.0115 2.43 35.0932 2.53 35.2032C2.63333 35.3132 2.71667 35.4549 2.78 35.6282C2.84333 35.7982 2.875 36.0015 2.875 36.2382C2.875 36.4749 2.84333 36.6799 2.78 36.8532C2.71667 37.0232 2.63333 37.1632 2.53 37.2732C2.43 37.3832 2.31667 37.4649 2.19 37.5182C2.06333 37.5715 1.935 37.5982 1.805 37.5982C1.615 37.5982 1.445 37.5682 1.295 37.5082C1.145 37.4482 1.03167 37.3465 0.955 37.2032H0.945V37.5332H0.27V33.9632ZM4.60164 37.8532C4.52497 38.0632 4.41831 38.2132 4.28164 38.3032C4.14497 38.3932 3.95497 38.4382 3.71164 38.4382C3.63831 38.4382 3.56497 38.4349 3.49164 38.4282C3.42164 38.4249 3.34997 38.4199 3.27664 38.4132V37.8282C3.34331 37.8349 3.41164 37.8415 3.48164 37.8482C3.55164 37.8549 3.62164 37.8565 3.69164 37.8532C3.78497 37.8432 3.85331 37.8065 3.89664 37.7432C3.94331 37.6799 3.96664 37.6099 3.96664 37.5332C3.96664 37.4765 3.95664 37.4232 3.93664 37.3732L3.03164 34.9482H3.78664L4.37164 36.7182H4.38164L4.94664 34.9482H5.68164L4.60164 37.8532ZM0.27 40.9482H0.945V41.3082H0.96C1.05 41.1582 1.16667 41.0499 1.31 40.9832C1.45333 40.9132 1.6 40.8782 1.75 40.8782C1.94 40.8782 2.095 40.9049 2.215 40.9582C2.33833 41.0082 2.435 41.0799 2.505 41.1732C2.575 41.2632 2.62333 41.3749 2.65 41.5082C2.68 41.6382 2.695 41.7832 2.695 41.9432V43.5332H1.985V42.0732C1.985 41.8599 1.95167 41.7015 1.885 41.5982C1.81833 41.4915 1.7 41.4382 1.53 41.4382C1.33667 41.4382 1.19667 41.4965 1.11 41.6132C1.02333 41.7265 0.98 41.9149 0.98 42.1782V43.5332H0.27V40.9482ZM3.20387 41.7432C3.21387 41.5765 3.25553 41.4382 3.32887 41.3282C3.4022 41.2182 3.49553 41.1299 3.60887 41.0632C3.7222 40.9965 3.84887 40.9499 3.98887 40.9232C4.1322 40.8932 4.27553 40.8782 4.41887 40.8782C4.54887 40.8782 4.68053 40.8882 4.81387 40.9082C4.9472 40.9249 5.06887 40.9599 5.17887 41.0132C5.28887 41.0665 5.37887 41.1415 5.44887 41.2382C5.51887 41.3315 5.55387 41.4565 5.55387 41.6132V42.9582C5.55387 43.0749 5.56053 43.1865 5.57387 43.2932C5.5872 43.3999 5.61053 43.4799 5.64387 43.5332H4.92387C4.91053 43.4932 4.89887 43.4532 4.88887 43.4132C4.8822 43.3699 4.8772 43.3265 4.87387 43.2832C4.76053 43.3999 4.6272 43.4815 4.47387 43.5282C4.32053 43.5749 4.16387 43.5982 4.00387 43.5982C3.88053 43.5982 3.76553 43.5832 3.65887 43.5532C3.5522 43.5232 3.45887 43.4765 3.37887 43.4132C3.29887 43.3499 3.23553 43.2699 3.18887 43.1732C3.14553 43.0765 3.12387 42.9615 3.12387 42.8282C3.12387 42.6815 3.14887 42.5615 3.19887 42.4682C3.2522 42.3715 3.31887 42.2949 3.39887 42.2382C3.4822 42.1815 3.57553 42.1399 3.67887 42.1132C3.78553 42.0832 3.8922 42.0599 3.99887 42.0432C4.10553 42.0265 4.21053 42.0132 4.31387 42.0032C4.4172 41.9932 4.50887 41.9782 4.58887 41.9582C4.66887 41.9382 4.7322 41.9099 4.77887 41.8732C4.82553 41.8332 4.8472 41.7765 4.84387 41.7032C4.84387 41.6265 4.83053 41.5665 4.80387 41.5232C4.78053 41.4765 4.7472 41.4415 4.70387 41.4182C4.66387 41.3915 4.61553 41.3749 4.55887 41.3682C4.50553 41.3582 4.4472 41.3532 4.38387 41.3532C4.24387 41.3532 4.13387 41.3832 4.05387 41.4432C3.97387 41.5032 3.9272 41.6032 3.91387 41.7432H3.20387ZM4.84387 42.2682C4.81387 42.2949 4.77553 42.3165 4.72887 42.3332C4.68553 42.3465 4.6372 42.3582 4.58387 42.3682C4.53387 42.3782 4.48053 42.3865 4.42387 42.3932C4.3672 42.3999 4.31053 42.4082 4.25387 42.4182C4.20053 42.4282 4.1472 42.4415 4.09387 42.4582C4.04387 42.4749 3.99887 42.4982 3.95887 42.5282C3.9222 42.5549 3.8922 42.5899 3.86887 42.6332C3.84553 42.6765 3.83387 42.7315 3.83387 42.7982C3.83387 42.8615 3.84553 42.9149 3.86887 42.9582C3.8922 43.0015 3.92387 43.0365 3.96387 43.0632C4.00387 43.0865 4.05053 43.1032 4.10387 43.1132C4.1572 43.1232 4.2122 43.1282 4.26887 43.1282C4.40887 43.1282 4.5172 43.1049 4.59387 43.0582C4.67053 43.0115 4.7272 42.9565 4.76387 42.8932C4.80053 42.8265 4.8222 42.7599 4.82887 42.6932C4.83887 42.6265 4.84387 42.5732 4.84387 42.5332V42.2682ZM6.73496 42.2432C6.73496 42.3465 6.74496 42.4482 6.76496 42.5482C6.78496 42.6449 6.81829 42.7332 6.86496 42.8132C6.91496 42.8899 6.97996 42.9515 7.05996 42.9982C7.13996 43.0449 7.23996 43.0682 7.35996 43.0682C7.47996 43.0682 7.57996 43.0449 7.65996 42.9982C7.74329 42.9515 7.80829 42.8899 7.85496 42.8132C7.90496 42.7332 7.93996 42.6449 7.95996 42.5482C7.97996 42.4482 7.98996 42.3465 7.98996 42.2432C7.98996 42.1399 7.97996 42.0382 7.95996 41.9382C7.93996 41.8382 7.90496 41.7499 7.85496 41.6732C7.80829 41.5965 7.74329 41.5349 7.65996 41.4882C7.57996 41.4382 7.47996 41.4132 7.35996 41.4132C7.23996 41.4132 7.13996 41.4382 7.05996 41.4882C6.97996 41.5349 6.91496 41.5965 6.86496 41.6732C6.81829 41.7499 6.78496 41.8382 6.76496 41.9382C6.74496 42.0382 6.73496 42.1399 6.73496 42.2432ZM6.02496 42.2432C6.02496 42.0365 6.05663 41.8499 6.11996 41.6832C6.18329 41.5132 6.27329 41.3699 6.38996 41.2532C6.50663 41.1332 6.64663 41.0415 6.80996 40.9782C6.97329 40.9115 7.15663 40.8782 7.35996 40.8782C7.56329 40.8782 7.74663 40.9115 7.90996 40.9782C8.07663 41.0415 8.21829 41.1332 8.33496 41.2532C8.45163 41.3699 8.54163 41.5132 8.60496 41.6832C8.66829 41.8499 8.69996 42.0365 8.69996 42.2432C8.69996 42.4499 8.66829 42.6365 8.60496 42.8032C8.54163 42.9699 8.45163 43.1132 8.33496 43.2332C8.21829 43.3499 8.07663 43.4399 7.90996 43.5032C7.74663 43.5665 7.56329 43.5982 7.35996 43.5982C7.15663 43.5982 6.97329 43.5665 6.80996 43.5032C6.64663 43.4399 6.50663 43.3499 6.38996 43.2332C6.27329 43.1132 6.18329 42.9699 6.11996 42.8032C6.05663 42.6365 6.02496 42.4499 6.02496 42.2432ZM9.1816 40.9482H9.8516V41.2982H9.8616C9.95493 41.1649 10.0666 41.0615 10.1966 40.9882C10.3299 40.9149 10.4816 40.8782 10.6516 40.8782C10.8149 40.8782 10.9633 40.9099 11.0966 40.9732C11.2333 41.0365 11.3366 41.1482 11.4066 41.3082C11.4833 41.1949 11.5866 41.0949 11.7166 41.0082C11.8499 40.9215 12.0066 40.8782 12.1866 40.8782C12.3233 40.8782 12.4499 40.8949 12.5666 40.9282C12.6833 40.9615 12.7833 41.0149 12.8666 41.0882C12.9499 41.1615 13.0149 41.2582 13.0616 41.3782C13.1083 41.4949 13.1316 41.6365 13.1316 41.8032V43.5332H12.4216V42.0682C12.4216 41.9815 12.4183 41.8999 12.4116 41.8232C12.4049 41.7465 12.3866 41.6799 12.3566 41.6232C12.3266 41.5665 12.2816 41.5215 12.2216 41.4882C12.1649 41.4549 12.0866 41.4382 11.9866 41.4382C11.8866 41.4382 11.8049 41.4582 11.7416 41.4982C11.6816 41.5349 11.6333 41.5849 11.5966 41.6482C11.5633 41.7082 11.5399 41.7782 11.5266 41.8582C11.5166 41.9349 11.5116 42.0132 11.5116 42.0932V43.5332H10.8016V42.0832C10.8016 42.0065 10.7999 41.9315 10.7966 41.8582C10.7933 41.7815 10.7783 41.7115 10.7516 41.6482C10.7283 41.5849 10.6866 41.5349 10.6266 41.4982C10.5699 41.4582 10.4849 41.4382 10.3716 41.4382C10.3383 41.4382 10.2933 41.4465 10.2366 41.4632C10.1833 41.4765 10.1299 41.5049 10.0766 41.5482C10.0266 41.5882 9.98327 41.6482 9.9466 41.7282C9.90993 41.8049 9.8916 41.9065 9.8916 42.0332V43.5332H9.1816V40.9482ZM1 46.5482H0.29V45.9632H1V46.5482ZM0.29 46.9482H1V49.5332H0.29V46.9482ZM2.92066 47.7432C2.93066 47.5765 2.97233 47.4382 3.04566 47.3282C3.119 47.2182 3.21233 47.1299 3.32566 47.0632C3.439 46.9965 3.56566 46.9499 3.70566 46.9232C3.849 46.8932 3.99233 46.8782 4.13566 46.8782C4.26566 46.8782 4.39733 46.8882 4.53066 46.9082C4.664 46.9249 4.78566 46.9599 4.89566 47.0132C5.00566 47.0665 5.09566 47.1415 5.16566 47.2382C5.23566 47.3315 5.27066 47.4565 5.27066 47.6132V48.9582C5.27066 49.0749 5.27733 49.1865 5.29066 49.2932C5.304 49.3999 5.32733 49.4799 5.36066 49.5332H4.64066C4.62733 49.4932 4.61566 49.4532 4.60566 49.4132C4.599 49.3699 4.594 49.3265 4.59066 49.2832C4.47733 49.3999 4.344 49.4815 4.19066 49.5282C4.03733 49.5749 3.88066 49.5982 3.72066 49.5982C3.59733 49.5982 3.48233 49.5832 3.37566 49.5532C3.269 49.5232 3.17566 49.4765 3.09566 49.4132C3.01566 49.3499 2.95233 49.2699 2.90566 49.1732C2.86233 49.0765 2.84066 48.9615 2.84066 48.8282C2.84066 48.6815 2.86566 48.5615 2.91566 48.4682C2.969 48.3715 3.03566 48.2949 3.11566 48.2382C3.199 48.1815 3.29233 48.1399 3.39566 48.1132C3.50233 48.0832 3.609 48.0599 3.71566 48.0432C3.82233 48.0265 3.92733 48.0132 4.03066 48.0032C4.134 47.9932 4.22566 47.9782 4.30566 47.9582C4.38566 47.9382 4.449 47.9099 4.49566 47.8732C4.54233 47.8332 4.564 47.7765 4.56066 47.7032C4.56066 47.6265 4.54733 47.5665 4.52066 47.5232C4.49733 47.4765 4.464 47.4415 4.42066 47.4182C4.38066 47.3915 4.33233 47.3749 4.27566 47.3682C4.22233 47.3582 4.164 47.3532 4.10066 47.3532C3.96066 47.3532 3.85066 47.3832 3.77066 47.4432C3.69066 47.5032 3.644 47.6032 3.63066 47.7432H2.92066ZM4.56066 48.2682C4.53066 48.2949 4.49233 48.3165 4.44566 48.3332C4.40233 48.3465 4.354 48.3582 4.30066 48.3682C4.25066 48.3782 4.19733 48.3865 4.14066 48.3932C4.084 48.3999 4.02733 48.4082 3.97066 48.4182C3.91733 48.4282 3.864 48.4415 3.81066 48.4582C3.76066 48.4749 3.71566 48.4982 3.67566 48.5282C3.639 48.5549 3.609 48.5899 3.58566 48.6332C3.56233 48.6765 3.55066 48.7315 3.55066 48.7982C3.55066 48.8615 3.56233 48.9149 3.58566 48.9582C3.609 49.0015 3.64066 49.0365 3.68066 49.0632C3.72066 49.0865 3.76733 49.1032 3.82066 49.1132C3.874 49.1232 3.929 49.1282 3.98566 49.1282C4.12566 49.1282 4.234 49.1049 4.31066 49.0582C4.38733 49.0115 4.444 48.9565 4.48066 48.8932C4.51733 48.8265 4.539 48.7599 4.54566 48.6932C4.55566 48.6265 4.56066 48.5732 4.56066 48.5332V48.2682ZM5.82176 46.9482H6.49676V47.4282H6.50676C6.54009 47.3482 6.58509 47.2749 6.64176 47.2082C6.69842 47.1382 6.76342 47.0799 6.83676 47.0332C6.91009 46.9832 6.98842 46.9449 7.07176 46.9182C7.15509 46.8915 7.24176 46.8782 7.33176 46.8782C7.37842 46.8782 7.43009 46.8865 7.48676 46.9032V47.5632C7.45342 47.5565 7.41342 47.5515 7.36676 47.5482C7.32009 47.5415 7.27509 47.5382 7.23176 47.5382C7.10176 47.5382 6.99176 47.5599 6.90176 47.6032C6.81176 47.6465 6.73842 47.7065 6.68176 47.7832C6.62842 47.8565 6.59009 47.9432 6.56676 48.0432C6.54342 48.1432 6.53176 48.2515 6.53176 48.3682V49.5332H5.82176V46.9482ZM8.82852 48.9232C8.92852 48.9232 9.01685 48.9032 9.09352 48.8632C9.17018 48.8232 9.23352 48.7699 9.28352 48.7032C9.33352 48.6365 9.37018 48.5615 9.39352 48.4782C9.42018 48.3915 9.43352 48.3015 9.43352 48.2082C9.43352 48.1015 9.42352 48.0015 9.40352 47.9082C9.38352 47.8115 9.35018 47.7265 9.30352 47.6532C9.25685 47.5799 9.19518 47.5215 9.11852 47.4782C9.04185 47.4349 8.94518 47.4132 8.82852 47.4132C8.72852 47.4132 8.64185 47.4332 8.56852 47.4732C8.49852 47.5132 8.43852 47.5682 8.38852 47.6382C8.34185 47.7049 8.30685 47.7832 8.28352 47.8732C8.26352 47.9599 8.25352 48.0515 8.25352 48.1482C8.25352 48.2415 8.26185 48.3349 8.27852 48.4282C8.29852 48.5182 8.33018 48.5999 8.37352 48.6732C8.42018 48.7465 8.48018 48.8065 8.55352 48.8532C8.62685 48.8999 8.71852 48.9232 8.82852 48.9232ZM10.1085 49.3682C10.1085 49.4715 10.0935 49.5899 10.0635 49.7232C10.0368 49.8565 9.97685 49.9799 9.88352 50.0932C9.79018 50.2099 9.65518 50.3082 9.47852 50.3882C9.30185 50.4682 9.06518 50.5082 8.76852 50.5082C8.64185 50.5082 8.51185 50.4915 8.37852 50.4582C8.24852 50.4282 8.12852 50.3799 8.01852 50.3132C7.91185 50.2465 7.82185 50.1599 7.74852 50.0532C7.67852 49.9499 7.63852 49.8249 7.62852 49.6782H8.33352C8.36685 49.8115 8.43185 49.9032 8.52852 49.9532C8.62518 50.0065 8.73685 50.0332 8.86352 50.0332C9.06352 50.0332 9.20852 49.9732 9.29852 49.8532C9.39185 49.7332 9.43685 49.5815 9.43352 49.3982V49.0582H9.42352C9.34685 49.1949 9.23685 49.2965 9.09352 49.3632C8.95352 49.4265 8.80518 49.4582 8.64852 49.4582C8.45518 49.4582 8.28852 49.4249 8.14852 49.3582C8.00852 49.2882 7.89352 49.1949 7.80352 49.0782C7.71352 48.9582 7.64685 48.8199 7.60352 48.6632C7.56352 48.5032 7.54352 48.3349 7.54352 48.1582C7.54352 47.9915 7.56685 47.8315 7.61352 47.6782C7.66352 47.5215 7.73518 47.3849 7.82852 47.2682C7.92185 47.1482 8.03685 47.0532 8.17352 46.9832C8.31352 46.9132 8.47352 46.8782 8.65352 46.8782C8.82352 46.8782 8.97185 46.9099 9.09852 46.9732C9.22852 47.0365 9.33685 47.1432 9.42352 47.2932H9.43352V46.9482H10.1085V49.3682ZM11.4102 46.5482H10.7002V45.9632H11.4102V46.5482ZM10.7002 46.9482H11.4102V49.5332H10.7002V46.9482Z" fill="white"/>
</g>
<defs>
<clipPath id="clip0_658_10837">
<rect width="16" height="22" fill="white"/>
</clipPath>
</defs>
</svg>
