<svg width="36" height="44" viewBox="0 0 36 44" fill="none" xmlns="http://www.w3.org/2000/svg">
<path d="M18.0002 8.71191C16.2023 8.71191 14.4449 9.23319 12.95 10.2098C11.4552 11.1864 10.2901 12.5746 9.6021 14.1986C8.91409 15.8227 8.73408 17.6098 9.08482 19.3339C9.43556 21.058 10.3013 22.6417 11.5726 23.8847C12.8438 25.1277 14.4635 25.9742 16.2268 26.3171C17.9901 26.6601 19.8178 26.4841 21.4788 25.8114C23.1397 25.1386 24.5594 23.9994 25.5582 22.5378C26.557 21.0762 27.0902 19.3578 27.0902 17.5999C27.0873 15.2435 26.1287 12.9845 24.4246 11.3182C22.7205 9.65202 20.4101 8.71471 18.0002 8.71191ZM18.0002 25.0799C16.4871 25.0799 15.0081 24.6412 13.75 23.8193C12.492 22.9974 11.5115 21.8292 10.9325 20.4624C10.3535 19.0956 10.202 17.5916 10.4972 16.1406C10.7923 14.6897 11.5209 13.3569 12.5908 12.3108C13.6607 11.2647 15.0238 10.5523 16.5077 10.2636C17.9917 9.97502 19.5298 10.1232 20.9277 10.6893C22.3255 11.2554 23.5203 12.2142 24.3609 13.4442C25.2015 14.6743 25.6502 16.1205 25.6502 17.5999C25.6483 19.5832 24.8417 21.4846 23.4074 22.887C21.9732 24.2894 20.0285 25.0781 18.0002 25.0799Z" fill="white"/>
<path d="M17.9993 8.0958C18.1903 8.0958 18.3734 8.02163 18.5084 7.8896C18.6434 7.75758 18.7193 7.57851 18.7193 7.3918V4.3998C18.7193 4.21309 18.6434 4.03402 18.5084 3.902C18.3734 3.76997 18.1903 3.6958 17.9993 3.6958C17.8083 3.6958 17.6252 3.76997 17.4902 3.902C17.3552 4.03402 17.2793 4.21309 17.2793 4.3998V7.3918C17.2793 7.57851 17.3552 7.75758 17.4902 7.8896C17.6252 8.02163 17.8083 8.0958 17.9993 8.0958Z" fill="white"/>
<path d="M10.1093 10.8804C10.2444 11.0125 10.4276 11.0867 10.6187 11.0867C10.8097 11.0867 10.993 11.0125 11.1281 10.8804C11.2632 10.7483 11.3391 10.5691 11.3391 10.3823C11.3391 10.1955 11.2632 10.0163 11.1281 9.88423L8.96808 7.77223C8.83298 7.64013 8.64974 7.56592 8.45868 7.56592C8.26762 7.56592 8.08438 7.64013 7.94928 7.77223C7.81418 7.90433 7.73828 8.08349 7.73828 8.27031C7.73828 8.45713 7.81418 8.63629 7.94928 8.76839L10.1093 10.8804Z" fill="white"/>
<path d="M8.2793 17.6C8.2793 17.4133 8.20344 17.2342 8.06841 17.1022C7.93339 16.9702 7.75025 16.896 7.5593 16.896H4.4993C4.30834 16.896 4.12521 16.9702 3.99018 17.1022C3.85515 17.2342 3.7793 17.4133 3.7793 17.6C3.7793 17.7867 3.85515 17.9658 3.99018 18.0978C4.12521 18.2298 4.30834 18.304 4.4993 18.304H7.5593C7.75025 18.304 7.93339 18.2298 8.06841 18.0978C8.20344 17.9658 8.2793 17.7867 8.2793 17.6Z" fill="white"/>
<path d="M10.1093 24.3196L7.94928 26.4316C7.88239 26.497 7.82932 26.5747 7.79312 26.6601C7.75692 26.7456 7.73828 26.8372 7.73828 26.9297C7.73828 27.0222 7.75692 27.1138 7.79312 27.1992C7.82932 27.2847 7.88239 27.3623 7.94928 27.4278C8.01618 27.4932 8.09559 27.545 8.183 27.5804C8.2704 27.6158 8.36408 27.6341 8.45868 27.6341C8.55329 27.6341 8.64696 27.6158 8.73437 27.5804C8.82177 27.545 8.90119 27.4932 8.96808 27.4278L11.1281 25.3158C11.2632 25.1837 11.3391 25.0045 11.3391 24.8177C11.3391 24.6309 11.2632 24.4517 11.1281 24.3196C10.993 24.1875 10.8097 24.1133 10.6187 24.1133C10.4276 24.1133 10.2444 24.1875 10.1093 24.3196Z" fill="white"/>
<path d="M17.9993 27.104C17.8083 27.104 17.6252 27.1782 17.4902 27.3102C17.3552 27.4422 17.2793 27.6213 17.2793 27.808V30.8C17.2793 30.9867 17.3552 31.1658 17.4902 31.2978C17.6252 31.4298 17.8083 31.504 17.9993 31.504C18.1903 31.504 18.3734 31.4298 18.5084 31.2978C18.6434 31.1658 18.7193 30.9867 18.7193 30.8V27.808C18.7193 27.6213 18.6434 27.4422 18.5084 27.3102C18.3734 27.1782 18.1903 27.104 17.9993 27.104Z" fill="white"/>
<path d="M25.8919 24.3196C25.7568 24.1875 25.5736 24.1133 25.3825 24.1133C25.1914 24.1133 25.0082 24.1875 24.8731 24.3196C24.738 24.4517 24.6621 24.6309 24.6621 24.8177C24.6621 25.0045 24.738 25.1837 24.8731 25.3158L27.0331 27.4278C27.1 27.4932 27.1794 27.545 27.2668 27.5804C27.3542 27.6158 27.4479 27.6341 27.5425 27.6341C27.6371 27.6341 27.7308 27.6158 27.8182 27.5804C27.9056 27.545 27.985 27.4932 28.0519 27.4278C28.1188 27.3623 28.1719 27.2847 28.2081 27.1992C28.2443 27.1138 28.2629 27.0222 28.2629 26.9297C28.2629 26.8372 28.2443 26.7456 28.2081 26.6601C28.1719 26.5747 28.1188 26.497 28.0519 26.4316L25.8919 24.3196Z" fill="white"/>
<path d="M31.5007 16.896H28.4407C28.2497 16.896 28.0666 16.9702 27.9316 17.1022C27.7966 17.2342 27.7207 17.4133 27.7207 17.6C27.7207 17.7867 27.7966 17.9658 27.9316 18.0978C28.0666 18.2298 28.2497 18.304 28.4407 18.304H31.5007C31.6917 18.304 31.8748 18.2298 32.0098 18.0978C32.1448 17.9658 32.2207 17.7867 32.2207 17.6C32.2207 17.4133 32.1448 17.2342 32.0098 17.1022C31.8748 16.9702 31.6917 16.896 31.5007 16.896Z" fill="white"/>
<path d="M25.3827 11.0847C25.5733 11.0839 25.7559 11.0092 25.8903 10.877L28.0503 8.76497C28.1172 8.69956 28.1702 8.62191 28.2065 8.53645C28.2427 8.45099 28.2613 8.35939 28.2613 8.26689C28.2613 8.17439 28.2427 8.08279 28.2065 7.99733C28.1702 7.91187 28.1172 7.83422 28.0503 7.76881C27.9834 7.7034 27.904 7.65152 27.8166 7.61612C27.7292 7.58072 27.6355 7.5625 27.5409 7.5625C27.4463 7.5625 27.3526 7.58072 27.2652 7.61612C27.1778 7.65152 27.0984 7.7034 27.0315 7.76881L24.8715 9.88081C24.7714 9.97925 24.7033 10.1044 24.6758 10.2406C24.6482 10.3768 24.6625 10.5179 24.7167 10.6461C24.771 10.7744 24.8628 10.8842 24.9807 10.9615C25.0985 11.0389 25.2371 11.0805 25.3791 11.0811L25.3827 11.0847Z" fill="white"/>
</svg>
