<svg width="40" height="47" viewBox="0 0 40 47" fill="none" xmlns="http://www.w3.org/2000/svg">
<path d="M34.6007 13.2718C34.2637 12.97 33.8161 12.8018 33.3507 12.8018C32.8853 12.8018 32.4377 12.97 32.1007 13.2718L18.5445 26.0381C19.0399 26.4069 19.5 26.8158 19.9195 27.2601C20.2754 27.6461 20.5973 28.0587 20.882 28.4939L34.632 15.5983C34.796 15.4441 34.9257 15.2608 35.0137 15.0591C35.1017 14.8574 35.1461 14.6413 35.1445 14.4233C35.1303 13.9874 34.9351 13.574 34.6007 13.2718ZM29.6007 18.6004L22.607 25.1686C22.5175 25.2484 22.399 25.2928 22.2757 25.2928C22.1524 25.2928 22.0339 25.2484 21.9445 25.1686C21.8567 25.086 21.8074 24.974 21.8074 24.8573C21.8074 24.7405 21.8567 24.6285 21.9445 24.5459L28.932 17.9776C29.0208 17.8998 29.1383 17.8574 29.2598 17.8594C29.3812 17.8615 29.4971 17.9077 29.583 17.9884C29.6689 18.0692 29.7181 18.1781 29.7202 18.2922C29.7223 18.4064 29.6773 18.5169 29.5945 18.6004H29.6007ZM19.6007 27.548C19.9511 27.936 20.2668 28.3507 20.5445 28.7876L20.4695 28.8581C20.4058 29.1558 20.3116 29.447 20.1882 29.7276V29.8158C20.0762 30.1252 19.9383 30.4257 19.7757 30.7146C19.4806 31.2433 19.0989 31.7251 18.6445 32.1423C17.7983 32.8965 16.758 33.431 15.6257 33.6933H15.5695C15.0783 33.8356 14.5703 33.9205 14.057 33.9459C13.9054 33.949 13.7541 33.9332 13.607 33.8989C13.5355 33.8812 13.4695 33.8478 13.4144 33.8016C13.3593 33.7553 13.3166 33.6974 13.2898 33.6327C13.2629 33.568 13.2528 33.4982 13.2601 33.4291C13.2675 33.36 13.2921 33.2935 13.332 33.235C13.6591 32.8018 13.9278 32.3321 14.132 31.8368C14.3157 31.3827 14.4497 30.9122 14.532 30.4326C14.5543 30.2375 14.5647 30.0414 14.5632 29.8451C14.543 29.3321 14.6411 28.8211 14.8507 28.347C15.1278 27.7847 15.5902 27.3212 16.1695 27.0251C16.5977 26.8042 17.0662 26.6607 17.5507 26.6021H17.607C17.7388 26.5759 17.8725 26.5582 18.007 26.5493L18.207 26.3613C18.7005 26.715 19.1567 27.1124 19.5695 27.548H19.6007Z" fill="white"/>
</svg>
