<svg width="18" height="21" viewBox="0 0 18 21" fill="none" xmlns="http://www.w3.org/2000/svg">
<path d="M15.5691 5.92973C15.4175 5.79492 15.2161 5.71973 15.0066 5.71973C14.7972 5.71973 14.5958 5.79492 14.4441 5.92973L8.34384 11.6339C8.56679 11.7986 8.77383 11.9813 8.96259 12.1799C9.12277 12.3523 9.26762 12.5367 9.39571 12.7311L15.5832 6.96923C15.657 6.90035 15.7154 6.81846 15.755 6.72834C15.7946 6.63821 15.8146 6.54163 15.8138 6.44423C15.8074 6.24947 15.7196 6.06479 15.5691 5.92973ZM13.3191 8.3106L10.172 11.2454C10.1317 11.281 10.0784 11.3009 10.0229 11.3009C9.96743 11.3009 9.91407 11.281 9.87384 11.2454C9.83433 11.2084 9.81215 11.1584 9.81215 11.1062C9.81215 11.0541 9.83433 11.004 9.87384 10.9671L13.0182 8.03235C13.0582 7.99758 13.1111 7.97864 13.1657 7.97954C13.2204 7.98044 13.2725 8.0011 13.3112 8.03718C13.3498 8.07325 13.372 8.12191 13.3729 8.17291C13.3739 8.22392 13.3536 8.27328 13.3163 8.3106H13.3191ZM8.81915 12.3085C8.97683 12.4819 9.11888 12.6671 9.24384 12.8624L9.21009 12.8939C9.18144 13.0269 9.13906 13.157 9.08352 13.2824V13.3217C9.03311 13.46 8.97104 13.5943 8.8979 13.7234C8.7651 13.9596 8.59331 14.1748 8.38884 14.3612C8.00806 14.6982 7.53993 14.9371 7.0304 15.0542H7.00509C6.78405 15.1178 6.55545 15.1557 6.32446 15.1671C6.25626 15.1685 6.18817 15.1614 6.12196 15.1461C6.08981 15.1382 6.06012 15.1233 6.03531 15.1026C6.0105 15.0819 5.99128 15.0561 5.97922 15.0272C5.96715 14.9983 5.96258 14.9671 5.96589 14.9362C5.96919 14.9053 5.98026 14.8756 5.99821 14.8495C6.14541 14.6559 6.26634 14.4461 6.35821 14.2247C6.44089 14.0219 6.5012 13.8116 6.53821 13.5974C6.54825 13.5102 6.55295 13.4225 6.55227 13.3349C6.54319 13.1056 6.58732 12.8773 6.68165 12.6655C6.80635 12.4142 7.01443 12.2071 7.27509 12.0749C7.46779 11.9761 7.67862 11.912 7.89665 11.8859H7.92196C7.98131 11.8741 8.04145 11.8662 8.10196 11.8622L8.19196 11.7782C8.41404 11.9363 8.61936 12.1138 8.80509 12.3085H8.81915Z" fill="white"/>
</svg>
