<svg width="27" height="34" viewBox="0 0 27 34" fill="none" xmlns="http://www.w3.org/2000/svg">
<path d="M13.5007 23.7999C13.275 23.7999 13.0599 23.7107 12.9017 23.5492L3.98957 14.5094C1.48785 11.9722 1.48785 7.8454 3.98957 5.30815C5.20246 4.07778 6.81613 3.3999 8.53316 3.3999C10.2502 3.3999 11.8639 4.07778 13.0768 5.30815L13.5007 5.7374L13.9247 5.30815C15.1376 4.07778 16.7513 3.3999 18.4683 3.3999C20.1854 3.3999 21.799 4.07778 23.0119 5.30815C25.5136 7.8454 25.5136 11.9722 23.0119 14.5094L14.0998 23.5492C13.9416 23.7107 13.7264 23.7999 13.5007 23.7999ZM8.53316 5.0999C7.26965 5.0999 6.07996 5.59928 5.1877 6.50665C3.33777 8.38303 3.33777 11.4345 5.1877 13.3109L13.5029 21.7429L21.818 13.3109C23.6679 11.4345 23.6679 8.38303 21.818 6.50665C20.9236 5.59928 19.7361 5.0999 18.4725 5.0999C17.209 5.0999 16.0214 5.59928 15.1271 6.50665L14.104 7.54365C13.9458 7.70515 13.7307 7.7944 13.505 7.7944C13.2793 7.7944 13.0641 7.70515 12.9059 7.54365L11.8829 6.50665C10.9885 5.59928 9.8009 5.0999 8.53738 5.0999H8.53316Z" fill="white"/>
</svg>
