<svg width="28" height="34" viewBox="0 0 28 34" fill="none" xmlns="http://www.w3.org/2000/svg">
<path d="M14.0002 25.9248C13.6874 25.9248 13.3987 25.7633 13.2412 25.4976L9.97086 19.9748H3.93555C3.62273 19.9748 3.33398 19.8133 3.17867 19.5498C3.02117 19.2863 3.02117 18.9633 3.17867 18.6998L6.19742 13.5976L3.17867 8.49551C3.02336 8.23201 3.02336 7.90901 3.17867 7.64551C3.33398 7.38201 3.62273 7.22051 3.93555 7.22051H9.97086L13.2412 1.69763C13.3965 1.43413 13.6874 1.27051 14.0002 1.27051C14.313 1.27051 14.6018 1.43413 14.7593 1.69763L18.0296 7.22051H24.0649C24.3777 7.22051 24.6665 7.38201 24.8218 7.64551C24.9793 7.90901 24.9793 8.23201 24.8218 8.49551L21.803 13.5976L24.8218 18.6998C24.9771 18.9633 24.9771 19.2863 24.8218 19.5498C24.6665 19.8133 24.3777 19.9748 24.0649 19.9748H18.0296L14.7593 25.4976C14.604 25.7611 14.313 25.9248 14.0002 25.9248ZM5.4493 18.2748H10.4784C10.7912 18.2748 11.0799 18.4363 11.2374 18.7019L14.0002 23.3705L16.763 18.7019C16.9184 18.4384 17.2093 18.2748 17.5221 18.2748H22.5512L20.0355 14.0226C19.8802 13.7613 19.8802 13.4383 20.0355 13.1748L22.5512 8.92263H17.5221C17.2093 8.92263 16.9205 8.75901 16.763 8.49551L14.0002 3.82688L11.2374 8.49551C11.0821 8.75901 10.7912 8.92263 10.4784 8.92263H5.4493L7.96492 13.1748C8.12023 13.4361 8.12023 13.7591 7.96492 14.0226L5.4493 18.2748Z" fill="white"/>
</svg>
