<svg width="28" height="34" viewBox="0 0 28 34" fill="none" xmlns="http://www.w3.org/2000/svg">
<path d="M19.4679 23.8002H8.53039C8.21539 23.8002 7.92445 23.6366 7.76914 23.371L2.30039 14.021C2.14727 13.7596 2.14727 13.4408 2.30039 13.1816L7.76914 3.83159C7.92445 3.56597 8.21539 3.40234 8.53039 3.40234H19.4679C19.7829 3.40234 20.0738 3.56597 20.2291 3.83159L25.6979 13.1816C25.851 13.443 25.851 13.7617 25.6979 14.021L20.2291 23.371C20.0738 23.6366 19.7829 23.8002 19.4679 23.8002ZM9.04008 22.1002H18.9582L23.9304 13.6002L18.9582 5.10022H9.04008L4.06789 13.6002L9.04008 22.1002Z" fill="white"/>
</svg>
