<svg width="27" height="35" viewBox="0 0 27 35" fill="none" xmlns="http://www.w3.org/2000/svg">
<path fill-rule="evenodd" clip-rule="evenodd" d="M16.4707 4.92587L7.2662 21.7655L7.25949 21.7777C7.23744 21.8223 7.22306 21.8688 7.21826 21.9174L6.54709 26.8413C6.52408 27.0054 6.59887 27.1674 6.73406 27.2494C6.87021 27.3325 7.03992 27.3193 7.16361 27.217L10.8646 24.1404C10.901 24.112 10.9317 24.0756 10.9576 24.033L10.9643 24.0209L20.1688 7.18122C20.7537 6.11279 20.4066 4.74561 19.3951 4.12896C19.3836 4.12288 19.373 4.11478 19.3625 4.1087C18.35 3.49094 17.0556 3.85755 16.4718 4.92698L16.4707 4.92587ZM7.44269 25.9531L8.0966 25.4092L7.56063 25.0831L7.44269 25.9531ZM7.67855 24.2193L8.74572 24.8695L9.94996 23.8689L7.89715 22.6172L7.67855 24.2193ZM9.63932 22.7437L10.4917 23.2643L17.3328 10.7491L16.4804 10.2285L9.63932 22.7437ZM8.12248 21.8191L8.97583 22.3387L15.8169 9.82343L14.9635 9.3039L8.12248 21.8191ZM15.3472 8.60105L17.7164 10.0462L17.9897 9.54592L15.6205 8.10076L15.3472 8.60105ZM16.004 7.39996L18.3732 8.84512L18.6474 8.34483L16.2782 6.89966L16.004 7.39996ZM19.0309 7.64403L16.6617 6.19886L17.1354 5.33094C17.5083 4.64937 18.3329 4.41544 18.9782 4.80939L19.0108 4.82964C19.6561 5.22258 19.8766 6.09454 19.5036 6.77611L19.03 7.64504L19.0309 7.64403Z" fill="white"/>
</svg>
