<svg width="27" height="35" viewBox="0 0 27 35" fill="none" xmlns="http://www.w3.org/2000/svg">
<path d="M13.4995 2.7998C9.17945 2.7998 5.93945 4.5442 5.93945 6.8598V21.4198C5.93945 21.5292 5.96542 21.6369 6.01505 21.7334C6.52805 23.7522 9.61955 25.1998 13.4995 25.1998C17.3794 25.1998 20.4493 23.7634 20.9785 21.753C21.0317 21.6506 21.0596 21.5361 21.0595 21.4198V6.8598C21.0595 4.5442 17.8195 2.7998 13.4995 2.7998ZM19.7095 21.2294L19.6933 21.2994C19.4908 22.5062 16.9528 23.7998 13.4995 23.7998C10.0462 23.7998 7.50815 22.5062 7.30565 21.2994L7.28945 21.2294V9.2398L7.33535 9.2706L7.49735 9.391C7.52624 9.40803 7.55419 9.42672 7.58105 9.447L7.79165 9.5814L7.84295 9.6122C7.93475 9.6682 8.02655 9.7186 8.11295 9.7718L8.18045 9.8054L8.40725 9.9202L8.51255 9.9678L8.72315 10.0602L8.83385 10.1078C8.91215 10.1386 8.98775 10.1694 9.06875 10.1974L9.16595 10.2338C9.27935 10.2758 9.39545 10.315 9.51155 10.3514C9.62495 10.3878 9.74375 10.4242 9.85985 10.455L9.97595 10.4858L10.246 10.553L10.381 10.5838L10.651 10.6398L10.786 10.6678L11.0938 10.7238L11.1856 10.7406C11.3206 10.7602 11.4556 10.7826 11.5933 10.7994H11.6986L12.0145 10.8358H12.1657L12.4519 10.8582H12.6085L12.9136 10.875H13.054L13.4995 10.9198H13.9504H14.0908L14.3959 10.903H14.5525L14.8495 10.861H15.0007L15.3166 10.8246H15.4219C15.5596 10.8078 15.6919 10.7854 15.8296 10.7658L15.9214 10.749L16.2292 10.693L16.3642 10.665L16.6342 10.609L16.7692 10.5782L17.0392 10.511L17.1553 10.4802C17.2714 10.4494 17.3902 10.413 17.5036 10.3766C17.6197 10.3402 17.7358 10.301 17.8492 10.259L17.9464 10.2226C18.0274 10.1946 18.103 10.1638 18.1813 10.133L18.292 10.0854L18.5026 9.993L18.6079 9.9454L18.8347 9.8306L18.9022 9.797C18.9994 9.7438 19.0912 9.6934 19.1722 9.6374L19.2235 9.6066L19.4341 9.4722C19.4609 9.45192 19.4889 9.43323 19.5178 9.4162L19.6798 9.2958L19.7095 9.2398V21.2294ZM13.4995 9.5198C10.5673 9.5198 7.28945 8.383 7.28945 6.8598C7.28945 5.3366 10.5673 4.1998 13.4995 4.1998C16.4317 4.1998 19.7095 5.3366 19.7095 6.8598C19.7095 8.383 16.4317 9.5198 13.4995 9.5198Z" fill="white"/>
</svg>
