<svg width="16" height="16" viewBox="0 0 16 16" fill="none" xmlns="http://www.w3.org/2000/svg">
<path d="M7.99965 1.86353C8.61447 1.86353 9.2041 2.10776 9.63885 2.54251C10.0736 2.97725 10.3178 3.56689 10.3178 4.18171C10.3178 4.79653 10.0736 5.38617 9.63885 5.82091C9.2041 6.25565 8.61447 6.49989 7.99965 6.49989C7.38482 6.49989 6.79519 6.25565 6.36044 5.82091C5.9257 5.38617 5.68146 4.79653 5.68146 4.18171C5.68146 3.56689 5.9257 2.97725 6.36044 2.54251C6.79519 2.10776 7.38482 1.86353 7.99965 1.86353ZM7.99965 11.409C9.92701 11.409 11.5968 11.8024 12.7292 12.3686C13.9509 12.9795 14.136 13.5463 14.136 13.7272V14.1363H1.86328V13.7272C1.86328 13.5463 2.04841 12.9795 3.27012 12.3686C4.40251 11.8024 6.07228 11.409 7.99965 11.409Z" fill="#435485" stroke="#1B8E8F" stroke-width="3"/>
</svg>
