<svg width="31" height="13" viewBox="0 0 31 13" fill="none" xmlns="http://www.w3.org/2000/svg">
<path d="M6.67013 8.23291C6.19843 8.23223 5.73713 8.37152 5.34464 8.63316C4.95216 8.89479 4.64612 9.267 4.4653 9.70267C4.28447 10.1383 4.23698 10.6179 4.32883 11.0805C4.42069 11.5432 4.64776 11.9682 4.98131 12.3017C5.31485 12.6353 5.73986 12.8624 6.20253 12.9542C6.6652 13.0461 7.14472 12.9986 7.58038 12.8178C8.01605 12.6369 8.38826 12.3309 8.64989 11.9384C8.91153 11.5459 9.05082 11.0846 9.05014 10.6129C9.05014 9.9817 8.79939 9.37634 8.35305 8.93C7.90671 8.48366 7.30135 8.23291 6.67013 8.23291Z" fill="white"/>
<path d="M23.7951 8.23291C23.3234 8.23223 22.8621 8.37152 22.4696 8.63316C22.0772 8.89479 21.7711 9.267 21.5903 9.70267C21.4095 10.1383 21.362 10.6179 21.4538 11.0805C21.5457 11.5432 21.7728 11.9682 22.1063 12.3017C22.4398 12.6353 22.8649 12.8624 23.3275 12.9542C23.7902 13.0461 24.2697 12.9986 24.7054 12.8178C25.141 12.6369 25.5133 12.3309 25.7749 11.9384C26.0365 11.5459 26.1758 11.0846 26.1751 10.6129C26.1751 9.9817 25.9244 9.37634 25.478 8.93C25.0317 8.48366 24.4263 8.23291 23.7951 8.23291Z" fill="white"/>
<path d="M30.474 7.25418L30.1938 7.01895V6.43433C30.1917 6.14846 30.1011 5.87026 29.9345 5.63797C29.7678 5.40568 29.5333 5.2307 29.2632 5.13708C29.2632 5.13708 27.5094 4.58359 25.503 4.03356C24.7448 3.8228 23.9618 3.7146 23.1748 3.71185L20.2552 1.69852C18.6541 0.59397 16.7553 0.00166361 14.8102 1.88075e-08H11.2471C9.8126 -0.000101134 8.40765 0.407826 7.19626 1.17617L3.60203 3.4524L2.05226 3.73606C1.78548 3.78249 1.5397 3.91059 1.34885 4.10268C1.158 4.29478 1.03149 4.54138 0.986788 4.80845L0.689287 6.6834L0.294925 7.77654V9.27096C0.294331 9.53218 0.378716 9.7865 0.535345 9.99555C0.691975 10.2046 0.91235 10.357 1.16321 10.4298L2.17333 10.7239C2.57448 10.8412 2.99035 10.9006 3.40831 10.9003H3.61587C3.6107 10.8081 3.6107 10.7157 3.61587 10.6236C3.61587 10.2206 3.69523 9.8216 3.84944 9.44933C4.00364 9.07705 4.22966 8.73879 4.51458 8.45386C4.79951 8.16893 5.13777 7.94291 5.51005 7.78871C5.88233 7.63451 6.28133 7.55514 6.68428 7.55514C7.08723 7.55514 7.48623 7.63451 7.85851 7.78871C8.23079 7.94291 8.56905 8.16893 8.85398 8.45386C9.1389 8.73879 9.36492 9.07705 9.51912 9.44933C9.67333 9.8216 9.75269 10.2206 9.75269 10.6236C9.75269 10.717 9.75269 10.8069 9.75269 10.9003H20.7533C20.7533 10.8069 20.7533 10.717 20.7533 10.6236C20.7533 10.2206 20.8327 9.8216 20.9869 9.44933C21.1411 9.07705 21.3671 8.73879 21.652 8.45386C21.937 8.16893 22.2752 7.94291 22.6475 7.78871C23.0198 7.63451 23.4188 7.55514 23.8217 7.55514C24.2247 7.55514 24.6237 7.63451 24.996 7.78871C25.3682 7.94291 25.7065 8.16893 25.9914 8.45386C26.2764 8.73879 26.5024 9.07705 26.6566 9.44933C26.8108 9.8216 26.8901 10.2206 26.8901 10.6236C26.8953 10.7157 26.8953 10.8081 26.8901 10.9003H27.6304L29.8824 10.3364C30.1662 10.2642 30.4179 10.0995 30.5976 9.86835C30.7774 9.63721 30.8751 9.35277 30.8753 9.05995V8.02215C30.87 7.87229 30.8313 7.72551 30.7618 7.59261C30.6924 7.45971 30.594 7.34406 30.474 7.25418ZM12.9318 4.36566L7.17204 4.23766C7.11478 4.23301 7.05957 4.21417 7.01141 4.18285C6.96325 4.15152 6.92365 4.10869 6.89618 4.05822C6.86872 4.00776 6.85426 3.95125 6.8541 3.8938C6.85395 3.83634 6.86811 3.77975 6.8953 3.72914C8.74257 0.650351 10.621 0.961689 10.621 0.961689C10.621 0.961689 11.6415 0.944393 12.9318 0.961689V4.36566ZM21.7427 4.55938L13.9627 4.38641V0.968608C15.0178 0.996283 16.1213 1.05163 16.9377 1.15541C18.6846 1.37681 21.037 3.48699 21.8603 4.2688C21.8862 4.29153 21.9043 4.32174 21.9123 4.35525C21.9202 4.38875 21.9175 4.4239 21.9046 4.45582C21.8917 4.48774 21.8692 4.51486 21.8401 4.53341C21.8111 4.55196 21.7771 4.56104 21.7427 4.55938Z" fill="white"/>
</svg>
