<svg width="30" height="18" viewBox="0 0 30 18" fill="none" xmlns="http://www.w3.org/2000/svg">
<path fill-rule="evenodd" clip-rule="evenodd" d="M5.84156 17.0957C5.84156 17.1105 5.84032 17.1242 5.83907 17.1378C5.83658 17.1501 5.83534 17.1613 5.8316 17.1724C5.83907 17.1464 5.84281 17.1204 5.84156 17.0957Z" fill="white"/>
<path fill-rule="evenodd" clip-rule="evenodd" d="M19.3164 11.6201L19.2829 11.6251C19.2919 11.6238 19.3035 11.6226 19.3164 11.6201Z" fill="white"/>
<path fill-rule="evenodd" clip-rule="evenodd" d="M23.517 0.534772C23.517 0.518688 23.5185 0.503842 23.5215 0.490234L23.517 0.537249V0.534772Z" fill="white"/>
<path fill-rule="evenodd" clip-rule="evenodd" d="M1.29334 3.64495C1.29592 3.67959 1.29978 3.71424 1.30236 3.75012C1.38223 4.67802 1.5832 5.815 1.73779 6.81838C1.86275 7.61883 1.95679 8.33767 1.95035 8.80779C1.94649 9.05151 1.91042 9.23958 1.85116 9.35835C1.47756 10.1155 1.35904 10.7316 1.34746 11.4505C1.33458 12.2015 1.06018 16.3401 1.07434 16.5155C1.0795 16.5761 1.12072 16.6405 1.15937 16.7135C1.22378 16.8347 1.29464 16.9634 1.33586 17.0945C1.36163 17.1774 1.3861 17.2529 1.40801 17.3147L2.51078 17.4088C2.50434 17.3976 2.4979 17.3877 2.48888 17.3803C2.31239 17.2195 2.15137 16.8595 2.06763 16.6157C2.01481 16.4623 1.90273 15.4614 1.93752 14.703C1.95426 14.3467 2.00837 14.0411 2.09855 13.8753C2.27762 13.5412 2.47729 12.9833 2.63447 12.6443C2.72722 12.4439 2.82899 12.3078 2.89728 12.2583C2.97071 12.0603 3.11242 11.652 3.21548 11.2153C3.27732 10.9493 3.32755 10.6734 3.334 10.4296C3.34688 9.96197 3.36749 9.63043 3.36492 9.31864C3.36234 9.08605 3.34688 8.86582 3.3005 8.60354C3.22579 8.19031 3.19487 7.95648 3.18327 7.84391L3.17554 7.75484C3.17554 7.75484 3.44093 7.66947 3.44221 7.73875C3.43706 7.73999 3.43835 7.74741 3.44093 7.75855C3.43964 7.77092 3.43577 7.78329 3.43062 7.79443L3.44737 7.78205L3.44093 7.75978L3.44221 7.73999C3.49632 7.73257 3.48215 7.75484 3.44737 7.78205C3.44994 7.79071 3.45252 7.80061 3.45381 7.80927C3.47184 7.91938 3.51435 8.14579 3.6084 8.5454C3.6741 8.82377 3.70373 9.05884 3.72048 9.3075C3.7398 9.62175 3.73465 9.95828 3.74753 10.4309C3.75397 10.7006 3.71661 11.0074 3.65993 11.3044C3.57362 11.7572 3.44093 12.1828 3.36878 12.4005C3.38295 12.4215 3.39713 12.4438 3.4113 12.4698C3.61227 12.8434 3.93175 13.9495 4.11855 14.4122C4.34786 14.9788 4.83483 15.7484 5.03449 16.1864C5.17363 16.4932 5.39522 16.8124 5.50086 17.0227C5.52533 17.0709 5.54466 17.1167 5.55625 17.1588C5.64772 17.1761 5.79329 17.1996 5.92341 17.2132C6.22229 17.2442 6.58172 17.2677 6.85097 17.2825C6.82005 17.2157 6.75692 17.1192 6.75306 17.113C6.5624 16.9782 5.96207 16.2334 5.75981 15.5962C5.66963 15.3116 5.44032 14.9714 5.26511 14.6052C5.05899 14.1722 4.9276 13.707 5.06672 13.248C5.29861 12.4797 5.2226 11.8339 5.19426 11.1967C5.17365 10.7142 5.16721 9.81965 5.31664 9.27406C5.40553 8.94495 5.5743 8.73094 5.76111 8.66658C5.84098 8.63936 5.92859 8.64926 5.99815 8.6938C5.99815 8.6938 8.57598 10.3529 9.60778 10.5273C10.6539 10.7043 13.7329 10.218 14.471 10.1784C14.9785 10.1512 15.3921 10.2279 15.6845 10.3739C15.9151 10.4902 16.0761 10.6498 16.1625 10.8366C16.1972 10.9109 16.2191 11.0395 16.214 11.2115C16.2063 11.4973 16.1393 11.9427 16.0877 12.4029C16.0452 12.7741 16.013 13.1551 16.0388 13.462C16.0517 13.6228 16.0761 13.7614 16.1393 13.8492C16.3325 14.1227 16.3686 14.5978 16.3222 15.105C16.2861 15.5034 16.2114 15.9203 16.1753 16.2469C16.1573 16.4177 16.1418 16.5562 16.1702 16.6367C16.281 16.9546 16.3737 17.5225 16.4201 17.8269L17.51 17.911C17.5087 17.8974 17.5074 17.8838 17.5035 17.8689C17.4971 17.8343 17.4778 17.7811 17.4713 17.7638C17.3142 17.6734 17.1905 17.5868 17.1106 17.4507C17.0513 17.3505 17.0127 17.2243 17.0127 17.045V15.136C17.0127 14.8724 17.0269 14.599 17.0848 14.3899C17.1377 14.1944 17.2317 14.0472 17.3541 13.9631C17.3824 13.9433 17.4134 13.926 17.4443 13.9111C17.4623 13.8097 17.4829 13.6958 17.5022 13.5783C17.5151 13.5065 17.519 13.4298 17.519 13.3494C17.5164 13.0154 17.443 12.6306 17.4584 12.2236C17.4816 11.8672 17.4662 11.6074 17.5473 11.2907C17.5924 11.115 17.6633 10.922 17.7857 10.6894C17.9673 10.3455 18.0562 10.2218 18.1193 10.0894C18.167 9.9929 18.1992 9.89269 18.2456 9.68485C18.2572 9.61433 18.3254 9.56608 18.3976 9.57722C18.471 9.58835 18.5213 9.65392 18.5097 9.72321C18.4852 9.96817 18.4607 10.0869 18.4195 10.2045C18.3718 10.3443 18.2984 10.4791 18.158 10.8453C18.0755 11.0557 18.0343 11.2264 18.0098 11.3798C17.9634 11.6755 17.9931 11.9118 17.9969 12.2384C17.9892 12.6405 18.0742 13.0178 18.0794 13.3445C18.0807 13.4595 18.0729 13.5696 18.0536 13.6736C18.0356 13.7565 18.0201 13.8369 18.0047 13.9136C18.1618 13.994 18.2803 14.1462 18.3035 14.3664C18.3164 14.4889 18.4362 14.6893 18.5432 14.9207C18.6797 15.2151 18.806 15.5467 18.806 15.8424C18.806 16.2408 18.8227 17.0264 18.8304 17.3766L19.8598 17.7304L19.8894 17.6067C19.8817 17.603 19.8752 17.5968 19.8675 17.5918C19.691 17.4496 19.49 17.1687 19.4681 16.8248C19.4475 16.5155 19.2337 15.7064 19.1873 15.1125C19.1628 14.7933 19.195 14.5273 19.2826 14.3788C19.3574 14.2502 19.3805 14.0732 19.3883 13.8901C19.4037 13.5536 19.3599 13.1961 19.3625 12.9758C19.3638 12.841 19.2878 12.596 19.2195 12.3498C19.1358 12.0504 19.0572 11.7485 19.0572 11.5778C19.0598 11.3192 19.2041 11.2103 19.3664 11.198C19.3818 11.1906 19.6859 11.0619 19.9126 10.9332C20.1677 10.7885 20.4434 10.614 20.6417 10.4705C20.7422 10.3975 20.8234 10.3394 20.8479 10.2998C20.9367 10.1624 21.0411 9.97067 21.1519 9.81728C21.2524 9.67871 21.3619 9.57108 21.4649 9.51788C21.5397 9.47952 21.6633 9.31621 21.7819 9.14424C21.8978 8.97474 22.0112 8.79657 22.0125 8.68895C22.015 8.4811 22.3075 7.56185 22.6669 6.968C22.8498 6.66859 23.0611 6.45332 23.2453 6.38652C23.7516 6.20589 23.9126 6.17743 24.6289 6.10939C25.2086 6.05372 26.0937 5.79514 26.332 5.67019L26.3398 5.66524C26.3887 5.62317 26.475 5.5774 26.5987 5.55018C26.8976 5.48337 27.534 5.46357 27.7118 5.46357C27.8226 5.46357 27.9668 5.51059 28.1137 5.56874C28.1704 5.59101 28.2284 5.61204 28.2863 5.62565C28.3147 5.63307 28.3417 5.64916 28.3662 5.63555C28.4139 5.60833 28.495 5.5774 28.5981 5.54894C28.7656 5.50193 29.0155 5.44997 29.2371 5.3646C29.3402 5.32625 29.4368 5.28047 29.5102 5.21985C29.5695 5.16912 29.6042 5.10479 29.5759 5.01571C29.3775 4.40453 28.8287 3.84285 28.7205 3.77108C28.5942 3.68695 27.972 3.02133 27.7646 2.76399C27.5598 2.51036 27.3678 2.25673 27.1746 1.89794C27.0947 1.74948 26.9452 1.62576 26.7945 1.48842C26.6013 1.3115 26.4042 1.11848 26.2792 0.877234C26.1581 0.640929 25.9855 0.352676 25.7922 0.159664C25.7072 0.0767711 25.6299 0.00254112 25.5423 6.43344e-05C25.4457 -0.00241023 25.3143 0.0668739 25.1803 0.143578C24.9716 0.263588 24.7062 0.509774 24.656 0.556808C24.638 0.64836 24.58 0.697848 24.5233 0.730015C24.4692 0.75847 24.3674 0.794351 24.2386 0.725066C24.1497 0.678051 23.8766 0.400931 23.5661 0.224009C23.4296 0.147302 23.2866 0.0730708 23.1577 0.131218C23.1088 0.15225 23.0675 0.193078 23.0289 0.251228C22.8305 0.545683 22.8614 0.887146 22.8807 1.0653C22.8936 1.2014 22.7957 1.3214 22.6553 1.3412C22.6553 1.3412 21.5487 1.49709 21.1416 1.52554C20.7268 1.554 19.3045 1.85091 18.5135 1.69133C18.0639 1.60101 17.6259 1.5107 17.26 1.481C17.0526 1.46492 16.8735 1.46616 16.737 1.51193C16.3145 1.65297 14.3189 1.74205 13.3863 1.82866C12.4484 1.91526 11.0906 1.9066 10.1501 1.73711C9.23676 1.57256 6.74532 1.41791 5.83574 1.37338C5.29725 1.3474 3.87114 1.27193 2.72971 1.51071C2.37159 1.58618 2.04308 1.69134 1.78541 1.84476C1.56511 1.9759 1.39892 2.13921 1.33451 2.35943L1.33322 2.36191C1.23918 2.51903 1.10134 2.75905 0.959629 3.04236C0.819208 3.32444 0.676207 3.6486 0.564135 3.97767C0.390221 4.48247 0.294888 4.99588 0.36961 5.38561C0.490707 5.94235 0.616955 6.60427 0.703262 7.18821C0.753504 7.53214 0.792152 7.84886 0.799883 8.09632C0.203413 8.32644 0.00889969 8.78298 -0.000137329 9.26177C-0.0130196 9.93604 0.382494 10.6536 0.382494 10.6536C0.427584 10.7365 0.517761 10.7897 0.615667 10.7897C0.615667 10.7897 0.664623 10.7971 0.731613 10.7637C0.754801 10.7526 0.776703 10.739 0.796026 10.7217L0.801178 10.7167C0.856575 10.6697 1.15287 10.4074 1.51618 9.8977C1.71199 9.62304 1.70942 9.26795 1.61537 8.94135C1.53421 8.66174 1.25725 8.20151 1.10264 7.95653C1.11037 7.7227 1.10264 7.44803 1.0846 7.15233C1.04853 6.55353 0.964794 5.87429 0.884922 5.30273C0.832102 4.98106 0.941605 4.56413 1.08975 4.14966C1.1503 3.98017 1.21987 3.81314 1.29072 3.65108L1.29334 3.64495ZM25.9496 1.58378C26.1892 1.6011 26.367 1.80153 26.3489 2.03166C26.3296 2.26054 26.1209 2.43127 25.8826 2.41394C25.6443 2.39662 25.4665 2.19496 25.4845 1.96606C25.5026 1.73594 25.7125 1.56522 25.9509 1.58378H25.9496Z" fill="white"/>
</svg>
