<svg width="14" height="19" viewBox="0 0 14 19" fill="none" xmlns="http://www.w3.org/2000/svg">
<path d="M6.35958 0C6.80197 0.315866 7.22413 0.57222 7.60585 0.888086C8.89255 1.93411 9.71658 3.25552 9.918 4.91259C10.0385 5.99752 9.89779 7.0435 9.53626 8.06891C9.23461 8.89748 9.57669 9.74588 10.3604 10.0816C10.9233 10.3182 11.4659 10.2396 11.9487 9.88405C12.4316 9.50943 12.6321 8.99596 12.5318 8.38483C12.5318 8.34516 12.5116 8.28641 12.5116 8.2269C12.5521 8.24674 12.5723 8.24674 12.5723 8.26658C13.4368 9.64752 13.9997 11.127 13.9997 12.7848C14.0199 14.9745 12.9944 16.6515 11.2451 17.9539C10.7429 18.3285 10.1994 18.6047 9.59689 18.8221C10.4614 18.0332 10.8634 17.1055 10.6822 15.9617C10.5415 15.0546 10.0393 14.3443 9.37531 13.7523C9.31467 14.0285 9.29523 14.3245 9.17395 14.5809C8.79221 15.3499 7.76674 15.5079 7.12293 14.9357C6.15809 14.0674 5.85643 12.9626 5.95673 11.7198C6.0578 10.5555 7.14313 8.26656 7.14313 8.18804C6.94177 8.24755 1.17219 12.3506 3.84598 17.6976C4.08698 18.1905 4.44928 18.6246 4.87145 19C4.71051 18.9405 4.56979 18.9016 4.40886 18.8421C2.88113 18.2698 1.61465 17.3627 0.770362 15.9619C0.0667463 14.7977 -0.0941905 13.5349 0.0465446 12.2136C0.307773 9.9446 1.35346 8.07073 2.96136 6.45253C4.0467 5.36761 4.99208 4.18354 5.71596 2.8423C6.03783 2.23041 6.29906 1.59944 6.35893 0.908973C6.37992 0.632014 6.35971 0.355836 6.35971 0.000300777L6.35958 0Z" fill="white"/>
</svg>
