<svg width="28" height="34" viewBox="0 0 28 34" fill="none" xmlns="http://www.w3.org/2000/svg">
<path d="M24.5978 21.5539C24.0599 20.8613 22.9373 19.3708 21.751 17.5233H23.7347C23.9007 17.5233 23.9952 17.3363 23.8937 17.2075C23.3548 16.5198 22.0334 14.7824 20.7605 12.7046H21.2309C21.386 12.7046 21.4824 12.5393 21.4029 12.4075C20.7069 11.2604 18.2368 7.02718 17.7061 3.84251C17.6644 3.51588 17.6236 3.31126 17.5818 3.2296C17.5818 3.18927 17.5411 3.14795 17.5411 3.14795C17.5411 3.14795 17.4993 3.14795 17.4993 3.2296C17.4575 3.31126 17.4168 3.51588 17.375 3.84251C16.8798 6.99368 14.3821 11.2555 13.679 12.4075C13.5985 12.5393 13.6949 12.7046 13.85 12.7046H14.3204C13.0476 14.7824 11.7263 16.5197 11.1872 17.2075C11.0857 17.3373 11.1802 17.5233 11.3462 17.5233H13.3299C12.1437 19.3718 11.0211 20.8613 10.4831 21.5539C10.3489 21.7261 10.4741 21.974 10.6939 21.974H15.5481C15.7708 21.974 15.9428 22.1688 15.912 22.3882L15.3194 26.5911C15.2856 26.8468 15.4854 27.0741 15.745 27.0741H19.3773C19.6378 27.0741 19.8377 26.8469 19.8019 26.592L19.2093 22.3891C19.1785 22.1707 19.3505 21.975 19.5732 21.975H24.3867C24.6064 21.975 24.7307 21.727 24.5975 21.5539H24.5978Z" fill="white"/>
<path d="M5.36627 19.6877H4.12337C3.95832 19.6877 3.86287 19.5027 3.96329 19.3729C4.37395 18.8436 5.23105 17.6984 6.06726 16.3388H5.80177C5.64765 16.3388 5.5512 16.1735 5.62975 16.0427C6.17662 15.1307 7.79736 12.3022 8.17223 10.1723C8.21399 9.96762 8.25476 9.80432 8.25476 9.76398C8.25476 9.72266 8.25476 9.72266 8.29652 9.72266C8.29652 9.72266 8.33828 9.72266 8.33828 9.76398C8.38004 9.84563 8.38004 9.9686 8.42081 10.1723C8.79267 12.4183 10.5675 15.4808 11.021 16.1754C10.9792 16.2167 10.9385 16.2984 10.8967 16.3387H10.5248C10.5666 16.4204 10.6491 16.502 10.6899 16.5837C10.4831 16.8286 10.3598 16.9919 10.3598 16.9919L9.24514 18.3801H11.8046C10.5667 20.1775 9.53456 21.4426 9.53456 21.4426L8.76097 22.4057C8.62276 22.5779 8.74705 22.8307 8.96878 22.8307H9.36949L9.804 25.6837C9.84278 25.9395 9.64292 26.1707 9.38041 26.1707H7.12926C6.86777 26.1707 6.6669 25.9405 6.70567 25.6847L7.07853 23.2065C7.11134 22.9871 6.93932 22.7894 6.71461 22.7894L3.54781 22.7914C3.38176 22.7914 3.2883 22.6044 3.38971 22.4746C3.77451 21.9827 4.54994 20.9577 5.36627 19.6877Z" fill="white"/>
</svg>
