<svg width="25" height="23" viewBox="0 0 25 23" fill="none" xmlns="http://www.w3.org/2000/svg">
<path d="M18.1902 0C16.0464 1.04308 14.9876 2.46764 14.9351 4.24487C14.3324 4.27939 13.7269 4.39695 13.1339 4.55894C13.6313 6.00877 14.2003 7.25669 15.0535 8.46122C15.7822 6.70555 17.114 5.43512 19.2431 4.81307C19.0262 4.55617 18.7843 4.31223 18.4728 4.1028C18.7636 2.81182 18.6512 1.44051 18.1902 0ZM12.3636 4.7989C11.3539 5.14977 10.4122 5.61048 9.64678 6.04289C8.87588 6.47838 8.16666 6.93922 7.50307 7.42251L7.53636 17.9344C7.54553 20.6191 9.68289 22.7681 12.3669 22.7681C13.7024 22.7681 14.906 22.2365 15.7783 21.371C14.9259 18.1738 13.0617 15.7997 13.8034 12.0226C14.6655 13.2751 15.7562 14.0985 17.2021 14.2579V11.9326V11.9265C14.562 9.58335 13.2952 7.48173 12.3636 4.7989ZM19.7261 5.51403C17.4414 6.09312 16.2772 7.3157 15.6439 9.20636C16.6389 10.4227 17.9668 11.6456 19.854 13.0455L22.1793 10.7202L21.4453 9.4795C20.6137 8.07584 20.3649 6.6621 19.7261 5.51403ZM18.4112 7.89292C18.6342 7.89292 18.8153 8.07378 18.8153 8.29705C18.8153 8.52035 18.6345 8.70118 18.4112 8.70118C18.1879 8.70118 18.0071 8.52032 18.0071 8.29705C18.0071 8.07374 18.1879 7.89292 18.4112 7.89292ZM6.69322 8.046C3.53584 10.6265 1.69182 13.9613 0.782938 18.8167L0 23L9.62946 22.8644C7.90089 21.9027 6.73177 20.0603 6.72483 17.9392L6.69322 8.046ZM22.6055 11.4384L19.4689 14.575L20.7822 15.8901C21.4475 16.5551 22.518 16.5551 23.1833 15.8901L23.5842 15.4907C24.2495 14.8256 24.2495 13.7546 23.5842 13.0896L22.6055 11.4384ZM18.0086 12.6208V14.2893H18.6101L19.2762 13.6231C18.8162 13.2793 18.4094 12.9498 18.0086 12.6208Z" fill="white"/>
<path d="M17.2051 14.2583V17.9348C17.2051 19.2828 16.6619 20.4975 15.7812 21.3714C15.8588 21.6625 15.9236 21.9632 15.9816 22.2696C17.2223 21.2355 18.0117 19.6775 18.0117 17.9348C18.0118 16.7197 18.0118 15.6365 18.0117 14.2898C17.9307 14.2898 17.8495 14.2898 17.7685 14.2898C17.5742 14.2914 17.3877 14.2775 17.2051 14.2583Z" fill="white"/>
</svg>
