<svg width="20" height="13" viewBox="0 0 20 13" fill="none" xmlns="http://www.w3.org/2000/svg">
<path fill-rule="evenodd" clip-rule="evenodd" d="M13.344 3.86447L13.3159 3.79895V3.77529C13.0353 3.18542 12.8566 2.52476 12.8566 2.52476V2.50116C12.8566 2.48935 12.8503 2.47165 12.8439 2.45395C12.8375 2.43624 12.8312 2.41854 12.8312 2.4068C12.8312 2.19443 13.0098 2.00566 13.2648 2.00566C13.8006 2.00566 14.1323 1.51015 14.1323 1.15622C14.1323 1.08541 14.1323 0.991053 14.0557 0.896637C13.9792 0.825886 13.8261 0.802282 13.7241 0.802282H11.8108C11.5812 0.802282 11.3771 0.637111 11.3771 0.401141C11.3771 0.18877 11.5557 0 11.8108 0H13.7241C14.2088 0 14.5149 0.188771 14.668 0.353941C14.8721 0.566311 14.9742 0.825897 14.9742 1.13264C14.9742 1.46298 14.8466 1.7933 14.6425 2.07644C15.3568 1.98209 16.1987 2.0529 16.1987 2.0529C16.4283 2.0529 16.6069 2.21807 16.6069 2.43038V4.03491C16.6069 4.24728 16.4283 4.41245 16.1987 4.41245C16.1987 4.41245 15.2803 4.4596 14.5149 4.43605L15.2293 6.08776C15.5354 6.01694 15.8925 5.9698 16.2242 5.9698C18.3162 5.9698 20 7.55059 20 9.46188C20 11.3967 18.2907 12.9541 16.2242 12.9541C14.1322 12.9541 12.4485 11.3733 12.4485 9.46188C12.4485 8.16413 13.2394 7.00799 14.4383 6.41806L13.7995 4.92752H12.2979C12.1712 5.47529 12.1712 5.54399 12.1712 5.54399H8.59533L8.38088 5.54484C8.29123 5.54977 8.20626 5.55038 8.126 5.5458L1.58101 5.57109C0.407448 5.59469 0.381996 3.8958 1.60653 3.8958H7.19852C7.40022 2.92046 8.66922 2.52376 10.0025 2.52376C12.0568 2.52376 12.2168 2.91058 12.3427 3.21496L12.3428 3.2152L12.343 3.21568C12.3452 3.22104 12.3474 3.22634 12.3496 3.23164C12.478 3.52187 12.5266 3.65717 12.5133 3.8645L13.344 3.86447ZM16.2242 11.4675C17.3977 11.4675 18.3417 10.5945 18.3417 9.50908C18.3417 8.42366 17.3977 7.55062 16.2242 7.55062C16.1604 7.55062 16.0966 7.55652 16.0328 7.56242C15.9691 7.56832 15.9053 7.57422 15.8415 7.57422L16.6069 9.36759C16.6834 9.57996 16.5813 9.79228 16.3773 9.8867C16.1477 9.95751 15.9181 9.8631 15.8161 9.67433L15.0506 7.88112C14.4639 8.235 14.0812 8.82492 14.0812 9.53282C14.1067 10.571 15.0506 11.4677 16.2242 11.4677L16.2242 11.4675ZM3.77603 5.99203C4.25779 5.99203 4.71906 6.07566 5.14354 6.22795H12.0929L11.3275 9.03592C11.3275 9.03592 11.1234 9.97977 10.0774 9.97977C9.87333 10.0269 8.7508 10.0505 7.50077 10.0505C7.2201 11.7258 5.66394 13 3.77611 13C1.68411 13 0.000284195 11.4191 0.000284195 9.50776C-0.0252361 7.57289 1.68411 5.9921 3.77611 5.9921L3.77603 5.99203ZM3.77603 11.4661C4.74542 11.4661 5.56186 10.8526 5.81702 10.0504H3.49536V8.91781H5.79152C5.51086 8.13911 4.72004 7.5728 3.77603 7.5728C2.60246 7.5728 1.65853 8.44585 1.65853 9.53126C1.65853 10.5695 2.60248 11.4661 3.77603 11.4661V11.4661Z" fill="white"/>
</svg>
