<svg width="18" height="10" viewBox="0 0 18 10" fill="none" xmlns="http://www.w3.org/2000/svg">
<path fill-rule="evenodd" clip-rule="evenodd" d="M17.6999 10H0.300112C0.134264 10 0 9.87214 0 9.7142V0.285803C0 0.127863 0.134258 0 0.300112 0H17.6999C17.8657 0 18 0.127857 18 0.285803V9.7142C18 9.87214 17.8657 10 17.6999 10ZM3.33742 0.571607H0.600143V9.42835H4.34992V5.49942H3.33746L3.33742 0.571607ZM7.68747 0.571607H5.96265V5.49942H4.95019V9.42835H8.69997V5.49942H7.68751L7.68747 0.571607ZM12.0375 0.571607H10.3127V5.49942H9.30023V9.42835H13.05V5.49942H12.0376L12.0375 0.571607ZM13.6502 9.42835H17.3992V0.571607H14.6627V5.49942H13.6502L13.6502 9.42835Z" fill="white"/>
</svg>
