<svg width="23" height="24" viewBox="0 0 23 24" fill="none" xmlns="http://www.w3.org/2000/svg">
<path d="M0.387808 16.6472C0.305959 16.7909 0.319441 16.9699 0.414769 17.1088L1.76577 19.0487C3.73785 21.8804 6.99746 23.5747 10.4794 23.5747H19.9903C20.1761 23.5747 20.3437 23.4624 20.412 23.292L22.9686 17.0184C23.0225 16.8842 23.009 16.7271 22.9233 16.6015C22.8376 16.4806 22.6971 16.4044 22.5468 16.4044H12.1202V0.874093C12.1202 0.627568 11.9161 0.425781 11.6667 0.425781C11.4173 0.425781 11.2131 0.627573 11.2131 0.874093V16.4054L0.786485 16.4045C0.618934 16.4045 0.464843 16.4987 0.387808 16.6472Z" fill="white"/>
<path d="M1.34112 13.1892C1.41991 13.3451 1.58242 13.4472 1.76265 13.4472H10.461L10.4619 2.35498L1.40612 12.7175C1.2909 12.846 1.26726 13.0333 1.34112 13.1892Z" fill="white"/>
<path d="M18.5989 13.2238C18.6807 13.0897 18.6807 12.9194 18.5989 12.7805L12.873 2.8374V13.4473H18.2089C18.3678 13.4473 18.517 13.3627 18.5989 13.2238Z" fill="white"/>
</svg>
