<svg width="24" height="21" viewBox="0 0 24 21" fill="none" xmlns="http://www.w3.org/2000/svg">
<path d="M0.322479 20.9473C0.117278 20.9185 -0.0251704 20.7285 0.00372177 20.5245C0.0336059 20.3206 0.222869 20.1783 0.427082 20.2071C0.529681 20.2221 0.634274 20.233 0.739872 20.241C0.838488 20.2479 0.944076 20.2509 1.05366 20.2509C1.70512 20.2509 2.33965 20.1057 2.91242 19.8351C3.48718 19.5645 4.00117 19.1675 4.41356 18.6651C4.54505 18.5059 4.78013 18.4831 4.93951 18.6144C4.96043 18.6313 4.97935 18.6502 4.99529 18.6711C5.40669 19.1695 5.92068 19.5655 6.49246 19.8351C7.06523 20.1057 7.69876 20.2509 8.35122 20.2509C9.00268 20.2509 9.63721 20.1056 10.21 19.8351C10.7847 19.5645 11.2987 19.1675 11.7111 18.6651C11.8426 18.5059 12.0777 18.483 12.2371 18.6144C12.258 18.6313 12.2769 18.6502 12.2929 18.6711C12.7053 19.1695 13.2182 19.5654 13.79 19.835C14.3628 20.1056 14.9973 20.2509 15.6488 20.2509C16.3002 20.2509 16.9348 20.1056 17.5075 19.835C18.0813 19.5644 18.5973 19.1675 19.0087 18.6651C19.1402 18.5059 19.3753 18.483 19.5346 18.6144C19.5556 18.6313 19.5745 18.6502 19.5904 18.6711C20.0028 19.1695 20.5158 19.5654 21.0876 19.835C21.6603 20.1056 22.2949 20.2509 22.9463 20.2509C23.0559 20.2509 23.1615 20.2479 23.2601 20.2409C23.3657 20.233 23.4703 20.222 23.5729 20.2071C23.7771 20.1782 23.9664 20.3205 23.9963 20.5245C24.0252 20.7284 23.8827 20.9184 23.6775 20.9473C23.556 20.9642 23.4345 20.9781 23.3129 20.9871C23.1864 20.996 23.0639 21 22.9464 21C22.1853 21 21.4422 20.8289 20.7688 20.5115C20.224 20.2539 19.7249 19.8997 19.2976 19.461C18.8703 19.8997 18.3712 20.2539 17.8263 20.5115C17.153 20.8289 16.4099 21 15.6488 21C14.8878 21 14.1447 20.8289 13.4713 20.5115C12.9264 20.2539 12.4274 19.8997 12 19.461C11.5727 19.8997 11.0737 20.2539 10.5288 20.5115C9.85542 20.8289 9.11231 21 8.35127 21C7.59023 21 6.84714 20.8289 6.17375 20.5115C5.62888 20.2539 5.12981 19.8997 4.7025 19.461C4.27516 19.8997 3.77611 20.2539 3.23124 20.5115C2.55787 20.8289 1.81476 21 1.05372 21C0.936178 21 0.813656 20.996 0.68715 20.9871C0.565624 20.9781 0.444009 20.9642 0.322479 20.9473ZM0.322479 14.7713C0.117278 14.7425 -0.0251704 14.5524 0.00372177 14.3485C0.0336059 14.1436 0.222869 14.0023 0.427082 14.0311C0.529681 14.0451 0.634274 14.057 0.739872 14.064C0.838488 14.0719 0.944076 14.0749 1.05366 14.0749C1.70512 14.0749 2.33965 13.9297 2.91242 13.6591C3.48718 13.3875 4.00117 12.9905 4.41356 12.4891C4.54505 12.3299 4.78013 12.3071 4.93951 12.4374C4.96043 12.4553 4.97935 12.4742 4.99529 12.4951C5.40669 12.9935 5.92068 13.3894 6.49246 13.659C7.06523 13.9296 7.69876 14.0749 8.35122 14.0749C9.00268 14.0749 9.63721 13.9296 10.21 13.659C10.7847 13.3875 11.2987 12.9905 11.7111 12.4891C11.8426 12.3299 12.0777 12.307 12.2371 12.4374C12.258 12.4553 12.2769 12.4742 12.2929 12.4951C12.7053 12.9935 13.2182 13.3884 13.79 13.659C14.3628 13.9296 14.9973 14.0749 15.6488 14.0749C16.3002 14.0749 16.9348 13.9296 17.5075 13.659C18.0813 13.3874 18.5973 12.9905 19.0087 12.4891C19.1402 12.3299 19.3753 12.307 19.5346 12.4374C19.5556 12.4553 19.5745 12.4742 19.5904 12.4951C20.0028 12.9935 20.5158 13.3884 21.0876 13.659C21.6603 13.9296 22.2949 14.0749 22.9463 14.0749C23.0559 14.0749 23.1615 14.0719 23.2601 14.0639C23.3657 14.057 23.4703 14.045 23.5729 14.0311C23.7771 14.0022 23.9664 14.1435 23.9963 14.3484C24.0252 14.5524 23.8827 14.7424 23.6775 14.7713C23.556 14.7882 23.4345 14.8021 23.3129 14.8101C23.1864 14.819 23.0639 14.824 22.9464 14.824C22.1853 14.824 21.4422 14.6529 20.7688 14.3345C20.224 14.0779 19.7249 13.7237 19.2976 13.285C18.8703 13.7237 18.3712 14.0779 17.8263 14.3345C17.153 14.6529 16.4099 14.824 15.6488 14.824C14.8878 14.824 14.1447 14.6529 13.4713 14.3345C12.9264 14.0779 12.4274 13.7237 12 13.285C11.5727 13.7237 11.0737 14.0779 10.5288 14.3345C9.85542 14.6529 9.11231 14.824 8.35127 14.824C7.59023 14.824 6.84714 14.6529 6.17375 14.3345C5.62888 14.0779 5.12981 13.7237 4.7025 13.285C4.27516 13.7237 3.77611 14.0779 3.23124 14.3345C2.55787 14.6529 1.81476 14.824 1.05372 14.824C0.936178 14.824 0.813656 14.819 0.68715 14.8101C0.565624 14.8021 0.444009 14.7882 0.322479 14.7713ZM0.322479 8.59429C0.117278 8.56544 -0.0251704 8.37642 0.00372177 8.17147C0.0336059 7.96752 0.222869 7.82525 0.427082 7.85411C0.529681 7.86903 0.634274 7.87997 0.739872 7.88793C0.838488 7.8949 0.944076 7.89887 1.05366 7.89887C1.70512 7.89887 2.33965 7.75363 2.91242 7.48303C3.48718 7.21144 4.00117 6.8145 4.41356 6.31209C4.54505 6.15391 4.78013 6.13102 4.93951 6.26135C4.96043 6.27826 4.97935 6.29716 4.99529 6.31806C5.40669 6.81746 5.92068 7.21242 6.49246 7.48302C7.06523 7.75361 7.69876 7.89886 8.35122 7.89886C9.00268 7.89886 9.63721 7.75361 10.21 7.48302C10.7847 7.21143 11.2987 6.81448 11.7111 6.31207C11.8426 6.15389 12.0777 6.13101 12.2371 6.26133C12.258 6.27825 12.2769 6.29715 12.2929 6.31804C12.7053 6.81744 13.2182 7.2124 13.79 7.483C14.3628 7.7536 14.9973 7.89884 15.6488 7.89884C16.3002 7.89884 16.9348 7.7536 17.5075 7.483C18.0813 7.21141 18.5973 6.81447 19.0087 6.31206C19.1402 6.15388 19.3753 6.13099 19.5346 6.26132C19.5556 6.27823 19.5745 6.29713 19.5904 6.31803C20.0028 6.81743 20.5158 7.21239 21.0876 7.48299C21.6603 7.75358 22.2949 7.89883 22.9463 7.89883C23.0559 7.89883 23.1615 7.89485 23.2601 7.88789C23.3657 7.87993 23.4703 7.86898 23.5729 7.85406C23.7771 7.82521 23.9664 7.96747 23.9963 8.17142C24.0252 8.37636 23.8827 8.56538 23.6775 8.59424C23.556 8.61215 23.4345 8.62508 23.3129 8.63403C23.1864 8.64299 23.0639 8.64796 22.9464 8.64796C22.1853 8.64796 21.4422 8.47685 20.7688 8.15849C20.224 7.90083 19.7249 7.54667 19.2976 7.10893C18.8703 7.54667 18.3712 7.90083 17.8263 8.15849C17.153 8.47684 16.4099 8.64796 15.6488 8.64796C14.8878 8.64796 14.1447 8.47685 13.4713 8.15849C12.9264 7.90083 12.4274 7.54766 12 7.10893C11.5727 7.54766 11.0737 7.90083 10.5288 8.15849C9.85542 8.47684 9.11231 8.64796 8.35127 8.64796C7.59023 8.64796 6.84714 8.47685 6.17375 8.15849C5.62888 7.90083 5.12981 7.54667 4.7025 7.10893C4.27516 7.54667 3.77611 7.90083 3.23124 8.15849C2.55787 8.47684 1.81476 8.64796 1.05372 8.64796C0.936178 8.64796 0.813656 8.64299 0.68715 8.63403C0.565624 8.62508 0.444009 8.61219 0.322479 8.59429ZM0.322479 2.41828C0.117278 2.38943 -0.0251704 2.19941 0.00372177 1.99546C0.0336059 1.79151 0.222869 1.64924 0.427082 1.6781C0.529681 1.69302 0.634274 1.70397 0.739872 1.71192C0.838488 1.71889 0.944076 1.72287 1.05366 1.72287C1.70512 1.72287 2.33965 1.57662 2.91242 1.30603C3.48718 1.03543 4.00117 0.637495 4.41356 0.136079C4.54505 -0.0230963 4.78013 -0.0459769 4.93951 0.0853415C4.96043 0.102254 4.97935 0.121155 4.99529 0.142049C5.40669 0.640459 5.92068 1.03641 6.49246 1.30602C7.06523 1.57661 7.69876 1.72285 8.35122 1.72285C9.00268 1.72285 9.63721 1.57661 10.21 1.30602C10.7847 1.03542 11.2987 0.637479 11.7111 0.136064C11.8426 -0.0231116 12.0777 -0.0459922 12.2371 0.0853262C12.258 0.102239 12.2769 0.121139 12.2929 0.142033C12.7053 0.640444 13.2182 1.0364 13.79 1.306C14.3628 1.5766 14.9973 1.72284 15.6488 1.72284C16.3002 1.72284 16.9348 1.57659 17.5075 1.306C18.0813 1.0354 18.5973 0.637464 19.0087 0.136049C19.1402 -0.0231269 19.3753 -0.0460075 19.5346 0.0853109C19.5556 0.102223 19.5745 0.121124 19.5904 0.142018C20.0028 0.640428 20.5158 1.03638 21.0876 1.30599C21.6603 1.57658 22.2949 1.72282 22.9463 1.72282C23.0559 1.72282 23.1615 1.71884 23.2601 1.71188C23.3657 1.70392 23.4703 1.69298 23.5729 1.67805C23.7771 1.6492 23.9664 1.79147 23.9963 1.99541C24.0252 2.19935 23.8827 2.38938 23.6775 2.41823C23.556 2.43515 23.4345 2.44907 23.3129 2.45803C23.1864 2.46698 23.0639 2.47096 22.9464 2.47096C22.1853 2.47096 21.4422 2.29984 20.7688 1.98149C20.224 1.72482 19.7249 1.37066 19.2976 0.932917C18.8703 1.37066 18.3712 1.72482 17.8263 1.98149C17.153 2.29984 16.4099 2.47096 15.6488 2.47096C14.8878 2.47096 14.1447 2.29984 13.4713 1.98149C12.9264 1.72482 12.4274 1.37066 12 0.932917C11.5727 1.37066 11.0737 1.72482 10.5288 1.98149C9.85542 2.29984 9.11231 2.47096 8.35127 2.47096C7.59023 2.47096 6.84714 2.29984 6.17375 1.98149C5.62888 1.72482 5.12981 1.37066 4.7025 0.932917C4.27516 1.37066 3.77611 1.72482 3.23124 1.98149C2.55787 2.29984 1.81476 2.47096 1.05372 2.47096C0.936178 2.47096 0.813656 2.46698 0.68715 2.45803C0.565624 2.44907 0.444009 2.43519 0.322479 2.41828Z" fill="white"/>
</svg>
