<svg width="20" height="21" viewBox="0 0 20 21" fill="none" xmlns="http://www.w3.org/2000/svg">
<path d="M13.2346 13.7561L7.81474 18.8293C7.77083 18.8705 7.71503 18.8906 7.65832 18.8906C7.61075 18.8906 7.56318 18.876 7.52202 18.8458C7.43329 18.7808 7.40402 18.661 7.45341 18.5613L9.5052 14.3745L7.34456 13.3152C7.27778 13.2823 7.23021 13.2182 7.21924 13.1441C7.20826 13.0691 7.23479 12.9941 7.28967 12.9429L8.55477 11.7583L12.7096 7.86969C12.7901 7.79468 12.9126 7.78736 13.0014 7.85231C13.0901 7.91817 13.1194 8.038 13.0709 8.13679L11.2963 11.7583L11.0191 12.3245L13.1788 13.3838C13.2465 13.4167 13.2941 13.4808 13.3051 13.5549C13.3161 13.629 13.2895 13.704 13.2346 13.7561Z" fill="white"/>
<path d="M19.245 8.40382C19.245 10.2562 17.7439 11.7582 15.8915 11.7582H12.3158L13.8928 8.54012C14.1361 8.04432 13.9907 7.44607 13.5461 7.11676C13.1025 6.78928 12.4877 6.82496 12.0852 7.20183L7.21694 11.7582H4.79377C2.81882 11.5506 1.2793 9.85827 1.2793 7.82844C1.2793 5.65865 3.03928 3.89958 5.20907 3.89958C5.61979 3.89958 6.01588 3.9627 6.38818 4.07979C6.77238 1.76547 8.78208 0 11.2053 0C13.9019 0 16.0891 2.18625 16.0891 4.88386C16.0891 4.94148 16.0864 4.99911 16.0845 5.05583C17.8473 5.15645 19.245 6.61639 19.245 8.40382Z" fill="white"/>
<path d="M0.457277 16.2782C0.39608 16.2782 0.333877 16.2658 0.274235 16.2398C0.0428031 16.1386 -0.062759 15.8689 0.0384124 15.6375L0.86059 13.7572C0.961762 13.5257 1.23134 13.4201 1.46286 13.5214C1.69429 13.6226 1.79986 13.8923 1.69869 14.1237L0.876507 16.004C0.801406 16.1757 0.633458 16.2782 0.457277 16.2782Z" fill="white"/>
<path d="M0.869386 20.9998C0.808189 20.9998 0.745986 20.9875 0.686345 20.9614C0.454913 20.8602 0.34935 20.5906 0.450522 20.3591L1.2727 18.4789C1.37378 18.2474 1.64336 18.1418 1.87497 18.2431C2.1064 18.3442 2.21197 18.6139 2.11079 18.8453L1.28862 20.7256C1.21361 20.8974 1.04557 20.9998 0.869386 20.9998Z" fill="white"/>
<path d="M10.9553 20.9999C10.8941 20.9999 10.8319 20.9875 10.7723 20.9614C10.5409 20.8603 10.4352 20.5905 10.5365 20.3592L11.3587 18.4789C11.4598 18.2475 11.7297 18.1417 11.9609 18.2431C12.1924 18.3443 12.298 18.614 12.1968 18.8454L11.3746 20.7256C11.2994 20.8974 11.1315 20.9999 10.9553 20.9999Z" fill="white"/>
<path d="M4.93189 19.2495C4.87069 19.2495 4.80849 19.2372 4.74884 19.2111C4.51741 19.1099 4.41185 18.8402 4.51302 18.6088L5.12133 17.2177C5.2225 16.9862 5.49208 16.8805 5.7236 16.9818C5.95504 17.083 6.0606 17.3528 5.95943 17.5841L5.35112 18.9753C5.27602 19.1471 5.10807 19.2495 4.93189 19.2495Z" fill="white"/>
<path d="M14.926 16.0342C14.8648 16.0342 14.8026 16.0218 14.743 15.9958C14.5116 15.8946 14.4059 15.6248 14.5072 15.3935L15.1155 14.0023C15.2167 13.7709 15.4865 13.6652 15.7178 13.7665C15.9492 13.8677 16.0549 14.1374 15.9536 14.3688L15.3453 15.7599C15.2702 15.9317 15.1022 16.0342 14.926 16.0342Z" fill="white"/>
<path d="M4.30493 15.1845C4.24374 15.1845 4.18153 15.1722 4.12189 15.1461C3.89046 15.0449 3.7849 14.7753 3.88607 14.5438L4.41324 13.3383C4.51441 13.1068 4.78399 13.0011 5.01551 13.1025C5.24694 13.2036 5.35251 13.4733 5.25133 13.7047L4.72416 14.9103C4.64915 15.0821 4.48121 15.1845 4.30493 15.1845Z" fill="white"/>
<path d="M15.8498 20.2596C15.7886 20.2596 15.7264 20.2473 15.6669 20.2212C15.4354 20.12 15.3298 19.8503 15.431 19.6189L16.2532 17.7387C16.3544 17.5072 16.6243 17.4015 16.8555 17.5028C17.0869 17.604 17.1926 17.8738 17.0913 18.1051L16.2691 19.9854C16.194 20.1572 16.0261 20.2596 15.8498 20.2596Z" fill="white"/>
</svg>
