<svg width="26" height="17" viewBox="0 0 26 17" fill="none" xmlns="http://www.w3.org/2000/svg">
<path d="M1.00391 6.04492H3.51344V9.05627H1.00391V6.04492Z" fill="white"/>
<path d="M1.00391 2.02979H3.51344V5.04113H1.00391V2.02979Z" fill="white"/>
<path d="M18.0703 5.54326H22.4351C21.7797 4.31389 21.4895 3.76329 21.3635 3.53564H18.0706L18.0703 5.54326Z" fill="white"/>
<path d="M24.3229 11.0324C24.6723 10.451 24.6893 9.77442 24.3716 9.17614L22.9717 6.54695H17.5703C17.2929 6.54695 17.0684 6.32247 17.0684 6.04503V3.03368C17.0684 2.75627 17.2929 2.53176 17.5703 2.53176H20.6823C19.3746 0.945556 17.3543 0 15.1475 0H1.00401V1.02606H7.52982C7.80723 1.02606 8.03174 1.25055 8.03174 1.52798V9.05757H22.5892C22.8666 9.05757 23.0911 9.28205 23.0911 9.55949C23.0911 9.8369 22.8666 10.0614 22.5892 10.0614H1.00391V12.069H22.4176C23.2202 12.069 23.9328 11.6815 24.3225 11.0324L24.3229 11.0324ZM11.0447 6.54692C9.93708 6.54692 9.03704 5.64582 9.03704 4.5393C9.03704 3.43173 9.93814 2.53168 11.0447 2.53168C12.1522 2.53168 13.0523 3.43278 13.0523 4.5393C13.0523 5.64688 12.1512 6.54692 11.0447 6.54692Z" fill="white"/>
<path d="M12.0467 4.53946C12.0467 5.87788 10.0391 5.87788 10.0391 4.53946C10.0391 3.20104 12.0467 3.20104 12.0467 4.53946Z" fill="white"/>
<path d="M4.51758 2.02979H7.02711V9.05761H4.51758V2.02979Z" fill="white"/>
<path d="M25.0996 15.5716H21.0653C21.6466 15.4615 22.0871 14.9469 22.0871 14.3275C22.0871 13.6286 21.5248 13.061 20.8323 13.061C20.1387 13.061 19.5775 13.6275 19.5775 14.3275C19.5775 14.9469 20.018 15.4615 20.6004 15.5716H16.5471C17.1294 15.4615 17.5699 14.9469 17.5699 14.3275C17.5699 13.6286 17.0077 13.061 16.3152 13.061C15.6216 13.061 15.0604 13.6275 15.0604 14.3275C15.0604 14.9469 15.5009 15.4615 16.0833 15.5716H12.0299C12.6112 15.4615 13.0517 14.9469 13.0517 14.3275C13.0517 13.6286 12.4895 13.061 11.7969 13.061C11.1034 13.061 10.5422 13.6275 10.5422 14.3275C10.5422 14.9469 10.9827 15.4615 11.565 15.5716H7.51169C8.09301 15.4615 8.5335 14.9469 8.5335 14.3275C8.5335 13.6286 7.97124 13.061 7.27873 13.061C6.58517 13.061 6.02397 13.6275 6.02397 14.3275C6.02397 14.9469 6.46446 15.4615 7.04683 15.5716H2.99348C3.57585 15.4615 4.01635 14.9469 4.01635 14.3275C4.01635 13.6286 3.45409 13.061 2.76158 13.061C2.06801 13.061 1.50681 13.6275 1.50681 14.3275C1.50681 14.9469 1.9473 15.4615 2.52968 15.5716H0.501918C0.224502 15.5716 0 15.7961 0 16.0735C0 16.351 0.224481 16.5755 0.501918 16.5755H25.0996C25.377 16.5755 25.6015 16.351 25.6015 16.0735C25.6015 15.7972 25.3771 15.5716 25.0996 15.5716Z" fill="white"/>
</svg>
