<svg width="21" height="16" viewBox="0 0 21 16" fill="none" xmlns="http://www.w3.org/2000/svg">
<path d="M0.528522 5.5905C0.236595 5.5905 0 5.35391 0 5.06198C0 4.77005 0.236595 4.53346 0.528522 4.53346H9.71882C10.199 4.53346 10.6334 4.33884 10.9482 4.02465C11.2624 3.71047 11.457 3.27544 11.457 2.79525C11.457 2.31507 11.2624 1.88067 10.9482 1.56585C10.634 1.25166 10.199 1.05704 9.71882 1.05704C9.23864 1.05704 8.80425 1.25166 8.48942 1.56585C8.17523 1.88004 7.98062 2.31507 7.98062 2.79525C7.98062 3.08718 7.74402 3.32377 7.4521 3.32377C7.16017 3.32377 6.92357 3.08718 6.92357 2.79525C6.92357 2.02377 7.23649 1.32417 7.74211 0.818541C8.24774 0.312915 8.94671 0 9.71819 0C10.4903 0 11.1893 0.312915 11.6949 0.818541C12.2005 1.32417 12.5134 2.02314 12.5134 2.79525C12.5134 3.56673 12.2005 4.2657 11.6949 4.77133C11.1893 5.27695 10.4903 5.58987 9.71819 5.58987H0.527886L0.528522 5.5905ZM11.9073 12.1458C11.9073 11.8539 12.1439 11.6173 12.4358 11.6173C12.7278 11.6173 12.9644 11.8539 12.9644 12.1458C12.9644 12.6585 13.1723 13.1227 13.5082 13.4592C13.844 13.795 14.3089 14.003 14.8215 14.003C15.3341 14.003 15.7991 13.795 16.1349 13.4592C16.4707 13.1234 16.6786 12.6591 16.6786 12.1458C16.6786 11.6326 16.4707 11.1683 16.1349 10.8325C15.7991 10.4967 15.3348 10.2887 14.8215 10.2887H0.528522C0.236595 10.2887 0 10.0521 0 9.76016C0 9.46824 0.236595 9.23164 0.528522 9.23164H14.8215C15.6261 9.23164 16.3549 9.55791 16.8822 10.0852C17.4094 10.6124 17.7357 11.3413 17.7357 12.1458C17.7357 12.9504 17.4094 13.6792 16.8822 14.2065C16.3549 14.7337 15.6261 15.06 14.8215 15.06C14.017 15.06 13.2881 14.7337 12.7608 14.2065C12.2336 13.6792 11.9073 12.9504 11.9073 12.1458ZM14.3076 4.45396C14.3076 4.74588 14.071 4.98248 13.7791 4.98248C13.4872 4.98248 13.2506 4.74588 13.2506 4.45396C13.2506 3.49168 13.6404 2.62035 14.2714 1.98943C14.9023 1.35851 15.7736 0.968003 16.7359 0.968003C17.6982 0.968003 18.5701 1.35851 19.2004 1.98943C19.8313 2.62035 20.2218 3.49168 20.2218 4.45396C20.2218 5.41624 19.8313 6.28757 19.2004 6.91849C18.5701 7.5494 17.6982 7.93928 16.7359 7.93928H0.528522C0.236595 7.93928 0 7.70268 0 7.41075C0 7.11883 0.236595 6.88223 0.528522 6.88223H16.7359C17.4069 6.88223 18.0136 6.61066 18.4531 6.17118C18.8926 5.7317 19.1642 5.12431 19.1642 4.45396C19.1642 3.78297 18.8926 3.17622 18.4531 2.73674C18.0136 2.29726 17.4062 2.02568 16.7359 2.02568C16.0655 2.02568 15.4582 2.29726 15.0187 2.73674C14.5792 3.17622 14.3076 3.78361 14.3076 4.45396ZM0.528522 12.6381C0.236595 12.6381 0 12.4015 0 12.1096C0 11.8176 0.236595 11.5811 0.528522 11.5811H10.461C10.753 11.5811 10.9896 11.8176 10.9896 12.1096C10.9896 12.4015 10.753 12.6381 10.461 12.6381H0.528522Z" fill="white"/>
</svg>
