<svg width="28" height="21" viewBox="0 0 28 21" fill="none" xmlns="http://www.w3.org/2000/svg">
<path d="M12.2549 20.9873L12.116 20.9803L11.8217 20.9619L11.4473 20.9296L11.08 20.8904L10.5667 20.819L10.1359 20.7475L9.80861 20.683L9.49076 20.6115L9.16585 20.5263L8.81503 20.4225L8.4077 20.2889L8.20522 20.2174L7.92739 20.1137L7.64957 20.0031L7.44709 19.9155L7.16926 19.7887L6.9244 19.6642L6.63952 19.5121L6.36169 19.3577L6.01087 19.1502L5.839 19.0465L5.67418 18.937L5.50349 18.8287L5.15384 18.6005L4.80302 18.3723L4.63703 18.2536L4.46986 18.1349L4.42513 18.052V17.9482L4.45809 17.8791L4.52637 17.8238L4.61584 17.7984L4.70531 17.8169H4.783L5.2327 17.8975L5.93197 18.0243L6.42874 18.1027L6.77013 18.1511L7.20805 18.1995L7.64126 18.2386L8.05564 18.2709L8.54537 18.3032L8.84674 18.3193L9.23758 18.3355H9.88977L10.2406 18.3193L10.509 18.3032L10.8268 18.2801L11.1518 18.2479L11.4602 18.2087L11.7851 18.1534L12.0864 18.0842L12.3548 18.0105L12.6068 17.9298L12.9152 17.8146L13.1553 17.7108L13.4049 17.5887L13.6969 17.4227L13.9417 17.2637L14.1795 17.0931L14.382 16.9341L14.5939 16.7589L14.7399 16.6298L14.9353 16.4524L15.2461 16.1435L15.3991 15.9752L15.5616 15.7839L15.7334 15.5603L15.8959 15.3299L16.0678 15.0579L16.2184 14.7951L16.428 14.3803L16.5363 14.1405L16.6399 13.9008L16.7317 13.6703L16.7976 13.4952L16.9012 13.1932L16.9672 12.9697L17.0237 12.7392L17.0708 12.4995L17.1037 12.2851L17.1367 11.9832L17.1555 11.6328L17.1461 11.0819L17.1202 10.7961L17.0872 10.538L17.0543 10.3398L17.0142 10.1323L16.9577 9.8857L16.9083 9.70131L16.8589 9.54227L16.7835 9.3187L16.6964 9.09512L16.5881 8.84849L16.4492 8.57651L16.2914 8.29762L16.1643 8.09018L15.9995 7.84355L15.9029 7.70756L15.7546 7.51626L15.6416 7.38027L15.4532 7.17282L14.7352 6.46293L14.568 6.27162L14.422 6.05957L14.3325 5.88439L14.2784 5.72305L14.2525 5.59628L14.2407 5.42802L14.2525 5.22288L14.2878 5.02466L14.3679 4.70659L14.4762 4.34011L14.5727 4.03817L14.641 3.84687L14.7634 3.54494L14.8952 3.25682L15.013 3.01711L15.1401 2.78662L15.2461 2.61145L15.3826 2.40401L15.505 2.23575L15.6345 2.06749L15.7734 1.89924L15.9453 1.70793L16.3291 1.33224L16.5739 1.12941L16.8353 0.938099L17.1602 0.728352L17.4051 0.592361L17.5887 0.502469L17.8124 0.405662L18.0572 0.313465L18.2856 0.239708L18.5305 0.175171L18.7753 0.119853L19.0296 0.0737551L19.2556 0.0414878L19.5735 0.0115248L20.0703 0L20.4211 0.0184393L20.7625 0.0484025L21.0073 0.0783654L21.2687 0.119852L21.5206 0.168255L21.7937 0.230488L22.0598 0.304245L22.3117 0.384918L22.5566 0.472505L22.8344 0.585445L23.2087 0.762922L23.4771 0.91274L23.6796 1.03951L23.8586 1.15937L24.0775 1.3184L24.2965 1.49358L24.4848 1.65261L24.5908 1.74942L25.104 2.22884L25.3983 2.49621L25.6432 2.70596L26.027 3.02173L26.22 3.16694L26.3943 3.28449L26.5732 3.38821L27.0935 3.6671L27.3549 3.81231L27.5009 3.90451L27.6869 4.0405L27.8611 4.21106L27.9341 4.30556L27.9788 4.39315L28 4.47382V4.55449L27.9741 4.64899L27.9294 4.73427L27.8517 4.82877L27.7339 4.92558L27.4491 5.11227L27.1242 5.31971L26.8228 5.50411L26.1377 5.90747L25.7303 6.1587L25.4219 6.35462L25.243 6.47448L25.0476 6.61047L24.8521 6.75337L24.7297 6.85018L24.5531 7.01843L24.459 7.13829L24.3695 7.29502L24.28 7.48863L24.2141 7.67303L24.1741 7.85511L24.1552 8.04642L24.1646 8.3184L24.1882 8.56503L24.2376 9.02831L24.28 9.49853L24.3059 9.84887L24.3153 10.4458L24.2965 10.7962L24.273 11.0682L24.2565 11.2272L24.2235 11.4877L24.1905 11.6974L24.134 12.0155L24.0516 12.4142L23.941 12.8614L23.7997 13.3408L23.5972 13.9309L23.4795 14.2328L23.3453 14.5601L23.2158 14.8551L23.1028 15.1017L22.9757 15.3645L22.8297 15.6526L22.6908 15.9085L22.5283 16.1874L22.3376 16.4893L22.1799 16.7244L22.0056 16.9664L21.8102 17.2222L21.6219 17.4458L21.3699 17.7247L21.0191 18.0682L20.7507 18.3079L20.5223 18.4992L20.2539 18.7135L20.0185 18.891L19.7548 19.0754L19.4652 19.2644L19.1709 19.4396L18.886 19.5986L18.5681 19.7669L18.0949 19.9974L17.7771 20.1357L17.4922 20.2463L17.1508 20.3638L16.7929 20.4745L16.4845 20.5621L16.1431 20.6497L15.8135 20.7234L15.5333 20.7787L15.1495 20.841L14.7822 20.8894L14.4879 20.9216L14.1536 20.9516L13.7957 20.977L13.4943 20.9931L12.3948 21L12.2559 20.9931L12.2549 20.9873ZM21.2169 4.34353L21.2628 4.33201L21.4135 4.25825L21.5383 4.13609L21.5995 4.03237L21.6419 3.9056V3.69125L21.5972 3.56448L21.5501 3.4838L21.4842 3.40313L21.39 3.32707L21.2605 3.26484L21.1545 3.23948H20.9991L20.8697 3.27175L20.7472 3.33168L20.5989 3.47458L20.54 3.58522L20.5024 3.70508V3.88947L20.5306 3.99319L20.5824 4.09691L20.6554 4.19141L20.7543 4.26977L20.8602 4.32279L20.945 4.35045L21.0486 4.36428L21.1687 4.35506L21.2146 4.34353L21.2169 4.34353ZM7.60477 17.2118L7.53178 17.2095L7.15742 17.1933L6.83252 17.1703L6.50761 17.138L6.19684 17.0988L5.94492 17.0597L5.64355 17.002L5.33513 16.9306L5.09969 16.866L4.77478 16.76L4.47341 16.6448L4.22855 16.5387L3.93425 16.3958L3.69881 16.2691L3.41392 16.1008L3.1361 15.9187L2.91713 15.7597L2.70524 15.5914L2.54278 15.4485L2.27673 15.1927L2.08602 14.9944L1.91415 14.7962L1.73992 14.575L1.55157 14.3168L1.3797 14.061L1.24078 13.8374L1.08068 13.5562L0.974734 13.3487L0.859367 13.1044L0.746354 12.844L0.652177 12.602L0.53681 12.2678L0.454404 11.9958L0.376709 11.7077L0.308431 11.4334L0.218961 10.9977L0.153037 10.6197L0.0164812 9.67244L0 9.50879V9.38663L0.0235443 9.2783L0.0565079 9.20454L0.145978 9.11926L0.237802 9.08699H0.322561L0.419092 9.11235L0.532105 9.17688L0.736942 9.37741L1.10425 9.79228L1.29731 9.99972L1.67402 10.38L1.96832 10.652L2.16845 10.8226L2.36858 10.9816L2.58047 11.1384L2.88184 11.3343L3.08432 11.4541L3.30564 11.5763L3.64468 11.7445L3.77417 11.8022L3.97666 11.8898L4.18856 11.975L4.40752 12.058L4.71594 12.1663L4.89487 12.224L5.1727 12.3046L5.58708 12.413L5.97792 12.5006L6.25575 12.5559L6.48177 12.5951L6.71015 12.6273L6.98798 12.6573L7.3388 12.6826H7.95802L8.16992 12.6642L8.34179 12.6412L8.56075 12.5928L8.75146 12.5305L8.89037 12.4683L8.99161 12.4084L9.11875 12.3208V12.3092L8.94453 12.2539L8.64316 12.1825L8.1393 12.0857L7.56954 11.975L7.20223 11.8944L6.91735 11.8252L6.61598 11.7376L6.30756 11.6339L6.0627 11.5417L5.77781 11.4219L5.46939 11.2743L5.22453 11.1337L5.01734 11.0001L4.84076 10.871L4.7042 10.7604L4.50408 10.5783L4.3322 10.3916L4.23567 10.2648L4.16268 10.1265L4.13914 10.0251V9.95133L4.16504 9.86835L4.21919 9.7992L4.28982 9.74619L4.37929 9.72083H4.52056L4.65947 9.74619L5.35168 9.91214L5.71899 9.98359L6.00388 10.0228L6.26522 10.0481H6.62309L6.80203 10.032L6.9739 10.0066L7.12929 9.97668L7.29646 9.93289V9.92367L7.05631 9.81073L6.72197 9.66552L6.34056 9.50648L5.97563 9.36357L4.9797 8.98095L4.67834 8.85879L4.36992 8.7228L4.15802 8.61908L3.9626 8.51536L3.76718 8.40242L3.5388 8.25721L3.35986 8.12814L3.15738 7.9691L2.91958 7.75935L2.78067 7.61875L2.65353 7.48507L2.55818 7.37213L2.44869 7.26265L2.27682 7.03907L2.11437 6.79936L2.06375 6.71639L2.01195 6.63226L1.95309 6.52392L1.89305 6.41559L1.83301 6.28882L1.7718 6.16205L1.71058 6.00993L1.64937 5.85896L1.60816 5.73104L1.56696 5.60426L1.54342 5.51668L1.51869 5.42909L1.48573 5.2931L1.45395 5.15711L1.39509 4.87822L1.33151 4.51173L1.31503 4.37574L1.29855 4.2409L1.29031 4.13257L1.28207 4.0254L1.28089 3.54713V3.06886L1.30679 2.76692L1.34682 2.53413L1.36565 2.47189L1.43864 2.39353L1.5493 2.35435H1.63877L1.69763 2.3797L1.75178 2.41888L1.81535 2.55026L1.96133 2.76693L2.10495 2.93979L2.2109 3.05965L2.44634 3.31319L2.64882 3.51833L2.8772 3.71885L3.04908 3.85254L3.19505 3.95395L3.38341 4.06459L3.64475 4.19366L4.00968 4.34348L4.40757 4.491L4.76545 4.60855L5.0833 4.70305L5.32816 4.76759L5.719 4.86209L5.87439 4.89666L6.30526 4.98194L6.64665 5.03956L7.30589 5.14098L8.33949 5.31615L9.07172 5.43601L9.81336 5.55586L10.1312 5.61348L10.4491 5.67802L10.8305 5.7633L11.1554 5.85089L11.4826 5.95461L11.7557 6.05603L12.0336 6.17127L12.4903 6.39254L12.7846 6.5585L12.98 6.68065L13.1684 6.80743L13.3309 6.92498L13.5098 7.06788L13.7547 7.27993L14.0113 7.53578L14.1973 7.74783L14.3668 7.96218L14.5222 8.17654L14.6658 8.3909L14.8118 8.63061L14.9625 8.90259L15.0943 9.17457L15.1932 9.40045L15.3062 9.69317L15.4122 10.0112L15.4781 10.2348L15.537 10.463L15.5935 10.7142L15.6429 10.9931L15.6829 11.3043L15.7065 11.5763L15.723 11.975L15.7135 12.2631L15.6971 12.4867L15.6641 12.7587L15.6147 13.0307L15.5581 13.2543L15.4687 13.5262L15.3698 13.766L15.2073 14.0887L15.0472 14.3491L14.9107 14.5473L14.7647 14.7386L14.6329 14.8977L14.461 15.089L14.2985 15.2549L14.0796 15.4486L13.8771 15.6099L13.6652 15.7597L13.4368 15.9095L13.2084 16.0455L12.9306 16.193L12.6669 16.3221L12.3444 16.465L12.05 16.5803L11.7416 16.6886L11.4073 16.7923L11.1718 16.8592L10.8634 16.9375L10.5056 17.0159L10.1877 17.0735L9.80394 17.1288L9.45312 17.168L9.15881 17.1934L8.76797 17.2187L7.67551 17.2233L7.60253 17.221L7.60477 17.2118Z" fill="white"/>
</svg>
