<svg width="26" height="21" viewBox="0 0 26 21" fill="none" xmlns="http://www.w3.org/2000/svg">
<path d="M25.682 19.8425C25.533 19.7444 25.3603 19.6852 25.1797 19.669C25.0375 19.6453 24.9032 19.5903 24.7869 19.5095C23.631 18.4444 22.5643 17.3018 22.0304 15.7678L22.0293 15.7667C21.9819 15.6568 21.9514 15.5404 21.9401 15.4218C21.9051 14.3837 21.8216 13.3413 21.8769 12.3088V12.3098C21.9333 11.745 22.2257 11.2254 22.6885 10.8686C23.0858 10.5237 23.6242 10.3652 24.1559 10.4385C24.6503 10.4881 24.8207 10.0138 25.0228 9.66885C25.2745 9.24954 25.4009 9.05119 24.9652 8.7634C24.718 8.58769 24.5193 8.35592 24.3873 8.08968C24.2191 7.69408 23.8985 7.37392 23.4922 7.19606C23.2845 7.13139 23.1242 6.97401 23.0643 6.77353C23.0406 6.48033 23.0655 6.18497 23.1366 5.89931C23.1366 5.78289 23.1366 5.59316 23.0474 5.51341L23.0463 5.51234C22.8815 5.61043 22.7314 5.73116 22.6015 5.86914C22.123 6.49757 21.4829 6.99884 20.7436 7.32543C20.353 7.52808 19.9975 7.7868 19.6893 8.09291C19.0245 8.64482 18.2219 8.77956 17.4092 8.89922C17.3629 8.90676 17.3167 8.90676 17.2704 8.89922C16.0163 8.68686 14.7589 8.48529 13.5138 8.26215V8.26108C11.8918 7.9474 10.2393 7.79756 8.58438 7.81373C8.02902 7.84068 7.47594 7.90643 6.93073 8.00991C5.99046 8.16622 5.05245 7.71887 4.61901 6.9061C4.05009 5.81631 3.58506 4.55835 3.67424 3.30464C3.70246 2.64172 4.02527 2.0219 4.56144 1.59933C4.98926 1.24252 5.63151 1.25439 6.04352 1.62736C6.12027 1.71359 6.22073 1.77827 6.33248 1.81492C6.41601 1.83217 6.50067 1.83648 6.5842 1.82893C6.64063 1.82893 6.69594 1.81707 6.74561 1.79336C6.81672 1.74916 6.86413 1.6791 6.87654 1.59933C6.88896 1.34386 6.8122 1.09053 6.65643 0.882487C6.53566 0.66151 6.36747 0.467481 6.16204 0.313334C5.76359 0.03846 5.26128 -0.0617965 4.78157 0.037381C3.53879 0.252969 2.56466 1.32661 2.23282 2.52096C2.13687 2.87669 2.09398 3.24211 2.10526 3.6086C2.10526 3.94816 2.12558 4.29525 2.16057 4.63481C2.22492 5.33979 2.41455 6.02752 2.72044 6.67212C3.00941 7.25206 3.339 7.80071 3.66522 8.35588L3.66634 8.3548C3.81873 8.57147 3.95305 8.80107 4.0648 9.0393C4.4723 10.1819 3.61667 11.1865 3.6054 12.3033V12.3044C3.63588 12.8088 3.53655 13.3122 3.31644 13.7714C3.09407 14.1854 2.12558 14.5249 1.75874 14.8063C1.39077 15.0973 1.12663 15.4886 0.999083 15.9273C0.667235 16.9233 0.354547 17.928 0.0452676 18.9294C-0.0619643 19.2743 0.0136607 20.0968 0.354547 20.2068C0.464038 20.2423 1.04197 20.4418 1.07358 19.8866C1.08148 19.4738 1.11986 19.062 1.18645 18.6534C1.30498 18.1209 1.76438 17.624 1.99012 17.1357C2.2012 16.711 2.96425 16.5062 3.35932 16.3682C3.75552 16.2302 4.1393 16.1138 4.5355 16.0039V16.0049C4.8967 15.8573 5.2816 15.7721 5.67442 15.7505C5.70151 15.7505 5.7286 15.7592 5.75231 15.7721C5.76811 15.7883 5.78053 15.8066 5.7873 15.8282C5.92275 16.1235 5.75795 16.4081 5.70038 16.7034V16.7024C5.64169 16.9859 5.6225 17.2758 5.64282 17.5636C5.68571 18.136 5.88437 18.6879 6.22075 19.1644C6.372 19.3832 6.55147 19.5826 6.75467 19.7605C6.97026 19.9545 7.1565 20.1755 7.31003 20.417C7.63962 20.9139 8.10468 21.0131 8.6273 20.9969C8.70857 20.9969 8.78646 20.9829 8.8666 20.9969H8.86773C9.14992 21.026 9.41067 20.846 9.46823 20.5798C9.51451 20.3976 9.14427 20.0279 8.8903 20.0063C8.51779 19.9761 8.17577 19.7983 7.94778 19.5148C7.827 19.3736 7.71977 19.2216 7.6272 19.062C7.49514 18.9144 7.39693 18.7408 7.33824 18.5543C7.33034 18.4606 7.34501 18.3657 7.38226 18.2784C7.49288 18.0154 7.64526 17.7696 7.83264 17.5497C8.02905 17.2738 8.23447 17.0258 8.41057 16.7553C8.61713 16.4653 8.80226 16.1624 8.96255 15.8476C9.16234 15.4445 9.32714 15.3733 9.7685 15.3432C10.3464 15.3022 10.9244 15.2354 11.5192 15.175C11.8082 15.1448 12.0972 15.1168 12.4087 15.0952L12.4098 15.0942C12.6875 15.0834 12.9652 15.1071 13.2361 15.1653C13.525 15.2203 13.814 15.2839 14.103 15.3507C14.2147 15.3572 14.3163 15.4143 14.3773 15.5027C14.4393 15.5911 14.454 15.7021 14.4179 15.8034C14.2508 16.5979 14.0601 17.3902 13.9382 18.19C13.8366 18.8411 13.8196 19.5094 13.7767 20.1691C13.7824 20.2596 13.8174 20.3459 13.8783 20.417C14.0917 20.693 15.0771 20.721 15.3232 20.458C15.4304 20.3588 15.4744 20.2111 15.4372 20.0721C15.401 19.933 15.2882 19.8231 15.1437 19.7853C14.7193 19.6226 14.7565 19.3552 14.8954 19.062C15.3503 18.1296 15.8164 17.2026 16.2939 16.2832C16.4564 15.963 16.7883 15.7518 17.1608 15.7313C17.5107 15.6925 17.8573 15.6289 18.2038 15.5739C18.2501 15.5674 18.2986 15.5674 18.3449 15.5739C18.4634 15.5955 18.5356 15.7011 18.6338 15.7723C18.732 15.8445 18.8336 15.921 18.9228 15.9986C19.1271 16.1452 19.3213 16.3058 19.5007 16.4794C19.6373 16.667 19.7886 16.8448 19.9522 17.0119C20.2412 17.2296 20.4986 17.4539 20.7695 17.677L21.975 18.6644C22.212 18.8573 22.4547 19.0481 22.694 19.2357C23.1873 19.6733 23.7167 20.0711 24.2777 20.4257C24.6039 20.6025 25.0724 20.5637 25.4742 20.5422V20.5411C25.6006 20.5174 25.7315 20.5174 25.858 20.5411C25.9934 20.5001 26.025 20.4613 25.9821 20.3126C25.9291 20.1325 25.8254 19.9697 25.682 19.8425Z" fill="white"/>
</svg>
