<svg width="27" height="24" viewBox="0 0 27 24" fill="none" xmlns="http://www.w3.org/2000/svg">
<path d="M16.4927 24C16.4574 23.9989 16.2426 23.99 16.0152 23.9811C15.789 23.9722 15.556 23.961 15.4969 23.9577C15.4389 23.9532 15.3661 23.9466 15.3366 23.941C15.307 23.9354 15.2547 23.9243 15.2206 23.9143C15.1865 23.9053 15.1195 23.8775 15.0694 23.8541C15.0035 23.8229 14.9694 23.8018 14.9387 23.774C14.916 23.7539 14.8819 23.716 14.8637 23.6916C14.8455 23.6671 14.8193 23.6247 14.8046 23.598C14.7909 23.5713 14.7705 23.5156 14.7591 23.4744C14.7477 23.4332 14.7295 23.3475 14.7193 23.2829C14.7079 23.2183 14.6932 23.117 14.6852 23.0557C14.6772 22.9956 14.6681 22.9099 14.6647 22.8653C14.6613 22.8208 14.6545 22.7384 14.6511 22.6816C14.6477 22.6248 14.6409 22.5056 14.6375 22.4177C14.634 22.3297 14.6261 22.1059 14.6204 21.9199C14.6147 21.734 14.6056 21.4088 14.5999 21.1961C14.5943 20.9834 14.5886 20.7295 14.5863 20.6315C14.584 20.5347 14.5795 20.3587 14.5761 20.2407C14.5727 20.1227 14.5636 19.8844 14.5556 19.7095C14.5488 19.5347 14.5397 19.2997 14.5351 19.1851C14.5317 19.0715 14.5272 18.7441 14.5249 18.4579C14.5226 18.1717 14.5238 17.7976 14.526 17.6272C14.5295 17.4212 14.5283 17.2364 14.5238 17.076C14.5181 16.9134 14.5113 16.7987 14.501 16.7219C14.4931 16.6596 14.4772 16.5638 14.4658 16.5081C14.4544 16.4535 14.4328 16.3723 14.4181 16.3277C14.4033 16.2832 14.376 16.2175 14.3578 16.1807C14.3396 16.144 14.301 16.0794 14.2725 16.0371C14.243 15.9948 14.193 15.9313 14.1611 15.8946C14.1293 15.8589 14.0702 15.801 14.0304 15.7676C13.9906 15.7331 13.936 15.6908 13.9099 15.6718C13.8838 15.654 13.8371 15.624 13.8076 15.6062C13.778 15.5883 13.7178 15.556 13.6746 15.5349C13.6314 15.5137 13.5655 15.4848 13.5279 15.4703C13.4904 15.4558 13.4222 15.4324 13.3756 15.4169C13.329 15.4024 13.2608 15.3823 13.2256 15.3734C13.1903 15.3645 13.1107 15.3456 13.0482 15.3333C12.9868 15.32 12.8788 15.2999 12.8095 15.2866C12.7401 15.2743 12.6049 15.2509 12.5094 15.2365C12.4139 15.222 12.2775 15.2019 12.2058 15.193C12.1342 15.1841 12.0046 15.1685 11.916 15.1596C11.8284 15.1507 11.6841 15.1374 11.5954 15.1296C11.5078 15.1218 11.3521 15.1106 11.2509 15.1028C11.1497 15.095 10.9872 15.085 10.8894 15.0795C10.7916 15.0739 10.6154 15.065 10.4972 15.0594C10.379 15.0538 10.1368 15.0449 9.95835 15.0394C9.77987 15.0338 9.54228 15.026 9.42974 15.0227C9.27173 15.0182 9.1842 15.0182 9.04892 15.026C8.95229 15.0316 8.83292 15.0416 8.7829 15.0494C8.73402 15.0572 8.65899 15.0717 8.6158 15.0828C8.5726 15.0939 8.50439 15.1151 8.4646 15.1296C8.42368 15.144 8.35888 15.1708 8.32023 15.1886C8.28158 15.2064 8.21792 15.2398 8.17813 15.2632C8.13948 15.2866 8.08377 15.3222 8.05535 15.3422C8.02693 15.3623 7.97464 15.4035 7.9394 15.4336C7.90416 15.4636 7.853 15.5126 7.82686 15.5405C7.80071 15.5694 7.75978 15.6173 7.73591 15.6462C7.71204 15.6752 7.67225 15.7298 7.64724 15.7665C7.62223 15.8033 7.58358 15.8645 7.56084 15.9035C7.53811 15.9424 7.504 16.0026 7.48581 16.0371C7.46649 16.0716 7.41079 16.1863 7.3619 16.291C7.31188 16.3956 7.24368 16.5371 7.20844 16.605C7.1732 16.6729 7.12318 16.7665 7.09589 16.8121C7.06861 16.8578 7.01291 16.9469 6.96971 17.0092C6.92765 17.0716 6.85944 17.1629 6.81965 17.213C6.77873 17.2631 6.68324 17.3655 6.60593 17.4402C6.52863 17.5159 6.43541 17.6027 6.3979 17.6339C6.36038 17.6651 6.30582 17.7085 6.2774 17.7319C6.24784 17.7553 6.191 17.7976 6.14894 17.8265C6.10688 17.8555 6.03412 17.9034 5.98524 17.9334C5.93636 17.9635 5.85906 18.0081 5.81359 18.0326C5.76811 18.0582 5.63624 18.125 5.52256 18.1829C5.40775 18.2408 5.24746 18.3243 5.16446 18.3688C5.08147 18.4134 4.96439 18.4791 4.90187 18.5158C4.84048 18.5526 4.75067 18.6082 4.70406 18.6394C4.65745 18.6706 4.58356 18.7229 4.54036 18.7541C4.49716 18.7864 4.42782 18.841 4.38576 18.8755C4.3437 18.91 4.2698 18.9779 4.21979 19.0247C4.16976 19.0715 4.09474 19.1494 4.05381 19.1973C4.01175 19.2452 3.95264 19.3153 3.92308 19.3543C3.89353 19.3933 3.84692 19.4556 3.82077 19.4946C3.79462 19.5336 3.75484 19.5959 3.7321 19.6349C3.70936 19.6739 3.67639 19.7329 3.65934 19.7674C3.64229 19.802 3.61387 19.8632 3.59682 19.9033C3.57977 19.9434 3.5559 20.0057 3.54339 20.0414C3.53089 20.077 3.50929 20.1416 3.49678 20.1861C3.48314 20.2307 3.46495 20.2997 3.45472 20.3398C3.44449 20.3799 3.4354 20.4233 3.43426 20.4367C3.43312 20.45 3.42971 20.4656 3.42744 20.4723C3.42516 20.479 3.42175 20.4957 3.42062 20.509C3.41834 20.5224 3.41607 20.5425 3.41493 20.5536C3.4138 20.5647 3.41039 20.5992 3.40811 20.6304C3.40584 20.6616 3.40357 20.6928 3.40243 20.7006C3.40129 20.7084 3.40357 20.7451 3.40698 20.7841C3.41039 20.8231 3.41834 20.8977 3.4263 20.95C3.43426 21.0035 3.44563 21.0747 3.45358 21.1104C3.46041 21.146 3.47518 21.2017 3.48428 21.234C3.49337 21.2674 3.51156 21.323 3.52407 21.3576C3.53657 21.3921 3.55476 21.44 3.56499 21.4645C3.57522 21.4878 3.59909 21.5413 3.61956 21.5814C3.63888 21.6215 3.67981 21.6938 3.70936 21.7417C3.73892 21.7896 3.78439 21.8575 3.81167 21.8943C3.83782 21.9299 3.89466 22.0001 3.93672 22.0513C3.97992 22.1014 4.06063 22.1905 4.11634 22.2484C4.17204 22.3063 4.28572 22.4176 4.36757 22.4934C4.44942 22.5702 4.55173 22.6637 4.59607 22.7016C4.6404 22.7395 4.71998 22.8074 4.77454 22.8508C4.82911 22.8953 4.89846 22.9577 4.93029 22.99C4.96098 23.0223 5.00873 23.078 5.03601 23.1125C5.06329 23.1481 5.09967 23.1982 5.11672 23.225C5.13377 23.2517 5.16333 23.3029 5.18265 23.3396C5.20198 23.3764 5.22585 23.4287 5.23608 23.4555C5.24631 23.4822 5.26223 23.5267 5.27019 23.5557C5.27815 23.5846 5.28838 23.6358 5.29179 23.6693C5.2952 23.7027 5.29633 23.7594 5.29406 23.7951L5.28951 23.8597L5.2645 23.8697C5.25086 23.8753 5.21676 23.8842 5.18834 23.8897C5.16105 23.8953 5.09171 23.902 5.03601 23.9042C4.9803 23.9064 4.88822 23.9053 4.83138 23.902C4.77568 23.8986 4.69497 23.8886 4.65404 23.8819C4.61312 23.8741 4.53354 23.8563 4.4767 23.8407C4.42099 23.8251 4.33915 23.7995 4.29595 23.7839C4.25275 23.7672 4.18568 23.7372 4.14589 23.7171C4.1061 23.6971 4.04927 23.6637 4.01857 23.6448C3.98788 23.6247 3.93331 23.5846 3.8958 23.5557C3.85828 23.5267 3.78439 23.4588 3.72982 23.4031C3.67526 23.3486 3.59909 23.265 3.56158 23.2183C3.52293 23.1715 3.46609 23.098 3.43539 23.0546C3.4047 23.0123 3.34899 22.9343 3.31148 22.8831C3.27397 22.8319 3.22168 22.7584 3.19325 22.7194C3.16483 22.6804 3.07616 22.5591 2.99432 22.4488C2.9136 22.3386 2.81584 22.2038 2.77832 22.1482C2.74081 22.0936 2.69192 22.019 2.66919 21.9845C2.64645 21.95 2.61349 21.8954 2.59416 21.8642C2.57484 21.833 2.54528 21.7807 2.52823 21.7484C2.51118 21.7161 2.48389 21.6627 2.46912 21.6292C2.45434 21.5958 2.4316 21.5379 2.41796 21.499C2.40432 21.46 2.38045 21.3754 2.36339 21.3108C2.34634 21.2451 2.32361 21.1682 2.31224 21.1393C2.30087 21.1103 2.27472 21.0558 2.25426 21.0179C2.2338 20.9801 2.1997 20.9199 2.17923 20.8843C2.15877 20.8487 2.11785 20.7852 2.09056 20.744C2.06328 20.7028 2.02804 20.6594 2.01212 20.646L1.9837 20.6226L1.95301 20.6538C1.93596 20.6705 1.90754 20.7061 1.89049 20.7329C1.8723 20.7596 1.84729 20.8075 1.83251 20.8398C1.81887 20.872 1.79613 20.93 1.78363 20.9689C1.77112 21.0079 1.7518 21.0691 1.7427 21.1059C1.73247 21.1426 1.72338 21.1849 1.72224 21.1994C1.71996 21.2139 1.72679 21.2618 1.73702 21.3063C1.74725 21.3497 1.76657 21.4266 1.78249 21.4767C1.79727 21.5268 1.82569 21.607 1.84388 21.6571C1.86207 21.7072 1.9064 21.8041 1.94164 21.8742C1.97688 21.9444 2.03713 22.0524 2.07465 22.1147C2.1133 22.1771 2.18492 22.2885 2.2338 22.362C2.28268 22.4354 2.39181 22.5891 2.47594 22.7027C2.56006 22.8163 2.66123 22.9543 2.70102 23.01C2.74081 23.0646 2.82607 23.1826 2.88973 23.2706L3.00569 23.432L3.01023 23.4944C3.01251 23.5289 3.01251 23.5735 3.0091 23.5935L3.00341 23.6303L2.92156 23.6481C2.87609 23.6581 2.79879 23.6726 2.74763 23.6793C2.69648 23.6859 2.59417 23.6982 2.51913 23.706C2.44411 23.7138 2.3202 23.7227 2.24289 23.7271C2.16559 23.7305 2.05077 23.7327 1.98711 23.7294C1.92345 23.7271 1.80522 23.7193 1.72451 23.7115C1.6438 23.7049 1.52785 23.6926 1.46532 23.6848C1.40393 23.677 1.29253 23.6626 1.21864 23.6514C1.14474 23.6403 1.06858 23.6269 1.04811 23.6213C1.02765 23.6158 0.977632 23.5935 0.934436 23.5712C0.892375 23.5501 0.835536 23.5178 0.809388 23.5011C0.783241 23.4844 0.744589 23.4554 0.724127 23.4365C0.703665 23.4176 0.678655 23.3875 0.668423 23.3686C0.657055 23.3496 0.637729 23.3062 0.624089 23.2706C0.610448 23.2361 0.59226 23.1771 0.583166 23.1403C0.572934 23.1036 0.561566 23.039 0.555882 22.9967C0.550198 22.9543 0.541104 22.8764 0.53542 22.8229C0.529736 22.7695 0.521778 22.6559 0.518368 22.5691C0.513821 22.4611 0.513821 22.3519 0.518368 22.2183C0.522915 22.1114 0.527462 21.951 0.529736 21.8608C0.532009 21.7707 0.530873 21.5635 0.526326 21.3998C0.521778 21.2362 0.513821 21.0023 0.508137 20.8787C0.502453 20.7562 0.489948 20.5335 0.480854 20.3843C0.471759 20.2351 0.461528 20.0525 0.456981 19.9767C0.452434 19.901 0.445613 19.7095 0.439929 19.5491C0.431971 19.3365 0.430834 19.2229 0.436518 19.1282C0.439929 19.057 0.445613 18.9746 0.447886 18.9456C0.45016 18.9167 0.458118 18.8587 0.464938 18.8175C0.471759 18.7763 0.485401 18.7118 0.495632 18.6739C0.505864 18.636 0.524052 18.577 0.537694 18.5425C0.551335 18.508 0.578617 18.449 0.599082 18.4133C0.619544 18.3766 0.659332 18.3187 0.686615 18.2831C0.713898 18.2474 0.761643 18.1929 0.793475 18.1617C0.825306 18.1305 0.871913 18.0882 0.898062 18.067C0.924208 18.047 0.97309 18.0113 1.00719 17.9902C1.0413 17.9679 1.10723 17.9289 1.15384 17.9033C1.20045 17.8777 1.32777 17.8087 1.43691 17.7508C1.54604 17.6929 1.69269 17.6127 1.76431 17.5726C1.83592 17.5325 1.93369 17.4724 1.98257 17.4401C2.03145 17.4078 2.10421 17.3555 2.14627 17.3232C2.18719 17.2909 2.26109 17.2274 2.30883 17.1807C2.35771 17.135 2.42365 17.0671 2.45661 17.0303C2.48958 16.9936 2.53846 16.9346 2.56688 16.9C2.59417 16.8655 2.6476 16.7931 2.68284 16.7397C2.71922 16.6862 2.77265 16.6027 2.80107 16.5526C2.82949 16.5025 2.87723 16.4157 2.90565 16.3589C2.93407 16.3021 2.97727 16.213 3.00001 16.1618C3.02275 16.1105 3.05799 16.0293 3.07731 15.9814C3.09663 15.9335 3.13074 15.8422 3.15234 15.7776C3.17394 15.713 3.20463 15.6161 3.22055 15.5605C3.23646 15.5059 3.26261 15.3934 3.27852 15.3121C3.29558 15.2309 3.3149 15.1228 3.32286 15.0727C3.33082 15.0226 3.34218 14.9324 3.35014 14.8734C3.35696 14.8144 3.36833 14.7086 3.37401 14.6396C3.3797 14.5694 3.38879 14.4191 3.39334 14.3055C3.40016 14.1619 3.4013 14.0505 3.39675 13.9414C3.39334 13.8557 3.38766 13.6908 3.38425 13.5773C3.3797 13.4637 3.3706 13.2532 3.36378 13.1096C3.35582 12.966 3.34218 12.731 3.33309 12.5851C3.32399 12.4404 3.31263 12.2143 3.30922 12.0841C3.30581 11.9538 3.29898 11.6732 3.29557 11.4594C3.29103 11.1899 3.28534 11.0463 3.27852 10.985C3.27284 10.9371 3.26147 10.8636 3.25465 10.8213C3.24669 10.779 3.23305 10.7133 3.22396 10.6743C3.21486 10.6353 3.18872 10.5518 3.16712 10.4872C3.14552 10.4227 3.11482 10.3425 3.09891 10.3068C3.08299 10.2723 3.05685 10.2167 3.03979 10.1832C3.02274 10.1498 2.99205 10.0942 2.97159 10.0596C2.95112 10.0251 2.90792 9.9572 2.8761 9.90932C2.84426 9.86144 2.78742 9.78015 2.74991 9.72893C2.7124 9.67771 2.63623 9.57526 2.57939 9.50177C2.52369 9.42828 2.39296 9.26125 2.28951 9.13096C2.18606 9.00067 2.0235 8.79467 1.92687 8.67329C1.83138 8.55191 1.68018 8.36596 1.59266 8.26017C1.50513 8.15439 1.38008 7.9996 1.31301 7.9161C1.24707 7.8337 1.15272 7.71343 1.10383 7.64885C1.05495 7.58427 0.975375 7.47848 0.92763 7.41167C0.879886 7.34597 0.791215 7.21791 0.729827 7.12772C0.669577 7.03752 0.600232 6.93396 0.577495 6.89722C0.554757 6.86047 0.509285 6.78587 0.477456 6.73019C0.445625 6.67562 0.388785 6.57095 0.351273 6.49969C0.314895 6.42842 0.26715 6.33043 0.246689 6.28255C0.226226 6.23466 0.197806 6.16674 0.185301 6.13222C0.171659 6.0977 0.150061 6.03312 0.136418 5.98857C0.122775 5.94403 0.0989025 5.86052 0.0841245 5.8015C0.0693459 5.74248 0.0477469 5.64227 0.0375146 5.57768C0.0261465 5.5131 0.0136416 5.42067 0.0090944 5.37056C0.00341047 5.316 0 5.17458 0 5.01312C0 4.86279 0.00341047 4.7069 0.00795767 4.65568C0.0125049 4.60557 0.022736 4.51871 0.0295569 4.46192C0.0375146 4.40513 0.0534297 4.30714 0.0670724 4.24478C0.0795773 4.18243 0.109134 4.06996 0.130733 3.99424C0.153469 3.91963 0.187572 3.81273 0.208034 3.75817C0.228497 3.70361 0.260328 3.62009 0.279651 3.57332C0.298977 3.52656 0.337629 3.43636 0.36605 3.37289C0.39447 3.30942 0.452448 3.18804 0.495644 3.10341C0.537705 3.01878 0.595682 2.90966 0.622966 2.85955C0.650249 2.80944 0.697994 2.73038 0.726415 2.6825C0.755971 2.63462 0.808264 2.55222 0.843504 2.49988C0.878744 2.44643 0.940132 2.35958 0.978782 2.30613C1.01743 2.25268 1.08791 2.16137 1.13566 2.10235C1.18227 2.04333 1.25844 1.95314 1.30504 1.90191C1.35051 1.85069 1.421 1.77608 1.45965 1.736C1.49944 1.69591 1.57901 1.62131 1.63699 1.57008C1.69497 1.51886 1.77795 1.44871 1.82115 1.4153C1.86435 1.38189 1.92914 1.33401 1.96552 1.30952C2.0019 1.28502 2.06783 1.24382 2.11217 1.21821C2.15651 1.1926 2.24859 1.14471 2.31566 1.11131C2.38273 1.07902 2.47595 1.03893 2.52142 1.02222C2.56689 1.00552 2.67602 0.96989 2.76356 0.943165L2.92271 0.895283H3.01593C3.06708 0.895283 3.11142 0.89751 3.11483 0.900851C3.11824 0.904191 3.12051 0.948733 3.12051 1.00107V1.09572L3.06026 1.18592C3.02729 1.23602 2.96591 1.32845 2.92385 1.39303C2.88178 1.45762 2.8113 1.57008 2.76583 1.64358C2.72036 1.71707 2.65329 1.82954 2.61577 1.89412C2.57826 1.9576 2.52597 2.05002 2.49982 2.09679C2.47367 2.14467 2.41911 2.24711 2.38045 2.32395C2.34066 2.40078 2.29292 2.49877 2.27359 2.54109C2.25427 2.5834 2.2213 2.6569 2.20084 2.70366C2.18037 2.75043 2.14627 2.83395 2.12581 2.8874C2.10535 2.94085 2.07124 3.03438 2.05078 3.09563C2.03032 3.15576 2.0019 3.24595 1.98712 3.29606C1.97234 3.34617 1.94847 3.43414 1.93369 3.49316C1.91891 3.55218 1.89845 3.63792 1.88822 3.68358C1.87799 3.72923 1.86889 3.77711 1.86662 3.79047C1.86435 3.80384 1.86207 3.81943 1.8598 3.82611C1.85753 3.83279 1.85412 3.84838 1.85298 3.86063C1.85184 3.87288 1.84843 3.89403 1.84616 3.90739C1.84388 3.92076 1.84161 3.9408 1.83934 3.95416C1.83706 3.96752 1.83365 3.98868 1.83138 4.00204C1.82911 4.01541 1.8257 4.03768 1.82456 4.04993C1.82342 4.06329 1.82001 4.09335 1.81774 4.11674C1.81546 4.14012 1.81205 4.17798 1.81092 4.20025C1.80864 4.22253 1.80523 4.26484 1.80296 4.29379C1.80069 4.32274 1.79841 4.41183 1.79955 4.49089C1.80069 4.56995 1.8041 4.67908 1.80864 4.73475C1.81319 4.78932 1.82001 4.87506 1.8257 4.92517C1.83138 4.97528 1.84616 5.07549 1.85866 5.14899C1.87117 5.22248 1.8939 5.33606 1.90982 5.40287C1.92573 5.46857 1.95302 5.57436 1.97121 5.63783C1.98939 5.7013 2.02236 5.80263 2.0451 5.86499C2.0667 5.92735 2.10421 6.022 2.12809 6.07767C2.15196 6.13224 2.1963 6.22689 2.22699 6.28591C2.25768 6.34492 2.31111 6.43957 2.34635 6.49636C2.38046 6.55204 2.43389 6.63333 2.46458 6.67564C2.49527 6.71796 2.54302 6.78143 2.5703 6.81595C2.59758 6.85047 2.65215 6.91394 2.6908 6.95625C2.72945 6.99857 2.79652 7.06761 2.84086 7.10992C2.88519 7.15224 2.94658 7.20791 2.97614 7.23352C3.00569 7.25913 3.0614 7.30479 3.09891 7.33374C3.13643 7.36269 3.1944 7.40723 3.22851 7.43062C3.26261 7.45511 3.32627 7.49854 3.37174 7.52861C3.41722 7.55867 3.48997 7.60433 3.53544 7.63105C3.57978 7.65778 3.64003 7.6923 3.66959 7.70789C3.69801 7.72348 3.76962 7.76134 3.82646 7.7914C3.88444 7.82147 3.98562 7.87158 4.05382 7.90275C4.12089 7.93393 4.21752 7.97625 4.26868 7.9974C4.31983 8.01856 4.41305 8.05531 4.47671 8.0798C4.54037 8.1043 4.65746 8.14439 4.7359 8.17111C4.81434 8.19673 4.95416 8.23904 5.04624 8.26465C5.13832 8.29026 5.28497 8.32812 5.37364 8.34817C5.46118 8.36821 5.59305 8.39716 5.66693 8.41164C5.73969 8.42611 5.86133 8.44838 5.93635 8.46175C6.01138 8.47511 6.12165 8.49293 6.1819 8.50183C6.24215 8.51074 6.34901 8.52633 6.42063 8.53524C6.49111 8.54415 6.60366 8.55751 6.66845 8.5653C6.73439 8.5731 6.86853 8.58646 6.96855 8.59537C7.06745 8.60428 7.23343 8.61764 7.33687 8.62544C7.44031 8.63323 7.62675 8.64437 7.75294 8.65216C7.87799 8.65884 8.08261 8.66998 8.20652 8.67554C8.33044 8.68111 8.51006 8.68891 8.60554 8.69225C8.70103 8.69559 8.92043 8.70227 9.09324 8.70561C9.26604 8.70895 9.53658 8.71563 9.6946 8.71786C9.89468 8.7212 10.0982 8.7212 10.3585 8.71452C10.5654 8.71006 10.8155 8.70227 10.9155 8.69893C11.0144 8.69559 11.1793 8.68779 11.2804 8.68223C11.3816 8.67666 11.5499 8.66664 11.6556 8.65884C11.7602 8.65105 11.9364 8.63768 12.0478 8.62878C12.1581 8.61987 12.4264 8.59537 12.6446 8.57533C12.8617 8.55528 13.1914 8.52522 13.3767 8.50851C13.562 8.49181 13.7735 8.47177 13.8474 8.46509C13.9201 8.45729 14.0281 8.44616 14.0861 8.43836C14.1441 8.43057 14.2418 8.4172 14.3043 8.4083C14.3657 8.39939 14.4817 8.37934 14.5601 8.36487C14.6386 8.35039 14.7647 8.32367 14.8398 8.30474C14.9148 8.28692 14.9978 8.26576 15.0239 8.25797C15.0501 8.25018 15.1058 8.23347 15.1467 8.22122C15.1876 8.20786 15.2695 8.18114 15.3275 8.16109C15.3854 8.14105 15.5048 8.09539 15.5935 8.06087C15.681 8.02635 15.7936 7.97847 15.8424 7.9562C15.8913 7.93393 15.9584 7.89718 15.9925 7.87491C16.0289 7.85153 16.0834 7.80587 16.1289 7.76244L16.2039 7.68895H16.4051L16.4279 7.71011C16.4404 7.72125 16.4745 7.74908 16.5052 7.77135C16.5347 7.79362 16.5859 7.82814 16.6177 7.84819C16.6496 7.86823 16.7144 7.90609 16.761 7.93281C16.8076 7.95954 16.9201 8.01633 17.0099 8.05976C17.0997 8.10318 17.2384 8.16777 17.3169 8.2034C17.3953 8.23904 17.5033 8.28803 17.5556 8.31142C17.6079 8.3348 17.7386 8.39382 17.8455 8.4417C17.9523 8.48958 18.1024 8.55751 18.1797 8.59425C18.257 8.62989 18.4878 8.74124 18.6946 8.84146C18.9004 8.94168 19.1107 9.04078 19.1619 9.06305C19.213 9.08532 19.2903 9.11761 19.3358 9.13543C19.3813 9.15325 19.4574 9.17997 19.5063 9.19445C19.5552 9.20892 19.6234 9.22785 19.6587 9.23565C19.6939 9.24344 19.7621 9.25569 19.8121 9.26237C19.861 9.26905 19.9554 9.28019 20.0202 9.28576C20.1157 9.29467 20.1543 9.29578 20.218 9.2891C20.2623 9.28576 20.3237 9.27796 20.3555 9.2724C20.3874 9.26683 20.4351 9.26126 20.4635 9.25903C20.4908 9.25681 20.5408 9.25681 20.5726 9.25903L20.6318 9.26349L20.667 9.54521C20.6863 9.69999 20.7113 9.91491 20.7227 10.0229C20.7341 10.1309 20.7534 10.3381 20.767 10.4839C20.7795 10.6287 20.7943 10.7868 20.7977 10.8347C20.8011 10.8826 20.808 11.0028 20.8125 11.1019C20.8171 11.2011 20.8182 11.3402 20.8148 11.4126C20.8125 11.4839 20.8091 11.5863 20.808 11.6398C20.8068 11.6932 20.8034 11.7611 20.8023 11.7901C20.8 11.819 20.7977 11.8614 20.7955 11.8836C20.7932 11.9059 20.7909 11.9371 20.7886 11.9538C20.7864 11.9705 20.7841 11.9961 20.7818 12.0106C20.7795 12.0251 20.7773 12.0473 20.775 12.0607C20.7727 12.074 20.7704 12.0919 20.7682 12.1008C20.767 12.1097 20.7636 12.1308 20.7614 12.1464C20.7591 12.1631 20.75 12.211 20.7398 12.2533C20.7307 12.2956 20.7125 12.3691 20.6988 12.417C20.6863 12.4649 20.6602 12.5473 20.642 12.6008C20.6238 12.6542 20.5942 12.7355 20.5761 12.7811C20.5579 12.8268 20.5249 12.907 20.5033 12.9582C20.4806 13.0094 20.4396 13.0996 20.4112 13.1586C20.3828 13.2176 20.3339 13.3134 20.3021 13.3724C20.2703 13.4314 20.2168 13.5239 20.1827 13.5795C20.1486 13.6341 20.0963 13.7154 20.0668 13.7599C20.0372 13.8045 19.9861 13.8757 19.9542 13.9203C19.9224 13.9648 19.8531 14.0539 19.8008 14.1207C19.7485 14.1864 19.6678 14.2844 19.6223 14.3379C19.5768 14.3913 19.5131 14.4648 19.4802 14.5015C19.4472 14.5383 19.3676 14.6229 19.304 14.6908C19.2403 14.7577 19.146 14.8501 19.0948 14.8957C19.0437 14.9414 18.972 15.0037 18.9345 15.036C18.897 15.0683 18.8186 15.1329 18.7606 15.1786C18.7026 15.2253 18.6094 15.2988 18.5537 15.3423C18.498 15.3857 18.3684 15.4815 18.2672 15.5561C18.166 15.6307 18.0103 15.742 17.9216 15.8044C17.833 15.8667 17.709 15.9514 17.6454 15.9937C17.5829 16.036 17.4692 16.1117 17.3942 16.1629C17.3191 16.2142 17.2179 16.2854 17.1691 16.3211C17.1202 16.3567 17.0417 16.4179 16.9951 16.4558C16.9485 16.4937 16.8758 16.5571 16.8337 16.595C16.7916 16.6328 16.7223 16.7019 16.6791 16.7464C16.6359 16.791 16.5791 16.8533 16.5541 16.8834C16.5279 16.9135 16.4802 16.9736 16.4483 17.017C16.4165 17.0593 16.3642 17.1351 16.3324 17.184C16.3005 17.233 16.2551 17.3099 16.2301 17.3555C16.2051 17.4001 16.1675 17.4736 16.1471 17.5181C16.1266 17.5626 16.1005 17.6228 16.0891 17.6528C16.0777 17.6829 16.0607 17.7286 16.0527 17.7553C16.0436 17.782 16.0289 17.8299 16.0198 17.8622C16.0107 17.8945 15.9959 17.9479 15.9891 17.9813C15.9811 18.0147 15.9731 18.047 15.972 18.0548C15.9709 18.0626 15.9675 18.0816 15.9652 18.0983C15.9629 18.115 15.9595 18.1339 15.9572 18.1406C15.955 18.1473 15.9527 18.164 15.9504 18.1773C15.9493 18.1907 15.9459 18.213 15.9436 18.2252C15.9413 18.2386 15.939 18.2608 15.9368 18.2753C15.9345 18.2898 15.9322 18.3165 15.9299 18.3354C15.9277 18.3533 15.9254 18.3822 15.9231 18.3989C15.922 18.4156 15.9186 18.4501 15.9163 18.4757C15.914 18.5014 15.9106 18.5414 15.9095 18.5659C15.9083 18.5893 15.9038 18.6439 15.9015 18.6862C15.8981 18.7285 15.897 18.8588 15.8981 18.9768C15.8993 19.0949 15.9027 19.2586 15.9072 19.3409C15.9106 19.4233 15.9209 19.5726 15.9277 19.6717C15.9356 19.7708 15.947 19.9133 15.955 19.989C15.9629 20.0648 15.9743 20.1783 15.9822 20.2429C15.9902 20.3075 16.0073 20.4345 16.0198 20.5269C16.0334 20.6182 16.0539 20.7574 16.0675 20.8342C16.0811 20.911 16.105 21.0435 16.1221 21.1282C16.1391 21.2128 16.163 21.3241 16.1755 21.3754C16.188 21.4266 16.2153 21.5257 16.2357 21.5958C16.2562 21.666 16.2903 21.7718 16.3119 21.833C16.3335 21.8932 16.3665 21.9811 16.3847 22.0268C16.404 22.0724 16.4392 22.1515 16.4631 22.2027C16.487 22.2539 16.5268 22.3319 16.5518 22.3764C16.5768 22.421 16.6245 22.5012 16.6598 22.5546C16.6939 22.608 16.7507 22.6893 16.7837 22.735C16.8178 22.7806 16.8883 22.8675 16.9394 22.9287C16.9917 22.9889 17.0815 23.098 17.1395 23.1693C17.1975 23.2405 17.2657 23.3274 17.2918 23.3608C17.318 23.3942 17.36 23.4543 17.3862 23.4933C17.4123 23.5323 17.4453 23.5868 17.4589 23.6136C17.4783 23.6525 17.4851 23.677 17.4896 23.7249C17.493 23.7606 17.4942 23.8129 17.4908 23.8496L17.4851 23.9131L17.4601 23.9254C17.4464 23.932 17.4067 23.9432 17.3714 23.9499C17.3362 23.9565 17.2634 23.9677 17.21 23.9721C17.1554 23.9777 17.0724 23.9855 17.0258 23.9888C16.9792 23.9922 16.8564 23.9966 16.753 23.9977C16.6495 23.9989 16.537 24 16.5006 23.9977L16.4927 24ZM18.5025 23.9711C18.4707 23.9677 18.3775 23.9599 18.2945 23.9543C18.2127 23.9488 18.1444 23.9432 18.1433 23.9421C18.1422 23.941 18.1388 23.902 18.1342 23.8541C18.1297 23.8029 18.1183 23.735 18.1069 23.6893C18.0956 23.6459 18.0728 23.5757 18.0546 23.5323C18.0376 23.4889 18.0092 23.4276 17.9921 23.3965C17.9751 23.3653 17.933 23.2974 17.8989 23.2461C17.8648 23.1949 17.8034 23.1092 17.7625 23.0557C17.7216 23.0023 17.6363 22.8943 17.5715 22.8152C17.5067 22.7361 17.4305 22.6448 17.4021 22.6114C17.3726 22.578 17.3225 22.5157 17.2884 22.4722C17.2555 22.4288 17.2043 22.3564 17.1759 22.3119C17.1475 22.2673 17.1009 22.1883 17.0736 22.1371C17.0463 22.0858 17.0065 22.0012 16.9838 21.95C16.961 21.8988 16.9292 21.8164 16.9122 21.7674C16.8951 21.7184 16.869 21.6371 16.8542 21.587C16.8394 21.5369 16.8167 21.4534 16.803 21.4021C16.7894 21.3509 16.7712 21.2741 16.7621 21.2306C16.753 21.1872 16.7325 21.0859 16.7178 21.0035C16.703 20.9211 16.6814 20.7964 16.67 20.724C16.6587 20.6527 16.6382 20.5069 16.6257 20.4C16.612 20.2931 16.5939 20.1238 16.5848 20.0225C16.5757 19.9211 16.5632 19.7686 16.5575 19.6817C16.5518 19.596 16.5427 19.3967 16.537 19.2397C16.5291 18.9947 16.5291 18.9179 16.537 18.6985C16.5427 18.5582 16.5518 18.3923 16.5575 18.3299C16.5632 18.2675 16.5745 18.1762 16.5814 18.1261C16.5882 18.076 16.6041 18.0003 16.6143 17.9558C16.6257 17.9112 16.6427 17.8522 16.653 17.8221C16.6632 17.7932 16.6814 17.7453 16.695 17.7152C16.7075 17.6852 16.7371 17.625 16.761 17.5816C16.7848 17.5371 16.8212 17.4736 16.8428 17.4391C16.8644 17.4046 16.9087 17.3411 16.9417 17.2988C16.9747 17.2565 17.027 17.193 17.0588 17.1574C17.0906 17.1228 17.152 17.0616 17.1941 17.0226C17.2373 16.9836 17.2964 16.9313 17.326 16.9068C17.3555 16.8823 17.426 16.8289 17.4828 16.7877C17.5385 16.7465 17.6352 16.6785 17.6977 16.6373C17.8068 16.5638 17.8114 16.5616 17.858 16.556C17.8841 16.5527 17.9307 16.5527 17.9614 16.5549L18.0171 16.5594L18.0217 16.6217C18.0239 16.6563 18.0239 16.7019 18.0217 16.7231C18.0183 16.7442 18.0149 16.8333 18.0137 16.9213C18.0126 17.0093 18.0103 17.1239 18.008 17.1752C18.0058 17.2264 18.0035 17.3088 18.0012 17.3589C17.9989 17.409 17.9967 17.4847 17.9944 17.5293C17.9921 17.5738 17.9887 17.6495 17.9876 17.6996C17.9853 17.7498 17.983 17.8166 17.9807 17.85C17.9796 17.8834 17.9762 17.9524 17.9739 18.0036C17.9717 18.0549 17.9682 18.1306 17.9671 18.1707C17.9648 18.2108 17.9626 18.2831 17.9603 18.331C17.958 18.3789 17.9557 18.4524 17.9535 18.4947C17.9512 18.537 17.9489 18.6072 17.9466 18.6517C17.9444 18.6963 17.9421 18.772 17.9398 18.8221C17.9376 18.8722 17.9353 18.9479 17.933 18.9925C17.9307 19.037 17.9285 19.1083 17.9262 19.1528C17.9239 19.1974 17.9216 19.2686 17.9194 19.3132C17.9171 19.3577 17.9148 19.4201 17.9125 19.4535C17.9114 19.4869 17.908 19.547 17.9057 19.5871C17.9034 19.6272 17.9 19.6873 17.8989 19.7207C17.8978 19.7541 17.8944 19.812 17.8921 19.851C17.8898 19.89 17.8864 19.9557 17.8841 19.998C17.8818 20.0403 17.8796 20.0882 17.8807 20.1049C17.8807 20.1216 17.8773 20.1773 17.8739 20.2285C17.8682 20.2964 17.8682 20.3899 17.8739 20.5692C17.8784 20.7051 17.8864 20.8654 17.8921 20.9267C17.8978 20.9868 17.9069 21.0725 17.9125 21.1171C17.9182 21.1616 17.9273 21.2262 17.933 21.2607C17.9387 21.2952 17.9546 21.3732 17.9671 21.4344C17.9808 21.4946 18.0058 21.5926 18.0239 21.6516C18.0421 21.7106 18.0706 21.793 18.0876 21.8353C18.1047 21.8776 18.1319 21.9411 18.149 21.9756C18.166 22.0101 18.2002 22.0714 18.2252 22.1115C18.2502 22.1515 18.2922 22.2139 18.3184 22.2484C18.3445 22.2829 18.3843 22.3308 18.4048 22.3553C18.4252 22.3787 18.4673 22.4244 18.4969 22.4544C18.5264 22.4856 18.5833 22.5391 18.6219 22.5736C18.6606 22.6081 18.7333 22.666 18.7822 22.7016C18.8311 22.7373 18.9209 22.7996 18.9811 22.8397C19.0414 22.8798 19.1176 22.931 19.1517 22.9555C19.1858 22.9789 19.2449 23.0257 19.2847 23.058C19.3244 23.0903 19.3915 23.1526 19.4347 23.1961C19.4779 23.2395 19.5336 23.3007 19.5586 23.3319C19.5836 23.3631 19.6257 23.4199 19.653 23.4577C19.6791 23.4967 19.7189 23.5624 19.7405 23.6058C19.7746 23.6738 19.7803 23.6905 19.7848 23.7372C19.7871 23.7673 19.7871 23.8152 19.7848 23.8441C19.7803 23.8965 19.7803 23.8976 19.7587 23.9043C19.7473 23.9076 19.711 23.9154 19.6791 23.921C19.6473 23.9265 19.5518 23.9343 19.4665 23.9388C19.3574 23.9443 19.2699 23.9443 19.1676 23.9388C19.0391 23.9321 19.0096 23.9332 18.9061 23.9443C18.8425 23.951 18.7697 23.9599 18.7458 23.9633C18.722 23.9666 18.6697 23.9711 18.6299 23.9733C18.5901 23.9755 18.5321 23.9733 18.5003 23.97L18.5025 23.9711ZM19.9781 8.67107C19.9292 8.66773 19.8485 8.65993 19.7985 8.65437C19.7485 8.6488 19.6712 8.63544 19.6268 8.6243C19.5825 8.61316 19.5166 8.59423 19.4825 8.58087C19.4472 8.56751 19.3767 8.53856 19.3244 8.51629C19.2721 8.49402 19.1551 8.43946 19.0652 8.39491C18.9754 8.35149 18.7924 8.26352 18.6594 8.19893C18.5264 8.13435 18.3798 8.0642 18.3332 8.04193C18.2854 8.02077 18.1251 7.94728 17.9751 7.88046C17.825 7.81254 17.609 7.71566 17.4942 7.66332C17.3805 7.61099 17.2361 7.54306 17.1736 7.513C17.1111 7.48293 17.0315 7.44173 16.9963 7.4228C16.961 7.40387 16.8974 7.36601 16.8553 7.33817C16.8042 7.30476 16.7678 7.27581 16.745 7.24909L16.7121 7.21011L16.7075 7.13105C16.7052 7.08763 16.7064 7.02304 16.7098 6.98852C16.7132 6.954 16.7246 6.90055 16.7337 6.8716C16.7428 6.84265 16.761 6.7892 16.7746 6.75468C16.7882 6.72016 16.8292 6.6166 16.8667 6.52418C16.9042 6.43287 16.961 6.28365 16.9929 6.19345C17.0247 6.10324 17.0588 6.00303 17.069 5.96962C17.0793 5.93622 17.0963 5.89168 17.1077 5.87052C17.1202 5.84825 17.1395 5.78923 17.1531 5.73021L17.1782 5.62888L17.2191 5.62443C17.2418 5.6222 17.2918 5.62109 17.3316 5.62331C17.3714 5.62554 17.4339 5.63111 17.4714 5.63668C17.509 5.64113 17.584 5.64892 17.6374 5.65338C17.7113 5.65895 17.7602 5.65895 17.842 5.65338C17.9012 5.64892 17.9887 5.64002 18.0376 5.63334C18.0865 5.62665 18.1592 5.61441 18.199 5.60661C18.2388 5.59882 18.3161 5.581 18.3718 5.56652C18.4264 5.55205 18.5082 5.52644 18.5525 5.50973C18.5969 5.49303 18.6719 5.46297 18.7197 5.44292C18.7663 5.42177 18.8436 5.38391 18.889 5.35718C18.9356 5.33046 18.9993 5.29148 19.03 5.27033C19.0607 5.24917 19.1209 5.20351 19.163 5.16899C19.2051 5.13448 19.2721 5.07212 19.3131 5.03091C19.354 4.98971 19.4097 4.92736 19.4358 4.89172C19.4631 4.8572 19.5075 4.79262 19.5359 4.74919C19.5643 4.70576 19.612 4.62336 19.6416 4.56546C19.6712 4.50867 19.7121 4.42181 19.7325 4.37504C19.753 4.32716 19.7882 4.24031 19.811 4.18129C19.8337 4.12227 19.886 3.97862 19.9281 3.86059C19.9701 3.74256 20.0156 3.61227 20.0304 3.56997C20.0452 3.52765 20.0736 3.4408 20.094 3.37621C20.1145 3.31163 20.1475 3.20361 20.1657 3.13569C20.185 3.06776 20.2123 2.96086 20.227 2.89851C20.2418 2.83615 20.2782 2.66578 20.3089 2.52102C20.3385 2.37627 20.3714 2.22818 20.3805 2.19255C20.3896 2.15691 20.4078 2.10235 20.4192 2.0734C20.4305 2.04445 20.4567 1.99656 20.476 1.96872C20.4953 1.94089 20.5215 1.90302 20.534 1.88521C20.5465 1.86739 20.5635 1.83287 20.5726 1.80838L20.5885 1.76383L20.5692 1.71373C20.559 1.68589 20.5397 1.64914 20.5272 1.63021C20.5147 1.61239 20.4885 1.58233 20.4703 1.56451C20.451 1.54669 20.4203 1.52108 20.3998 1.50884C20.3794 1.49659 20.3441 1.47877 20.3203 1.46986L20.2759 1.45316L20.2327 1.46875C20.2089 1.47766 20.1748 1.49325 20.1554 1.50327C20.1372 1.51329 20.1054 1.5389 20.0838 1.55783C20.0622 1.57787 20.0213 1.62687 19.9906 1.66807C19.961 1.70927 19.9213 1.76829 19.9042 1.79947C19.8871 1.83065 19.8633 1.87519 19.853 1.89968C19.8428 1.92307 19.8223 1.97429 19.8087 2.01327C19.7951 2.05224 19.7746 2.11682 19.7644 2.15691C19.753 2.197 19.736 2.26493 19.7269 2.30724C19.7166 2.34955 19.7075 2.39632 19.7064 2.4108C19.7041 2.42527 19.7018 2.43975 19.6996 2.44309C19.6973 2.44643 19.695 2.45868 19.6928 2.47204C19.6916 2.48429 19.6757 2.56224 19.6586 2.64352C19.6416 2.72481 19.6109 2.85955 19.5904 2.94196C19.57 3.02436 19.5393 3.13905 19.5222 3.19584C19.5052 3.25263 19.4699 3.36398 19.4427 3.44305C19.4165 3.52211 19.3597 3.68245 19.3176 3.80049C19.2755 3.91852 19.2255 4.05326 19.2073 4.10115C19.1891 4.14903 19.1528 4.23366 19.1266 4.29045C19.1016 4.34724 19.0584 4.42853 19.0334 4.47084C19.0073 4.51315 18.9766 4.55992 18.9652 4.57551C18.9538 4.58999 18.9277 4.62117 18.9061 4.64455C18.8856 4.66793 18.8481 4.70245 18.8242 4.72138C18.8004 4.74031 18.756 4.77261 18.7265 4.79153C18.6969 4.81047 18.6321 4.8461 18.5832 4.86948C18.5344 4.89287 18.4616 4.92293 18.4218 4.93518C18.382 4.94743 18.3252 4.96413 18.2956 4.97193C18.2661 4.97972 18.207 4.99086 18.166 4.99865C18.1251 5.00645 18.0467 5.01536 17.9921 5.01981C17.9375 5.02427 17.8216 5.02761 17.7329 5.02761C17.6454 5.02761 17.534 5.02427 17.4874 5.01981C17.4408 5.01536 17.3714 5.00756 17.3339 5.00199C17.2964 4.99643 17.2293 4.98306 17.1838 4.97193C17.1384 4.96079 17.0724 4.94298 17.0372 4.93184C17.0019 4.92071 16.9394 4.89844 16.8996 4.88285C16.8598 4.86726 16.795 4.8383 16.7564 4.81937C16.7177 4.80044 16.6439 4.76036 16.5938 4.73029C16.5427 4.70023 16.4665 4.65012 16.4233 4.61783C16.3801 4.58553 16.313 4.52763 16.2744 4.48754C16.2289 4.44077 16.1835 4.38398 16.1425 4.32497C16.1084 4.27486 16.0573 4.18689 16.0277 4.12787C15.9982 4.06885 15.9629 3.99202 15.9493 3.95639C15.9356 3.92075 15.9186 3.86619 15.9118 3.83612C15.9049 3.80606 15.8936 3.75261 15.889 3.71809C15.8833 3.68357 15.8777 3.58447 15.8742 3.49761C15.872 3.41187 15.8731 3.27602 15.8777 3.19695C15.8811 3.11789 15.8913 3.01099 15.8993 2.95977C15.9072 2.90855 15.9254 2.81724 15.9402 2.75822C15.955 2.6992 15.98 2.61124 15.9959 2.56447C16.0118 2.5177 16.0402 2.43864 16.0595 2.38853C16.0789 2.33842 16.1164 2.25268 16.1425 2.197C16.1687 2.14132 16.2107 2.05892 16.2357 2.01438C16.2608 1.96984 16.3017 1.9008 16.3267 1.86182C16.3517 1.82285 16.3904 1.76495 16.4131 1.73377C16.4358 1.70259 16.4847 1.63912 16.5222 1.59346C16.5597 1.54781 16.6427 1.45761 16.7064 1.39414C16.77 1.33067 16.8576 1.24827 16.9008 1.21041C16.944 1.17366 16.9963 1.12912 17.0167 1.11242C17.0372 1.09571 17.0929 1.0534 17.1395 1.01888C17.1861 0.984362 17.2736 0.924231 17.3339 0.885257C17.3941 0.846283 17.4839 0.790607 17.5351 0.760541C17.5863 0.730475 17.6749 0.680367 17.7329 0.649189C17.7909 0.618012 17.8921 0.565674 17.958 0.532267C18.0239 0.499975 18.1308 0.449867 18.1956 0.422027C18.2604 0.394189 18.3707 0.349646 18.4411 0.324036C18.5116 0.298425 18.631 0.258337 18.7083 0.234954C18.7856 0.211569 18.9072 0.177051 18.9811 0.159235C19.0539 0.140305 19.1653 0.114694 19.2278 0.102444C19.2903 0.0890822 19.3972 0.0701522 19.4665 0.0590176C19.5359 0.0478821 19.6348 0.0345195 19.6871 0.0289517C19.7394 0.0233841 19.836 0.0155893 19.9019 0.0122487C19.9679 0.00890828 20.0793 0.00334053 20.1509 0.0011136C20.2225 -0.0011136 20.368 8.36284e-08 20.4749 0.00445393C20.5817 0.00890835 20.7261 0.0167029 20.7955 0.0222705C20.8648 0.0278383 20.9705 0.0389736 21.0308 0.0456549C21.091 0.0534497 21.1922 0.0679254 21.2559 0.0779468C21.3195 0.0890823 21.4264 0.110239 21.4946 0.124715C21.5617 0.140304 21.664 0.165915 21.722 0.181505C21.7799 0.198208 21.8766 0.229387 21.938 0.250545C21.9993 0.272816 22.0846 0.305109 22.1289 0.324037C22.1721 0.341854 22.2597 0.38194 22.3222 0.41312C22.3847 0.4443 22.4666 0.486612 22.5041 0.50777C22.5416 0.528927 22.6212 0.577921 22.6803 0.616895C22.7394 0.655869 22.8485 0.731588 22.9224 0.785038C22.9963 0.839602 23.1111 0.929796 23.1793 0.985472C23.2464 1.04115 23.3646 1.13914 23.4419 1.2015C23.5192 1.26497 23.6295 1.35405 23.6875 1.39971C23.7455 1.44536 23.8546 1.52776 23.9296 1.58344C24.0047 1.63911 24.1126 1.71484 24.1695 1.75381C24.2263 1.79278 24.3252 1.85626 24.3878 1.89634C24.4503 1.93643 24.5571 2.00101 24.6242 2.0411C24.6913 2.08119 24.797 2.14132 24.8595 2.17472C24.9209 2.20813 25.0244 2.26158 25.088 2.29165C25.1517 2.32283 25.2404 2.3618 25.2858 2.3785C25.3313 2.39632 25.3995 2.42082 25.4393 2.43307C25.4791 2.44532 25.5507 2.46647 25.5996 2.47872C25.6485 2.49097 25.7292 2.50879 25.7803 2.51881C25.8315 2.52772 25.902 2.53885 25.9372 2.54331C25.9724 2.54776 26.06 2.5511 26.1316 2.5511C26.2214 2.5511 26.2942 2.54553 26.3692 2.53662C26.4283 2.52883 26.5295 2.51324 26.5943 2.50211C26.6977 2.48318 26.7261 2.48095 26.8432 2.48095C26.9615 2.47984 26.9762 2.48206 26.9842 2.49208C26.9899 2.49877 26.9944 2.53885 26.9978 2.59453C27.0001 2.64464 27.0013 2.72147 26.9978 2.76601C26.9956 2.81056 26.9922 2.86066 26.9899 2.87737C26.9888 2.89407 26.9865 2.91189 26.9865 2.91745C26.9865 2.92302 26.9819 2.94864 26.9762 2.97425C26.9706 2.99986 26.9558 3.06333 26.9421 3.11455C26.9285 3.16577 26.9058 3.24818 26.891 3.29828C26.8762 3.34839 26.8455 3.44193 26.8228 3.50874C26.8 3.57444 26.7591 3.68579 26.7307 3.75595C26.7023 3.8261 26.6523 3.93634 26.6193 4.00315C26.5863 4.06885 26.5386 4.15793 26.5124 4.19913C26.4874 4.24033 26.4397 4.30937 26.4078 4.35057C26.376 4.39177 26.3146 4.46415 26.2714 4.50981C26.2282 4.55546 26.1612 4.62116 26.1225 4.65568C26.0839 4.68909 26.0247 4.7392 25.9906 4.76481C25.9577 4.79153 25.8997 4.83273 25.8633 4.85834C25.8269 4.88395 25.7565 4.92961 25.7053 4.9619C25.6541 4.99308 25.578 5.03873 25.5336 5.06323C25.4904 5.08773 25.3995 5.13338 25.3324 5.16679C25.2654 5.19908 25.1721 5.24362 25.1255 5.26367C25.0789 5.28371 24.9868 5.32046 24.9209 5.34384C24.855 5.36722 24.7413 5.40397 24.6685 5.42402C24.5958 5.44406 24.4821 5.47301 24.4162 5.48749C24.3502 5.50196 24.2479 5.52312 24.1877 5.53426C24.1274 5.54539 24.0024 5.56766 23.908 5.58548C23.8148 5.60218 23.6409 5.63447 23.5226 5.65563C23.4044 5.6779 23.2248 5.71353 23.1236 5.7358C23.0225 5.75807 22.8804 5.79148 22.8065 5.8093C22.7337 5.82711 22.62 5.86052 22.5541 5.88168C22.4882 5.90283 22.3984 5.93624 22.3529 5.95517C22.3074 5.9741 22.2449 6.00305 22.2131 6.01975C22.1812 6.03646 22.1244 6.06986 22.0869 6.09325C22.0494 6.11663 21.9937 6.1556 21.963 6.17899C21.9323 6.20237 21.88 6.2458 21.8482 6.27586C21.8152 6.30593 21.7618 6.35938 21.7277 6.3939C21.6947 6.42953 21.6458 6.48521 21.6208 6.51861C21.5946 6.55202 21.556 6.6077 21.5333 6.64333C21.5105 6.67896 21.4753 6.73909 21.4548 6.77695C21.4344 6.81481 21.4037 6.87829 21.3866 6.91837C21.3696 6.95846 21.34 7.03084 21.3218 7.07983C21.3036 7.12883 21.2718 7.22237 21.2513 7.28807C21.2309 7.35376 21.1888 7.50186 21.157 7.61655C21.1251 7.73235 21.0819 7.88825 21.0615 7.96509C21.041 8.04081 21.016 8.12433 21.0058 8.14883C20.9967 8.17332 20.9762 8.21341 20.9614 8.23791C20.9467 8.26241 20.9137 8.30806 20.8876 8.34147C20.8614 8.37376 20.8182 8.42387 20.7898 8.45171C20.7625 8.47955 20.7193 8.51629 20.6943 8.533C20.6693 8.5497 20.6215 8.57754 20.5874 8.59424C20.5533 8.61094 20.5079 8.63099 20.4863 8.63767C20.4647 8.64546 20.4215 8.65548 20.3919 8.65994C20.3624 8.6655 20.2771 8.67107 20.2043 8.67219C20.1316 8.67441 20.0315 8.6733 19.9827 8.66996L19.9781 8.67107Z" fill="white"/>
</svg>
