<svg width="14" height="19" viewBox="0 0 14 19" fill="none" xmlns="http://www.w3.org/2000/svg">
<path d="M6.68504 19C10.3716 19 13.3704 16.0434 13.3704 12.4065C13.3704 8.77061 7.23168 0.724329 6.97208 0.377578L6.68518 0L6.39829 0.377578C6.13585 0.724543 0 8.88485 0 12.4065C0 15.9282 2.99783 19 6.68533 19H6.68504ZM6.68504 1.18461C7.91355 2.85917 12.6573 9.52776 12.6573 12.4065C12.6573 15.6536 9.9793 18.2968 6.68504 18.2968C3.39078 18.2968 0.712745 15.6536 0.712745 12.4065C0.712745 9.52586 5.45643 2.85922 6.68504 1.18461Z" fill="white"/>
<path d="M4.22193 4.57418L6.6849 1.05566L8.44415 3.51863L9.85156 4.57418L10.9071 6.68529L12.3145 9.50011L12.6664 11.9631V14.0742L11.6108 16.1853L9.14786 18.2964H6.33304L4.22193 17.9446L2.11082 16.889L1.05527 15.1297L0.703414 13.3705L0.351562 11.2594L1.75897 8.0927L4.22193 4.57418Z" fill="white"/>
</svg>
