<svg width="17" height="17" viewBox="0 0 17 17" fill="none" xmlns="http://www.w3.org/2000/svg">
<path d="M0.0214844 9.04688V13.8907C0.0214844 15.8786 4.39588 16.9513 8.51003 16.9513C12.6242 16.9513 17.0005 15.8786 17.0005 13.8907V9.04688C15.4467 10.4561 11.8989 11.1863 8.51003 11.1863C5.12112 11.1863 1.57529 10.4561 0.0214844 9.04688Z" fill="white"/>
<path d="M9.77257 7.76389C9.69575 7.88245 9.65883 8.02364 9.66747 8.16583C9.67611 8.30803 9.72983 8.44339 9.8204 8.55119C9.93561 8.70466 10.1054 8.80477 10.2923 8.8295C10.4793 8.85423 10.6682 8.80156 10.8174 8.68306C10.9666 8.56456 11.0639 8.38996 11.088 8.19765C11.112 8.00534 11.0608 7.81108 10.9456 7.65761C10.8672 7.54093 10.7541 7.45363 10.6233 7.4089C10.4924 7.36416 10.351 7.36441 10.2203 7.40961L4.95805 0.178325C4.89849 0.0956841 4.81271 0.0370683 4.71556 0.012626C4.6184 -0.0118164 4.516 -0.000546266 4.42608 0.0444848C4.4059 0.056657 4.3867 0.0704792 4.36867 0.0858177C4.34905 0.0993143 4.33106 0.115172 4.31509 0.133055C4.24959 0.210845 4.21275 0.309834 4.211 0.412727C4.20925 0.515619 4.24271 0.615872 4.30553 0.69597L9.77257 7.76389Z" fill="white"/>
<path d="M7.85237 5.96289L6.79991 7.40757C6.66895 7.36223 6.52721 7.3619 6.39605 7.40663C6.2649 7.45136 6.15143 7.53873 6.07276 7.65557C5.96421 7.80978 5.91833 8.00141 5.94484 8.18983C5.97136 8.37824 6.06818 8.54863 6.21477 8.66485C6.36137 8.78108 6.54622 8.834 6.73011 8.8124C6.91401 8.7908 7.0825 8.69638 7.19984 8.54915C7.28983 8.44105 7.34317 8.30577 7.3518 8.16373C7.36043 8.0217 7.32389 7.88064 7.24768 7.76186L8.24656 6.4707L7.85237 5.96289Z" fill="white"/>
<path d="M8.51003 10.5093C12.6261 10.5093 17.0005 9.43666 17.0005 7.44875C17.0005 5.7541 13.8202 4.72471 10.3298 4.45703L9.70792 5.26401C13.7455 5.46083 16.1777 6.60437 16.1777 7.44875C16.1777 8.37381 13.2614 9.66891 8.51003 9.66891C3.75867 9.66891 0.844315 8.37381 0.844315 7.44875C0.844315 6.60437 3.27645 5.45689 7.31406 5.26401L6.69024 4.45703C3.20182 4.72471 0.0214844 5.7541 0.0214844 7.44875C0.0214844 9.43666 4.39588 10.5093 8.51003 10.5093Z" fill="white"/>
<path d="M12.7135 0.69597C12.778 0.617189 12.8134 0.517506 12.8134 0.414512C12.8134 0.311519 12.778 0.211836 12.7135 0.133055C12.6982 0.115226 12.6809 0.0993652 12.6619 0.0858177C12.6435 0.0709277 12.6243 0.0571276 12.6045 0.0444848C12.5145 -0.000546266 12.4121 -0.0118164 12.315 0.012626C12.2178 0.0370683 12.1321 0.0956841 12.0725 0.178325L8.77734 4.70526L9.18685 5.26817L12.7135 0.69597Z" fill="white"/>
</svg>
