<svg width="16" height="15" viewBox="0 0 16 15" fill="none" xmlns="http://www.w3.org/2000/svg">
<path d="M1.60464 12.8846C1.05564 12.4413 0.624887 11.8785 0.348263 11.2431C0.0716381 10.6076 -0.0428505 9.91789 0.014329 9.23136C0.014329 8.04998 1.31273 6.17233 2.16799 5.34797C3.26307 4.4269 4.56284 3.75821 5.96809 3.39296C6.95254 3.02507 7.90464 2.58187 8.8152 2.06763L10.6466 1.25659C10.9415 0.965826 11.2719 0.710326 11.6306 0.495635C11.8253 0.275633 12.0859 0.118506 12.3768 0.0455906C12.6678 -0.0273252 12.9751 -0.012497 13.2569 0.0880614C13.5388 0.18862 13.7816 0.370036 13.9524 0.607677C14.1232 0.845317 14.2137 1.12767 14.2116 1.41639V1.4316L14.3192 1.54511C15.3957 1.54511 15.8778 1.56477 16 2.45889V2.82478C16 3.33652 14.7082 4.71891 14.343 5.081L10.1037 9.29096L10.632 11.7767H11.9245C12.3974 11.7767 12.851 11.9571 13.1854 12.2782C13.5198 12.5993 13.7077 13.0348 13.7077 13.4889H11.2112C11.0423 13.1298 10.7704 12.8244 10.4274 12.6081C10.0844 12.3919 9.68447 12.2737 9.2742 12.2676L7.90117 12.3341C8.14495 12.1193 8.33971 11.8582 8.47316 11.5675C8.60661 11.2767 8.67585 10.9626 8.67651 10.6448V10.3544C8.67563 9.74119 8.4215 9.15334 7.96985 8.7198C7.5182 8.28626 6.90591 8.04241 6.26727 8.04173H3.80387C3.71795 8.04173 3.63556 8.0745 3.57481 8.13284C3.51406 8.19117 3.47993 8.27028 3.47993 8.35277C3.47993 8.43527 3.51406 8.51438 3.57481 8.57271C3.63556 8.63104 3.71795 8.66381 3.80387 8.66381H6.26727C6.73419 8.66415 7.18189 8.84235 7.51212 9.1593C7.84234 9.47626 8.0281 9.90607 8.02863 10.3544V10.6461C8.0281 11.0944 7.84234 11.5242 7.51212 11.8412C7.18189 12.1581 6.73419 12.3363 6.26727 12.3367H5.34795C5.26204 12.3367 5.17964 12.3694 5.11889 12.4278C5.05814 12.4861 5.02401 12.5652 5.02401 12.6477C5.02401 12.7302 5.05814 12.8093 5.11889 12.8676C5.17964 12.926 5.26204 12.9587 5.34795 12.9587H7.87673L9.29071 12.8903C9.70926 12.9102 10.1027 13.0878 10.3857 13.3847C10.6686 13.6815 10.8181 14.0735 10.8018 14.4756V14.9835L10.3322 15L0.411906 14.8821C0.356025 14.4697 0.442396 14.0511 0.657804 13.6904C0.873211 13.3296 1.20579 13.0466 1.60464 12.8846ZM12.7401 2.20714C12.903 2.20714 13.0622 2.16076 13.1977 2.07387C13.3331 1.98699 13.4387 1.86349 13.501 1.71899C13.5633 1.5745 13.5796 1.41551 13.5479 1.26212C13.5161 1.10873 13.4376 0.967826 13.3225 0.857237C13.2073 0.746648 13.0605 0.671336 12.9008 0.640825C12.741 0.610313 12.5754 0.625973 12.425 0.685823C12.2745 0.745674 12.1459 0.847027 12.0554 0.977066C11.9649 1.1071 11.9166 1.25999 11.9166 1.41639C11.9166 1.62611 12.0033 1.82724 12.1578 1.97553C12.3122 2.12383 12.5217 2.20714 12.7401 2.20714Z" fill="white"/>
</svg>
