<svg width="28" height="16" viewBox="0 0 28 16" fill="none" xmlns="http://www.w3.org/2000/svg">
<path d="M1.13503 8.85278C1.13503 8.85278 1.06648 9.20687 1.3946 9.53915C1.7227 9.87142 0.976597 10.4475 1.10469 10.6681C1.71709 11.7305 4.22179 9.77198 4.77582 6.87231C4.77582 6.87231 4.33536 3.49744 9.80989 2.89952C15.2855 2.30166 17.5206 2.5236 17.5206 2.5236C17.5206 2.5236 19.6129 0.973785 20.6579 0.664549L21.704 0.354102H21.1916C21.1916 0.354102 21.8276 0.0363908 22.6816 0.206156C22.6816 0.206156 22.4288 0.00727688 22.2647 0C22.2647 0 23.276 0.0666962 24.2065 0.420811C24.2065 0.420811 24.6784 0.612416 25.2245 0.47902L25.0605 0.301969C25.0605 0.301969 25.7437 0.229206 26.346 0.789464C26.346 0.789464 26.3257 0.549351 26.319 0.542075C26.2572 0.492353 27.3134 1.16781 27.2011 2.52239L27.5281 3.67321V4.07096L28 5.55406V6.43933L27.6 6.70491L27.2 7.23605H26.8516L26.6673 7.56832H26.3797L25.8875 7.14751L25.7235 6.70487L25.2515 6.63818C25.2515 6.63818 25.047 7.89937 24.6875 8.40869L24.6155 8.25347C24.6155 8.25347 24.5953 8.36382 24.4616 8.51904L24.3695 8.26438C24.3695 8.26438 23.8368 9.13872 23.3334 9.31577L23.2716 9.01745L23.148 9.13872C23.148 9.13872 23.0356 8.72884 22.7581 8.60757C22.7581 8.60757 22.3682 9.24908 22.0401 9.45888L23.5885 11.4174L23.5166 13.7518C23.5166 13.7518 22.7165 14.5267 22.4918 15.0348C22.2659 15.5441 21.7737 15.4774 21.7737 15.4774L21.6299 14.1944L21.9502 13.6657L22.2165 13.5881L22.2783 12.2602C22.2783 12.2602 20.5972 11.2973 20.3197 10.9323C20.3197 10.9323 19.0174 11.7072 19.7972 14.717C19.7972 14.717 21.1097 15.0566 21.1434 16H18.987C18.987 16 18.7713 15.6119 18.587 15.5355C18.4027 15.4579 18.3926 14.871 18.0229 14.6284L17.8488 11.5967L17.6027 10.8886C17.6027 10.8886 17.1723 10.9771 16.9262 11.0219C16.9262 11.0219 16.8543 10.4811 16.661 10.2652C16.6475 10.2507 16.6329 10.2361 16.6183 10.224C16.3925 10.047 16.0026 10.0009 15.8801 9.66858C15.8801 9.66858 13.9316 9.58127 12.681 8.91792C12.681 8.91792 11.7787 8.6293 11.3685 8.93975C11.3685 8.93975 11.4506 11.108 11.2449 11.8829C11.0393 12.6579 11.409 14.1628 12.2293 14.3835C13.0496 14.6054 13.8081 14.7376 13.9317 15.4021H11.7371C11.7371 15.4021 10.2606 13.6983 9.74821 13.6535V10.954C9.74821 10.954 8.72342 9.69283 8.53802 8.8961C8.53802 8.8961 6.7952 10.9322 5.07257 11.7071C3.34997 12.482 3.59606 14.4296 3.63651 14.4963C3.67696 14.563 4.62085 14.9389 4.6613 15.8909H2.34427L2.63194 11.4863C2.63194 11.4863 3.8826 11.3759 3.80056 9.9813C3.80056 9.9813 3.20614 11.5081 1.38015 11.5311C1.38015 11.5311 0.108143 11.5978 0.00590897 10.5792C-0.0952225 9.56052 1.13521 8.8523 1.13521 8.8523L1.13503 8.85278Z" fill="white"/>
</svg>
