<svg width="17" height="17" viewBox="0 0 17 17" fill="none" xmlns="http://www.w3.org/2000/svg">
<path d="M0.0539048 11.0041L3.10107 12.8661L2.99483 13.0131C2.77985 13.3003 2.80558 13.6847 3.05874 13.9354C3.30942 14.1861 3.69374 14.2135 3.98093 13.9993L4.12785 13.893L5.99797 16.9381C6.04279 17.0103 6.1424 17.0211 6.20216 16.9613L6.82885 16.3345C6.86288 16.3005 6.87533 16.2515 6.86288 16.2067L5.84939 12.6278L7.28124 11.5777C7.64066 11.3079 7.98016 11.0231 8.29473 10.7085L10.3026 8.70034L14.1384 15.4587C14.2106 15.5841 14.3807 15.6115 14.4787 15.5119L15.6707 14.3198C15.7238 14.2666 15.7429 14.1753 15.7155 14.0964L14.8738 11.4973L15.6541 10.7169C15.7346 10.6364 15.7346 10.5111 15.6541 10.4297L15.0722 9.84774C14.9917 9.76722 14.8664 9.76722 14.785 9.84774L14.4447 10.1881L14.2023 9.44429L14.9186 8.72786C14.9992 8.64733 14.9992 8.52198 14.9186 8.44061L14.3368 7.85867C14.2646 7.78644 14.1309 7.77814 14.0496 7.85867L13.7798 8.12681L13.0726 5.93188L14.9552 4.04906C15.7628 3.24131 16.4061 2.29162 16.846 1.24399L16.944 1.00159C17.061 0.742566 16.9888 0.419639 16.7821 0.212941C16.5763 0.00706011 16.2617 -0.0551981 15.9936 0.0510586L15.7512 0.149018C14.712 0.597312 13.7541 1.23322 12.9465 2.04012L11.0639 3.92294L8.86927 3.21564L9.13903 2.94585C9.21955 2.86532 9.21955 2.73997 9.13903 2.6586L8.55716 2.07665C8.47664 1.99613 8.3513 1.99613 8.26995 2.07665L7.55361 2.79309L6.80988 2.55068L7.15021 2.21031C7.23073 2.12978 7.23073 2.00443 7.15021 1.92306L6.56834 1.34112C6.49612 1.26889 6.36248 1.26059 6.28113 1.34112L5.50087 2.12148L2.90206 1.2797C2.82155 1.2523 2.7402 1.2797 2.68708 1.33283L1.49512 2.52495C1.39717 2.62291 1.4146 2.78397 1.53994 2.85618L8.29748 6.69241L6.28957 8.70058C5.97498 9.01521 5.68862 9.35474 5.42051 9.7142L4.37298 11.1404L0.786286 10.1351C0.749763 10.1185 0.696639 10.1351 0.660948 10.1716L0.0342599 10.7984C-0.0188637 10.8515 -0.0105637 10.9511 0.0616526 11.0043L0.0539048 11.0041Z" fill="white"/>
</svg>
