<svg width="20" height="14" viewBox="0 0 20 14" fill="none" xmlns="http://www.w3.org/2000/svg">
<path d="M6.1151 2.85303H4.45703V4.5427H6.1151V2.85303Z" fill="white"/>
<path d="M8.34766 4.29174C8.90694 4.19057 9.46041 4.05975 10.0057 3.89984V2.85303H8.34766V4.29174Z" fill="white"/>
<path d="M5.53702 9.45703H4.27797C3.80786 9.65104 3.41977 10.0016 3.17982 10.449C2.93988 10.8964 2.86293 11.413 2.9621 11.9106C3.06126 12.4082 3.3304 12.8562 3.72365 13.1781C4.1169 13.5 4.60992 13.676 5.11868 13.676H10.6405C10.9505 13.6759 11.257 13.6104 11.5398 13.4839C11.8227 13.3573 12.0755 13.1726 12.2817 12.9417C12.488 12.7109 12.6429 12.4392 12.7364 12.1444C12.83 11.8497 12.8599 11.5385 12.8244 11.2314C10.5723 10.0678 8.07342 9.45938 5.53702 9.45703ZM10.6405 12.4706H5.11868C4.85609 12.4706 4.60426 12.3665 4.41858 12.1814C4.2329 11.9962 4.12859 11.7451 4.12859 11.4832C4.12859 11.2213 4.2329 10.9702 4.41858 10.785C4.60426 10.5998 4.85609 10.4958 5.11868 10.4958H10.6405C10.9031 10.4958 11.1549 10.5998 11.3406 10.785C11.5263 10.9702 11.6306 11.2213 11.6306 11.4832C11.6306 11.7451 11.5263 11.9962 11.3406 12.1814C11.1549 12.3665 10.9031 12.4706 10.6405 12.4706Z" fill="white"/>
<path d="M0.64503 4.69189H0.563697C0.252376 4.69189 0 4.94358 0 5.25405V8.74582C0 9.05628 0.252376 9.30797 0.563697 9.30797H0.64503C0.956351 9.30797 1.20873 9.05628 1.20873 8.74582V5.25405C1.20873 4.94358 0.956351 4.69189 0.64503 4.69189Z" fill="white"/>
<path d="M18.3084 0H18.4163C18.6365 -2.58024e-08 18.8477 0.0872197 19.0035 0.242483C19.1592 0.397746 19.2468 0.608342 19.2469 0.82797V13.172C19.2469 13.3916 19.1594 13.6022 19.0037 13.7575C18.848 13.9128 18.6369 14 18.4167 14H18.3088C18.0886 14 17.8774 13.9128 17.7217 13.7575C17.566 13.6022 17.4785 13.3916 17.4785 13.172V0.82797C17.4785 0.608379 17.566 0.397781 17.7217 0.242507C17.8774 0.0872323 18.0886 0 18.3088 0H18.3084Z" fill="white"/>
<path d="M6.12632 1.4873H4.3849C4.1583 1.4873 3.97461 1.67049 3.97461 1.89647V1.96192C3.97461 2.1879 4.1583 2.37109 4.3849 2.37109H6.12632C6.35292 2.37109 6.53661 2.1879 6.53661 1.96192V1.89647C6.53661 1.67049 6.35292 1.4873 6.12632 1.4873Z" fill="white"/>
<path d="M10.0169 1.4873H8.27553C8.04893 1.4873 7.86523 1.67049 7.86523 1.89647V1.96192C7.86523 2.1879 8.04893 2.37109 8.27553 2.37109H10.0169C10.2435 2.37109 10.4272 2.1879 10.4272 1.96192V1.89647C10.4272 1.67049 10.2435 1.4873 10.0169 1.4873Z" fill="white"/>
<path d="M5.53724 5.02464H1.6582C1.68086 5.1128 1.69222 5.20346 1.69202 5.29447V8.70513C1.69202 8.79612 1.68066 8.88676 1.6582 8.97496H5.53724C8.37615 8.97654 11.1656 9.71628 13.6303 11.1212L16.9928 13.0401V0.959473L13.6303 2.87842C11.1657 4.28349 8.37618 5.02324 5.53724 5.02464Z" fill="white"/>
</svg>
