<svg width="24" height="20" viewBox="0 0 24 20" fill="none" xmlns="http://www.w3.org/2000/svg">
<path d="M21.6585 15C22.2795 15 22.8751 14.7893 23.3142 14.4142C23.7533 14.0391 24 13.5304 24 13V2C24 1.46957 23.7533 0.960859 23.3142 0.585786C22.8751 0.210714 22.2795 0 21.6585 0H9.31902C9.72878 0.61 9.95122 1.3 9.95122 2H21.6585V13H11.122V15M15.8049 5V7H8.78049V20H6.43902V14H4.09756V20H1.7561V12H0V7C0 6.46957 0.246689 5.96086 0.685799 5.58579C1.12491 5.21071 1.72047 5 2.34146 5H15.8049ZM7.60976 2C7.60976 2.53043 7.36307 3.03914 6.92396 3.41421C6.48485 3.78929 5.88929 4 5.26829 4C4.6473 4 4.05174 3.78929 3.61263 3.41421C3.17352 3.03914 2.92683 2.53043 2.92683 2C2.92683 1.46957 3.17352 0.960859 3.61263 0.585786C4.05174 0.210714 4.6473 0 5.26829 0C5.88929 0 6.48485 0.210714 6.92396 0.585786C7.36307 0.960859 7.60976 1.46957 7.60976 2Z" fill="#DF5937"/>
</svg>
